<svg width="32" height="17" viewBox="0 0 32 17" fill="none" xmlns="http://www.w3.org/2000/svg">
<path d="M18.3443 17C19.1462 17 19.5708 16.6831 19.8302 15.8682L21.1156 12.3822H27.8373L29.1226 15.8682C29.3821 16.6831 29.8066 17 30.6085 17C31.4575 17 32 16.5133 32 15.755C32 15.472 31.9528 15.2344 31.8349 14.9174L26.6462 1.44873C26.2807 0.464048 25.5967 0 24.4882 0C23.4269 0 22.7429 0.464048 22.3892 1.43742L17.1651 14.9854C17.0472 15.2796 17 15.5286 17 15.7776C17 16.536 17.5071 17 18.3443 17ZM21.7995 10.2543L24.4528 2.92011H24.5236L27.1769 10.2543H21.7995Z" fill="#474747"/>
<path d="M1.43396 17C2.28931 17 2.74214 16.6831 3.01887 15.8682L4.38994 12.3822H11.5597L12.9308 15.8682C13.2075 16.6831 13.6604 17 14.5157 17C15.4214 17 16 16.5133 16 15.755C16 15.472 15.9497 15.2344 15.8239 14.9174L10.2893 1.44873C9.89937 0.464048 9.16981 0 7.98742 0C6.85535 0 6.12579 0.464048 5.74843 1.43742L0.176101 14.9854C0.0503145 15.2796 0 15.5286 0 15.7776C0 16.536 0.540881 17 1.43396 17ZM5.1195 10.2543L7.94969 2.92011H8.02516L10.8553 10.2543H5.1195Z" fill="#474747"/>
</svg>
