<svg width="28" height="14" viewBox="0 0 28 14" fill="none" xmlns="http://www.w3.org/2000/svg">
<path d="M-2.80469 13.29C-2.20703 13.29 -1.89062 13.0176 -1.69727 12.3848L-0.739258 9.68652H4.27051L5.22852 12.3848C5.42188 13.0176 5.73828 13.29 6.33594 13.29C6.96875 13.29 7.37305 12.8857 7.37305 12.2969C7.37305 12.0771 7.33789 11.8926 7.25 11.6465L3.38281 1.1875C3.11035 0.431641 2.60059 0.0361328 1.77441 0.0361328C0.983398 0.0361328 0.473633 0.431641 0.209961 1.1875L-3.68359 11.6992C-3.77148 11.9277 -3.80664 12.1211 -3.80664 12.3145C-3.80664 12.9033 -3.42871 13.29 -2.80469 13.29ZM26.4189 13.2461C28.748 13.2461 30.5674 12.2441 31.4463 10.5918C31.6396 10.2227 31.7539 9.83594 31.7539 9.4668C31.7539 8.92188 31.3584 8.53516 30.7959 8.53516C30.3389 8.53516 30.0752 8.71094 29.8027 9.24707C29.2051 10.6533 28.0449 11.4092 26.4189 11.4092C24.0547 11.4092 22.5518 9.58984 22.5518 6.61035C22.5518 3.68359 24.0635 1.87305 26.4189 1.87305C27.9834 1.87305 29.2051 2.76953 29.8203 4.22852C30.084 4.73828 30.3652 4.94922 30.8486 4.94922C31.4111 4.94922 31.7979 4.57129 31.7979 4.02637C31.7979 3.75391 31.7363 3.45508 31.6133 3.14746C30.8926 1.24902 28.8271 0.0361328 26.4189 0.0361328C22.6748 0.0361328 20.3369 2.5498 20.3369 6.61914C20.3369 10.7324 22.666 13.2461 26.4189 13.2461ZM10.0273 13.0352H14.4658C17.2959 13.0352 19.0361 11.6201 19.0361 9.48438C19.0361 7.71777 17.6914 6.46094 15.8721 6.29395V6.23242C17.3135 6.0127 18.377 4.80859 18.377 3.34961C18.377 1.52148 16.8125 0.255859 14.3779 0.255859H10.0273C9.36816 0.255859 8.94629 0.660156 8.94629 1.33691V11.9541C8.94629 12.6221 9.36816 13.0352 10.0273 13.0352ZM11.1436 5.6875V1.95215H13.833C15.3184 1.95215 16.2061 2.65527 16.2061 3.70117C16.2061 4.94922 15.2217 5.6875 13.5518 5.6875H11.1436ZM-0.238281 8.02539L1.73047 2.33008H1.79199L3.76074 8.02539H-0.238281ZM11.1436 11.3477V7.20801H13.8418C15.7314 7.20801 16.7861 7.96387 16.7861 9.32617C16.7861 10.583 15.7666 11.3477 13.9473 11.3477H11.1436Z" fill="#1C1C1E"/>
</svg>
