<svg width="21" height="20" viewBox="0 0 21 20" fill="none" xmlns="http://www.w3.org/2000/svg">
<path d="M10.8739 2.07187C6.50205 2.07187 2.95798 5.61594 2.95798 9.98777C2.95798 14.3596 6.50205 17.9037 10.8739 17.9037C15.2457 17.9037 18.7898 14.3596 18.7898 9.98777C18.7898 5.61594 15.2457 2.07187 10.8739 2.07187ZM0.979004 9.98777C0.979004 4.52298 5.40909 0.0928955 10.8739 0.0928955C16.3387 0.0928955 20.7688 4.52298 20.7688 9.98777C20.7688 15.4526 16.3387 19.8826 10.8739 19.8826C5.40909 19.8826 0.979004 15.4526 0.979004 9.98777ZM10.8739 5.04033C11.4204 5.04033 11.8634 5.48334 11.8634 6.02982V8.99828H14.8318C15.3783 8.99828 15.8213 9.44129 15.8213 9.98777C15.8213 10.5342 15.3783 10.9773 14.8318 10.9773H11.8634V13.9457C11.8634 14.4922 11.4204 14.9352 10.8739 14.9352C10.3274 14.9352 9.88439 14.4922 9.88439 13.9457V10.9773H6.91593C6.36945 10.9773 5.92644 10.5342 5.92644 9.98777C5.92644 9.44129 6.36945 8.99828 6.91593 8.99828H9.88439V6.02982C9.88439 5.48334 10.3274 5.04033 10.8739 5.04033Z" fill="#21262C"/>
</svg>
