<svg width="20" height="26" viewBox="0 0 20 26" fill="none" xmlns="http://www.w3.org/2000/svg">
<path d="M3.73961 25.0327H18.7558C19.3675 25.0327 19.8407 24.5594 19.8407 23.9477C19.8407 23.4283 19.4829 23.0474 19.0443 22.8397C17.6247 22.2049 17.3476 20.2427 18.7904 18.8692C19.379 18.3498 19.8292 17.7727 19.8292 16.607V3.82998C19.8292 1.3369 18.548 0.0326538 16.0665 0.0326538H3.7627C1.29271 0.0326538 0 1.32536 0 3.82998V21.27C0 23.7399 1.29271 25.0327 3.73961 25.0327ZM15.8587 2.32951C16.9783 2.32951 17.5323 2.91816 17.5323 3.98002V16.2492C17.5323 16.8147 17.2091 17.1264 16.632 17.1264H5.29778V2.32951H15.8587ZM2.29686 17.5303V3.98002C2.29686 3.02204 2.747 2.45648 3.65882 2.3526V17.1379C3.13943 17.1841 2.68929 17.3226 2.29686 17.5303ZM8.29871 14.0793C8.74885 14.0793 9.04894 13.8484 9.21053 13.2944L9.81071 11.5285H13.0771L13.6773 13.2944C13.8389 13.8484 14.139 14.0793 14.5891 14.0793C15.1316 14.0793 15.4663 13.7446 15.4663 13.2367C15.4663 13.0751 15.4317 12.8905 15.3393 12.625L12.8347 5.74595C12.5923 5.05343 12.1191 4.71871 11.4266 4.71871C10.7456 4.71871 10.2955 5.05343 10.0531 5.74595L7.54848 12.625C7.45614 12.8905 7.42151 13.0751 7.42151 13.2367C7.42151 13.7446 7.75623 14.0793 8.29871 14.0793ZM10.2262 10.1435L11.392 6.58852H11.4958L12.6616 10.1435H10.2262ZM4.05125 22.8628C2.81625 22.8628 2.1699 22.1587 2.1699 21.0737C2.1699 20.0234 2.90859 19.2963 4.13204 19.2963H15.651C15.7779 19.2963 15.9049 19.2847 16.0203 19.2616C15.4432 20.4851 15.5125 21.8124 16.1357 22.8628H4.05125Z" fill="white"/>
</svg>
