<svg width="17" height="21" viewBox="0 0 17 21" fill="none" xmlns="http://www.w3.org/2000/svg">
<path d="M3.20419 21H16.0704C16.5945 21 17 20.6025 17 20.0886C17 19.6524 16.6934 19.3324 16.3176 19.1579C15.1012 18.6247 14.8639 16.9765 16.1001 15.8227C16.6044 15.3864 16.9901 14.9017 16.9901 13.9224V3.18975C16.9901 1.09557 15.8924 0 13.7661 0H3.22397C1.10762 0 0 1.08587 0 3.18975V17.8393C0 19.9141 1.10762 21 3.20419 21ZM13.5881 1.92936C14.5474 1.92936 15.0221 2.42382 15.0221 3.31579V13.6219C15.0221 14.097 14.7452 14.3587 14.2507 14.3587H4.53927V1.92936H13.5881ZM1.968 14.6981V3.31579C1.968 2.51108 2.35369 2.03601 3.13496 1.94875V14.3684C2.68994 14.4072 2.30425 14.5235 1.968 14.6981ZM7.11053 11.7992C7.49622 11.7992 7.75335 11.6053 7.8918 11.1399L8.40605 9.65651H11.2048L11.719 11.1399C11.8575 11.6053 12.1146 11.7992 12.5003 11.7992C12.9651 11.7992 13.2519 11.518 13.2519 11.0914C13.2519 10.9557 13.2222 10.8006 13.1431 10.5776L10.9971 4.79917C10.7894 4.21745 10.3839 3.93629 9.79058 3.93629C9.2071 3.93629 8.82141 4.21745 8.61373 4.79917L6.46771 10.5776C6.3886 10.8006 6.35893 10.9557 6.35893 11.0914C6.35893 11.518 6.64572 11.7992 7.11053 11.7992ZM8.76207 8.49307L9.76091 5.50693H9.84991L10.8487 8.49307H8.76207ZM3.4712 19.1773C2.41303 19.1773 1.85922 18.5859 1.85922 17.6745C1.85922 16.7922 2.49215 16.1814 3.54043 16.1814H13.4101C13.5189 16.1814 13.6277 16.1717 13.7266 16.1524C13.2321 17.1801 13.2914 18.295 13.8255 19.1773H3.4712Z" fill="black"/>
</svg>
