<svg width="12" height="18" viewBox="0 0 12 18" fill="none" xmlns="http://www.w3.org/2000/svg">
<path d="M5.52645 1.94876C7.2595 1.94876 8.66529 1.50992 8.66529 0.97438C8.66529 0.438843 7.2595 0 5.52645 0C3.80083 0 2.3876 0.438843 2.3876 0.97438C2.3876 1.50992 3.80083 1.94876 5.52645 1.94876ZM5.52645 18C9 18 11.0529 16.6835 11.0529 14.4446V3.88264C11.0529 3.01983 10.7777 2.28347 10.3017 1.77025C10.019 1.38347 9.62479 1.30909 9.29752 1.61405C8.83636 2.38017 7.28182 2.84876 5.52645 2.84876C3.77851 2.84876 2.21653 2.38017 1.75537 1.61405C1.43554 1.30909 1.03388 1.38347 0.75124 1.77025C0.275207 2.28347 0 3.01983 0 3.88264V14.4446C0 16.6835 2.05289 18 5.52645 18ZM5.52645 16.5273C2.84876 16.5273 1.46529 15.7091 1.46529 14.3107V3.95702C1.46529 3.71901 1.53223 3.51818 1.65124 3.35455C2.52893 3.98678 3.94215 4.32893 5.52645 4.32893C7.11074 4.32893 8.5314 3.98678 9.40909 3.35455C9.5281 3.51818 9.5876 3.71901 9.5876 3.95702V14.3107C9.5876 15.7091 8.20413 16.5273 5.52645 16.5273Z" fill="#474747"/>
</svg>
