<svg width="19" height="21" viewBox="0 0 19 21" fill="none" xmlns="http://www.w3.org/2000/svg">
<path d="M9.08789 20.0566C14.0713 20.0566 18.1846 15.9434 18.1846 10.9688C18.1846 8.95605 17.5078 7.08398 16.374 5.57227L17.0771 4.86914C17.3057 4.64062 17.4287 4.36816 17.4287 4.10449C17.4287 3.55957 16.998 3.12891 16.4443 3.12891C16.1191 3.12891 15.8906 3.22559 15.6621 3.44531L15.0029 4.0957C13.6494 2.92676 11.9531 2.15332 10.1074 1.93359V1.0459C10.1074 0.46582 9.65039 0 9.08789 0C8.53418 0 8.06836 0.46582 8.06836 1.0459V1.93359C3.55957 2.45215 0 6.33691 0 10.9688C0 15.9434 4.11328 20.0566 9.08789 20.0566ZM9.08789 18.2461C5.05371 18.2461 1.82812 15.0029 1.82812 10.9688C1.82812 6.93457 5.05371 3.7002 9.0791 3.7002C13.1133 3.7002 16.3564 6.93457 16.3652 10.9688C16.374 15.0029 13.1221 18.2461 9.08789 18.2461ZM9.08789 12.498C9.93164 12.498 10.6084 11.8125 10.6084 10.9775C10.6084 10.3975 10.2832 9.90527 9.79102 9.63281V5.58984C9.79102 5.19434 9.4834 4.88672 9.0791 4.88672C8.69238 4.88672 8.38477 5.19434 8.38477 5.58984V9.63281C7.89258 9.90527 7.56738 10.4062 7.56738 10.9775C7.56738 11.8125 8.24414 12.498 9.08789 12.498Z" fill="#474747"/>
</svg>
