<svg width="17" height="21" viewBox="0 0 17 21" fill="none" xmlns="http://www.w3.org/2000/svg">
<path d="M4.55111 21H12.4575C13.7824 21 14.6341 20.1355 14.7029 18.7038L15.2794 5.3174H16.2257C16.6645 5.3174 17 4.94555 17 4.48074C17 4.01594 16.6559 3.66268 16.2257 3.66268H12.4059V2.26826C12.4059 0.836653 11.5628 0 10.126 0H6.85678C5.42004 0 4.57692 0.836653 4.57692 2.26826V3.66268H0.774291C0.34413 3.66268 0 4.02523 0 4.48074C0 4.95485 0.34413 5.3174 0.774291 5.3174H1.72065L2.29706 18.7038C2.36589 20.1448 3.20901 21 4.55111 21ZM6.18573 2.35193C6.18573 1.87782 6.49544 1.57105 6.96862 1.57105H10.0142C10.4873 1.57105 10.7971 1.87782 10.7971 2.35193V3.66268H6.18573V2.35193ZM4.72318 19.336C4.25 19.336 3.90587 18.9548 3.88006 18.4064L3.30364 5.3174H13.6705L13.1113 18.4064C13.0941 18.9641 12.7586 19.336 12.2682 19.336H4.72318ZM5.96204 17.8393C6.33198 17.8393 6.56427 17.5883 6.55567 17.2165L6.29757 7.4927C6.28897 7.12085 6.04808 6.87915 5.69534 6.87915C5.33401 6.87915 5.10172 7.13015 5.11032 7.50199L5.36842 17.2258C5.37702 17.5976 5.61791 17.8393 5.96204 17.8393ZM8.5 17.8393C8.86134 17.8393 9.11083 17.5976 9.11083 17.2258V7.50199C9.11083 7.13015 8.86134 6.87915 8.5 6.87915C8.13866 6.87915 7.89777 7.13015 7.89777 7.50199V17.2258C7.89777 17.5976 8.13866 17.8393 8.5 17.8393ZM11.038 17.8486C11.3821 17.8486 11.623 17.5976 11.6316 17.2258L11.8897 7.50199C11.8983 7.13015 11.666 6.88845 11.3047 6.88845C10.9519 6.88845 10.711 7.13015 10.7024 7.50199L10.4443 17.2258C10.4357 17.5883 10.668 17.8486 11.038 17.8486Z" fill="black"/>
</svg>
