<svg width="37" height="45" viewBox="0 0 37 45" fill="none" xmlns="http://www.w3.org/2000/svg">
<path d="M7.62513 44.2137H29.3749C33.7616 44.2137 36.0264 41.9081 36.0264 37.501V18.975C36.0264 16.1185 35.6591 14.8127 33.884 12.9968L23.2132 2.16274C21.4789 0.408064 20.0507 0 17.4799 0H7.62513C3.25885 0 0.973694 2.30556 0.973694 6.73305V37.501C0.973694 41.9081 3.25885 44.2137 7.62513 44.2137ZM7.97198 40.1331C6.01328 40.1331 5.03393 39.1129 5.03393 37.2358V6.97789C5.03393 5.1212 6.01328 4.08064 7.99239 4.08064H16.6433V15.18C16.6433 18.1384 18.092 19.5667 21.03 19.5667H31.9661V37.2358C31.9661 39.1129 30.9868 40.1331 29.0077 40.1331H7.97198ZM21.4177 15.9961C20.5607 15.9961 20.1935 15.6288 20.1935 14.7923V4.61112L31.4152 15.9961H21.4177ZM25.6819 24.9123H10.9508C10.1755 24.9123 9.62464 25.4632 9.62464 26.1773C9.62464 26.9118 10.1755 27.4831 10.9508 27.4831H25.6819C26.4165 27.4831 26.9673 26.9118 26.9673 26.1773C26.9673 25.4632 26.4165 24.9123 25.6819 24.9123ZM25.6819 31.7269H10.9508C10.1755 31.7269 9.62464 32.2982 9.62464 33.0328C9.62464 33.7469 10.1755 34.2977 10.9508 34.2977H25.6819C26.4165 34.2977 26.9673 33.7469 26.9673 33.0328C26.9673 32.2982 26.4165 31.7269 25.6819 31.7269Z" fill="#474747"/>
</svg>
