<svg width="21" height="26" viewBox="0 0 21 26" fill="none" xmlns="http://www.w3.org/2000/svg">
<path d="M0 22.753C0 24.8838 1.09976 25.9836 3.2011 25.9836H12.392C14.4933 25.9836 15.5931 24.874 15.5931 22.753V20.9364H17.2624C19.3637 20.9364 20.4635 19.8268 20.4635 17.7059V9.93878C20.4635 8.64262 20.1885 7.8178 19.4128 7.02244L14.5228 2.03422C13.7765 1.27813 12.8928 0.983551 11.7636 0.983551H8.07148C5.97015 0.983551 4.87038 2.09313 4.87038 4.22393V6.03068H3.2011C1.09976 6.03068 0 7.15009 0 9.27106V22.753ZM14.6013 12.4231L9.27926 7.02244C8.53299 6.26635 7.89474 6.06014 6.82443 6.0405V4.34176C6.82443 3.4482 7.29576 2.94742 8.23841 2.94742H12.3331V7.61159C12.3331 8.82919 12.9811 9.46745 14.1889 9.46745H18.4996V17.5782C18.4996 18.4816 18.0283 18.9824 17.0856 18.9824H15.5931V15.2118C15.5931 13.8861 15.4262 13.2675 14.6013 12.4231ZM13.9533 7.36611V3.74278L17.989 7.84726H14.4344C14.0907 7.84726 13.9533 7.70979 13.9533 7.36611ZM1.95405 22.6253V9.39871C1.95405 8.49533 2.42537 7.99455 3.37785 7.99455H6.37274V13.3363C6.37274 14.7601 7.06991 15.4474 8.4839 15.4474H13.639V22.6253C13.639 23.5287 13.1677 24.0295 12.2152 24.0295H3.36803C2.42537 24.0295 1.95405 23.5287 1.95405 22.6253ZM8.67046 13.729C8.26787 13.729 8.09112 13.5621 8.09112 13.1497V8.36768L13.3739 13.729H8.67046Z" fill="white"/>
</svg>
