<svg width="28" height="21" viewBox="0 0 28 21" fill="none" xmlns="http://www.w3.org/2000/svg">
<path d="M1.37012 16.9072H6.9248C6.88965 17.127 6.87207 17.3467 6.87207 17.5576C6.87207 19.1133 7.75098 20.1768 9.49121 20.1768C11.4512 20.1768 13.042 18.9375 14.1055 16.9072H26.6387C27.0605 16.9072 27.4033 16.5469 27.4033 16.125C27.4033 15.7031 27.0605 15.3516 26.6387 15.3516H14.7734C15.2568 13.9189 15.5469 12.2402 15.6084 10.4033C16.1709 10.2891 16.7422 10.2188 17.3398 10.2188C17.6035 10.2188 17.7617 10.3418 17.7617 10.5352C17.7617 11.2646 17.3311 11.8535 17.3311 12.6445C17.3311 13.3564 17.8584 13.7959 18.5615 13.7959C20.3896 13.7959 22.5869 10.79 23.2461 10.79C23.8438 10.79 23.1582 13.4707 25.3818 13.4707C25.7686 13.4707 26.2607 13.374 26.6299 13.1191C26.876 12.9609 27.043 12.7148 27.043 12.4072C27.043 12.0205 26.7793 11.6865 26.375 11.6865C26.0762 11.6865 25.8213 11.915 25.5488 11.915C24.6963 11.915 25.5225 9.03223 23.6855 9.03223C22.1211 9.03223 19.8271 11.8711 19.2559 11.8711C19.1855 11.8711 19.1328 11.8271 19.1328 11.7305C19.1328 11.4404 19.4492 10.8428 19.4492 10.2363C19.4492 9.26953 18.6934 8.67188 17.4893 8.67188C16.8389 8.67188 16.2148 8.7334 15.5996 8.84766C15.3623 4.16309 13.0947 0.568359 9.7373 0.568359C7.36426 0.568359 5.60645 2.50195 5.60645 5.05078C5.60645 7.95996 7.4873 10.4209 9.70215 12.0469C8.65625 13.0752 7.86523 14.2354 7.38184 15.3516H1.37012C0.939453 15.3516 0.59668 15.7031 0.59668 16.125C0.59668 16.5469 0.948242 16.9072 1.37012 16.9072ZM7.15332 5.04199C7.15332 3.38086 8.26074 2.12402 9.7373 2.12402C12.2598 2.12402 13.9561 5.2793 14.0615 9.26953C12.875 9.69141 11.7852 10.3154 10.8359 11.0449C9.06934 9.7793 7.15332 7.72266 7.15332 5.04199ZM1.03613 13.5059C1.29102 13.7607 1.67773 13.752 1.92383 13.5059L2.9873 12.4512L4.04199 13.5059C4.29688 13.7607 4.6748 13.7607 4.92969 13.5059C5.18457 13.2598 5.18457 12.8643 4.92969 12.6182L3.875 11.5635L4.92969 10.5088C5.18457 10.2627 5.18457 9.87598 4.92969 9.62109C4.68359 9.36621 4.29688 9.375 4.04199 9.62109L2.9873 10.6758L1.92383 9.62109C1.66895 9.375 1.29102 9.375 1.03613 9.62109C0.78125 9.87598 0.78125 10.2715 1.03613 10.5176L2.09082 11.5635L1.03613 12.6182C0.78125 12.873 0.78125 13.251 1.03613 13.5059ZM11.6797 13.2334C11.8115 13.3037 11.9434 13.3301 12.0752 13.3301C12.4795 13.3301 12.7871 13.0225 12.7871 12.6533C12.7871 12.4072 12.6729 12.1699 12.3828 12.0029C12.3213 11.9766 12.2686 11.9414 12.207 11.915C12.7695 11.5195 13.376 11.1768 14.0352 10.9043C13.9209 12.583 13.5957 14.1035 13.1035 15.3516H9.07812C9.50879 14.5342 10.168 13.6641 11.0029 12.8818C11.2314 13.0049 11.4512 13.1279 11.6797 13.2334ZM8.48047 17.3291C8.48047 17.1973 8.49805 17.0566 8.51562 16.9072H12.3037C11.5742 17.9883 10.6777 18.6299 9.66699 18.6299C8.86719 18.6299 8.48047 18.1025 8.48047 17.3291Z" fill="#1C1C1E"/>
</svg>
