<svg width="26" height="26" viewBox="0 0 26 26" fill="none" xmlns="http://www.w3.org/2000/svg">
<path d="M11.8075 19.8374L11.3148 18.9672L11.8075 19.8374C12.0492 19.7006 12.2407 19.5079 12.3919 19.3558C12.4057 19.342 12.4191 19.3285 12.4322 19.3154L20.3762 11.3713C20.3891 11.3585 20.4019 11.3457 20.4147 11.3329C20.7146 11.033 21.0061 10.7417 21.2141 10.469C21.4487 10.1616 21.6691 9.76366 21.6691 9.25C21.6691 8.73634 21.4487 8.33838 21.2141 8.03098C21.0061 7.75831 20.7146 7.46695 20.4147 7.16714C20.4019 7.15433 20.3891 7.14151 20.3762 7.12868L19.9547 6.70711C19.9418 6.69426 19.929 6.68143 19.9162 6.66861C19.6164 6.3687 19.325 6.07723 19.0524 5.86919C18.745 5.63466 18.347 5.41421 17.8333 5.41421C17.3197 5.41421 16.9217 5.63466 16.6143 5.86919C16.3416 6.07723 16.0503 6.36871 15.7505 6.66864C15.7377 6.68145 15.7248 6.69427 15.712 6.70711L7.76794 14.6512C7.75487 14.6643 7.74139 14.6777 7.72757 14.6914C7.5754 14.8426 7.38278 15.0341 7.2459 15.2759L8.1161 15.7686L7.2459 15.2759C7.10901 15.5176 7.04394 15.7813 6.99254 15.9896C6.98787 16.0085 6.98332 16.027 6.97883 16.0449L6.23197 19.0323C6.22917 19.0436 6.22624 19.0552 6.22323 19.0672C6.18641 19.2137 6.1354 19.4166 6.11783 19.5962C6.09762 19.8029 6.09093 20.2548 6.45971 20.6236C6.82849 20.9924 7.28045 20.9857 7.48714 20.9655C7.66675 20.9479 7.86967 20.8969 8.01615 20.8601C8.02816 20.8571 8.03978 20.8542 8.05099 20.8514L11.0384 20.1045C11.0564 20.1 11.0748 20.0955 11.0937 20.0908C11.302 20.0394 11.5657 19.9743 11.8075 19.8374Z" stroke="black" stroke-width="2"/>
<path d="M15 7.16667L18.25 5L21.5 8.25L19.3333 11.5L15 7.16667Z" fill="black"/>
</svg>
