<svg width="18" height="16" viewBox="0 0 18 16" fill="none" xmlns="http://www.w3.org/2000/svg">
<path d="M13.1158 0.496674C14.2333 0.496674 15.3083 0.93834 16.0991 1.73084C16.8908 2.52167 17.3333 3.58834 17.3333 4.70501V11.2883C17.3333 13.6133 15.4416 15.4967 13.1158 15.4967H4.88329C2.55746 15.4967 0.666626 13.6133 0.666626 11.2883V4.70501C0.666626 2.38001 2.54913 0.496674 4.88329 0.496674H13.1158ZM14.0583 4.83001C13.8833 4.82084 13.7166 4.88001 13.5908 4.99667L9.83329 7.99667C9.34996 8.39751 8.65746 8.39751 8.16663 7.99667L4.41663 4.99667C4.15746 4.80501 3.79913 4.83001 3.58329 5.05501C3.35829 5.28001 3.33329 5.63834 3.52413 5.88834L3.63329 5.99667L7.42496 8.95501C7.89163 9.32167 8.45746 9.52167 9.04996 9.52167C9.64079 9.52167 10.2166 9.32167 10.6825 8.95501L14.4416 5.94667L14.5083 5.88001C14.7075 5.63834 14.7075 5.28834 14.4991 5.04667C14.3833 4.92251 14.2241 4.84667 14.0583 4.83001Z" fill="#FDFDFD"/>
</svg>
