<svg width="32" height="30" viewBox="0 0 32 30" fill="none" xmlns="http://www.w3.org/2000/svg">
<path d="M10.6667 8.25C10.6667 7.30719 10.6667 6.83579 10.9596 6.54289C11.2525 6.25 11.7239 6.25 12.6667 6.25H16.1334C16.7181 6.25 17.0104 6.25 17.2479 6.39251C17.4854 6.53501 17.623 6.79295 17.8981 7.30882L19.3334 10H24.6667C25.6096 10 26.081 10 26.3739 10.2929C26.6667 10.5858 26.6667 11.0572 26.6667 12V16.75C26.6667 17.6928 26.6667 18.1642 26.3739 18.4571C26.081 18.75 25.6096 18.75 24.6667 18.75H12.6667C11.7239 18.75 11.2525 18.75 10.9596 18.4571C10.6667 18.1642 10.6667 17.6928 10.6667 16.75V8.25Z" stroke="black" stroke-width="2" stroke-linejoin="round"/>
<path d="M22.6666 18.75V22.15C22.6666 22.7101 22.6666 22.9901 22.5576 23.204C22.4617 23.3922 22.3087 23.5451 22.1206 23.641C21.9067 23.75 21.6266 23.75 21.0666 23.75H6.93325C6.3732 23.75 6.09317 23.75 5.87926 23.641C5.6911 23.5451 5.53812 23.3922 5.44225 23.204C5.33325 22.9901 5.33325 22.7101 5.33325 22.15V11.6C5.33325 11.0399 5.33325 10.7599 5.44225 10.546C5.53812 10.3578 5.6911 10.2049 5.87926 10.109C6.09317 10 6.3732 10 6.93325 10H10.6666" stroke="black" stroke-width="2" stroke-linejoin="round"/>
</svg>
