<svg width="31" height="26" viewBox="0 0 31 26" fill="none" xmlns="http://www.w3.org/2000/svg">
<path d="M4.45898 25.4273H26.8513C29.4563 25.4273 30.9681 23.9156 30.9681 21.0271V7.13818C30.9681 4.24972 29.4428 2.738 26.5274 2.738H14.0152C13.0434 2.738 12.463 2.52204 11.7071 1.90116L10.9513 1.28027C9.99296 0.497419 9.29109 0.240967 7.87385 0.240967H4.05406C1.51653 0.240967 0.0183105 1.72569 0.0183105 4.57366V21.0271C0.0183105 23.9291 1.54353 25.4273 4.45898 25.4273ZM2.70431 4.80312C2.70431 3.57485 3.39268 2.92697 4.59396 2.92697H7.15848C8.1168 2.92697 8.6837 3.15642 9.45306 3.77731L10.2089 4.41169C11.1537 5.16755 11.8826 5.4375 13.2998 5.4375H26.3519C27.5937 5.4375 28.2821 6.08538 28.2821 7.38114V8.17749H2.70431V4.80312ZM4.63445 22.7413C3.39268 22.7413 2.70431 22.0934 2.70431 20.7841V10.5396H28.2821V20.7976C28.2821 22.0934 27.5937 22.7413 26.3519 22.7413H4.63445Z" fill="white"/>
</svg>
