<svg width="19" height="19" viewBox="0 0 19 19" fill="none" xmlns="http://www.w3.org/2000/svg">
<path d="M1.07227 15.7006H2.22363C2.4873 15.7006 2.59277 15.6479 2.78613 15.4985L3.375 15.0502C3.7002 15.3754 4.18359 15.4457 4.66699 15.2348L7.57617 14.0219C7.7959 13.934 7.91016 13.8461 8.05078 13.7055L16.541 5.27677C17.3848 4.43302 17.3848 3.42228 16.5322 2.56095L14.625 0.644936C13.7725 -0.207603 12.7617 -0.216392 11.918 0.627358L3.42773 9.04728C3.27832 9.19669 3.19922 9.30216 3.10254 9.53068L1.87207 12.4311C1.66992 12.8969 1.72266 13.3539 2.04785 13.7143L0.782227 15.0238C0.509766 15.3139 0.641602 15.7006 1.07227 15.7006ZM12.8936 1.78751C13.1221 1.56779 13.3945 1.559 13.6055 1.77872L15.3984 3.58048C15.6182 3.80021 15.6094 4.06388 15.3721 4.2924L14.8008 4.86369L12.3135 2.36759L12.8936 1.78751ZM4.9834 9.65372L11.3643 3.31681L13.8428 5.8129L7.4707 12.1498L4.9834 9.65372ZM4.49121 13.6791C4.32422 13.7406 4.20996 13.7406 4.06055 13.5912L3.50684 13.0463C3.36621 12.9057 3.36621 12.7738 3.42773 12.6244L4.21875 10.7875L6.32812 12.9145L4.49121 13.6791ZM0.773438 18.8207H17.6396C18.0615 18.8207 18.4043 18.4604 18.4043 18.0385C18.4043 17.6166 18.0615 17.2651 17.6396 17.2651H0.773438C0.342773 17.2651 0 17.6166 0 18.0385C0 18.4604 0.351562 18.8207 0.773438 18.8207Z" fill="#474747"/>
</svg>
