<svg width="23" height="17" viewBox="0 0 23 17" fill="none" xmlns="http://www.w3.org/2000/svg">
<path d="M1.8335 6.66667L1.1389 7.38607L0.393806 6.66667L1.1389 5.94727L1.8335 6.66667ZM22.1668 16C22.1668 16.5523 21.7191 17 21.1668 17C20.6145 17 20.1668 16.5523 20.1668 16L22.1668 16ZM7.18057 13.2194L1.1389 7.38607L2.52809 5.94727L8.56976 11.7806L7.18057 13.2194ZM1.1389 5.94727L7.18057 0.113932L8.56976 1.55273L2.52809 7.38607L1.1389 5.94727ZM1.8335 5.66667L15.1668 5.66667L15.1668 7.66667L1.8335 7.66667L1.8335 5.66667ZM22.1668 12.6667L22.1668 16L20.1668 16L20.1668 12.6667L22.1668 12.6667ZM15.1668 5.66667C19.0328 5.66667 22.1668 8.80067 22.1668 12.6667L20.1668 12.6667C20.1668 9.90524 17.9283 7.66667 15.1668 7.66667L15.1668 5.66667Z" fill="#33363F"/>
</svg>
