<svg width="292" height="292" viewBox="0 0 292 292" fill="none" xmlns="http://www.w3.org/2000/svg">
<path d="M43 232.761C43 258.601 56.3329 272 82.0379 272H209.962C235.667 272 249 258.601 249 232.761V52.2388C249 26.5182 235.667 13 209.962 13H82.0379C56.3329 13 43 26.5182 43 52.2388V232.761ZM66.5429 231.326V53.6744C66.5429 42.5487 72.3085 36.4476 83.9598 36.4476H207.92C219.571 36.4476 225.457 42.5487 225.457 53.6744V231.326C225.457 242.451 219.571 248.552 207.92 248.552H83.9598C72.3085 248.552 66.5429 242.451 66.5429 231.326ZM94.8904 81.309C101.136 81.309 106.061 76.2845 106.061 70.1834C106.061 63.9626 101.136 59.0577 94.8904 59.0577C88.7644 59.0577 83.7195 64.0822 83.7195 70.1834C83.7195 76.2845 88.7644 81.309 94.8904 81.309ZM127.922 77.9594H200.473C204.797 77.9594 208.28 74.4901 208.28 70.1834C208.28 65.8767 204.797 62.4074 200.473 62.4074H127.922C123.598 62.4074 120.115 65.8767 120.115 70.1834C120.115 74.4901 123.598 77.9594 127.922 77.9594ZM94.8904 116.959C101.136 116.959 106.061 111.934 106.061 105.833C106.061 99.6125 101.136 94.8273 94.8904 94.8273C88.6443 94.8273 83.7195 99.7321 83.7195 105.833C83.7195 111.934 88.6443 116.959 94.8904 116.959ZM127.922 113.609H200.473C204.917 113.609 208.28 110.14 208.28 105.833C208.28 101.527 204.917 98.1769 200.473 98.1769H127.922C123.478 98.1769 120.115 101.527 120.115 105.833C120.115 110.14 123.478 113.609 127.922 113.609ZM94.8904 154.403C101.136 154.403 106.061 149.379 106.061 143.278C106.061 137.057 101.136 132.032 94.8904 132.032C88.7644 132.032 83.7195 137.176 83.7195 143.278C83.7195 149.259 88.7644 154.403 94.8904 154.403ZM127.922 151.054H200.473C204.797 151.054 208.28 147.465 208.28 143.278C208.28 138.971 204.917 135.502 200.473 135.502H127.922C123.478 135.502 120.115 138.971 120.115 143.278C120.115 147.465 123.598 151.054 127.922 151.054Z" fill="#474747"/>
</svg>
