<svg width="25" height="24" viewBox="0 0 25 24" fill="none" xmlns="http://www.w3.org/2000/svg">
<path d="M3.42972 23.1759H14.6686C16.927 23.1759 18.0984 21.9939 18.0984 19.7145V14.9657H16.03V19.5879C16.03 20.5693 15.5129 21.1075 14.4892 21.1075H3.59856C2.57493 21.1075 2.06838 20.5693 2.06838 19.5879V3.91669C2.06838 2.93526 2.57493 2.39706 3.59856 2.39706H14.4892C15.5129 2.39706 16.03 2.93526 16.03 3.91669V8.54944H18.0984V3.79005C18.0984 1.52116 16.927 0.328674 14.6686 0.328674H3.42972C1.17138 0.328674 0 1.52116 0 3.79005V19.7145C0 21.9939 1.17138 23.1759 3.42972 23.1759ZM10.2258 12.7179H20.8632L22.4251 12.644L21.6547 13.2983L20.0823 14.7757C19.8924 14.9445 19.7868 15.1873 19.7868 15.43C19.7868 15.9049 20.1456 16.3059 20.6311 16.3059C20.8843 16.3059 21.0743 16.2003 21.2537 16.0209L24.6729 12.4857C24.9156 12.2324 25 12.0003 25 11.747C25 11.4937 24.9156 11.2616 24.6729 11.0083L21.2537 7.46249C21.0743 7.28308 20.8843 7.18811 20.6311 7.18811C20.1456 7.18811 19.7868 7.56802 19.7868 8.05345C19.7868 8.28562 19.8924 8.53889 20.0823 8.70774L21.6547 10.1957L22.4356 10.85L20.8632 10.7656H10.2258C9.70874 10.7656 9.26551 11.2088 9.26551 11.747C9.26551 12.2852 9.70874 12.7179 10.2258 12.7179Z" fill="white"/>
</svg>
