<svg width="14" height="19" viewBox="0 0 14 19" fill="none" xmlns="http://www.w3.org/2000/svg">
<path d="M1.31094 19C1.85132 19 2.20157 18.7576 3.05218 18.0392L6.91494 14.7326C6.95497 14.6893 7.04503 14.6893 7.08506 14.7326L10.9578 18.0392C11.8084 18.7576 12.1487 19 12.6991 19C13.4996 19 14 18.5239 14 17.7449V2.63144C14 0.908884 12.9593 0 10.9878 0H3.01215C1.04074 0 0 0.908884 0 2.63144V17.7449C0 18.5239 0.500357 19 1.31094 19ZM2.26162 16.1522C2.13152 16.2647 1.97141 16.2301 1.97141 16.0656V2.74396C1.97141 2.05148 2.37169 1.7139 3.17227 1.7139H10.8277C11.6283 1.7139 12.0286 2.05148 12.0286 2.74396V16.0656C12.0286 16.2301 11.8785 16.2647 11.7384 16.1522L7.66548 12.7417C7.24517 12.3781 6.76483 12.3781 6.33452 12.7417L2.26162 16.1522Z" fill="black"/>
</svg>
