<svg width="16" height="18" viewBox="0 0 16 18" fill="none" xmlns="http://www.w3.org/2000/svg">
<path d="M7.98726 0.850334C10.5445 0.850334 12.6022 2.86266 12.6022 5.34701V6.62479C14.0375 7.0728 15.0833 8.37211 15.0833 9.924V14.0381C15.0833 15.9593 13.4905 17.517 11.5268 17.517H4.47396C2.50942 17.517 0.916626 15.9593 0.916626 14.0381V9.924C0.916626 8.37211 1.96325 7.0728 3.3977 6.62479V5.34701C3.40617 2.86266 5.46385 0.850334 7.98726 0.850334ZM7.99573 10.3372C7.58927 10.3372 7.25903 10.6602 7.25903 11.0577V12.8961C7.25903 13.3019 7.58927 13.6249 7.99573 13.6249C8.41065 13.6249 8.74089 13.3019 8.74089 12.8961V11.0577C8.74089 10.6602 8.41065 10.3372 7.99573 10.3372ZM8.00419 2.29954C6.28523 2.29954 4.88804 3.65765 4.87957 5.33044V6.44509H11.1204V5.34701C11.1204 3.66593 9.72316 2.29954 8.00419 2.29954Z" fill="#FDFDFD"/>
</svg>
