<svg width="19" height="17" viewBox="0 0 19 17" fill="none" xmlns="http://www.w3.org/2000/svg">
<path d="M10.6103 16.4933C14.8742 16.4933 18.3999 12.9676 18.3999 8.70368C18.3999 4.43973 14.8742 0.914062 10.6027 0.914062C6.64767 0.914062 3.3254 3.95759 2.8734 7.8072C3.34047 7.70173 3.96575 7.66406 4.47049 7.74693C4.9225 4.7486 7.47635 2.47349 10.6027 2.47349C14.0606 2.47349 16.8405 5.24581 16.848 8.70368C16.848 10.8357 15.7933 12.7115 14.1661 13.834L13.2244 9.6529C13.134 9.26116 12.8327 8.93722 12.4635 8.92215H12.4033L11.1452 5.24581C10.9644 4.726 10.2487 4.726 10.0679 5.24581L8.82485 8.92215H8.77211C8.44064 8.92969 8.16943 9.18583 8.0715 9.50976L7.98863 9.88644C8.35777 10.4062 8.62898 10.9939 8.76458 11.6342L9.07345 10.0371H12.1471L13.0285 14.4593C12.2827 14.7681 11.4691 14.9414 10.6103 14.9414C9.85693 14.9414 9.13372 14.8058 8.47077 14.5421C8.28244 15.0469 7.99616 15.5064 7.64209 15.8906C8.55364 16.2748 9.56313 16.4933 10.6103 16.4933ZM3.93562 16.531C6.03746 16.531 7.81536 14.7681 7.81536 12.6437C7.81536 10.5193 6.06006 8.76395 3.93562 8.76395C1.80364 8.76395 0.0483398 10.5193 0.0483398 12.6437C0.0483398 14.7757 1.80364 16.531 3.93562 16.531ZM1.47217 12.6437C1.46463 12.3348 1.67557 12.1314 1.98444 12.1314H3.41581V10.7076C3.41581 10.3987 3.61921 10.1878 3.93562 10.1878C4.24449 10.1878 4.44789 10.3987 4.44789 10.7076V12.1314H5.87926C6.18813 12.1314 6.39153 12.3348 6.39153 12.6437C6.39153 12.9601 6.18813 13.1635 5.87926 13.1635H4.44789V14.5949C4.44789 14.9037 4.24449 15.1147 3.93562 15.1147C3.61921 15.1147 3.41581 14.9037 3.41581 14.5949V13.1635H1.98444C1.68311 13.1635 1.47217 12.9601 1.47217 12.6437Z" fill="white"/>
</svg>
