<svg width="193" height="33" viewBox="0 0 193 33" fill="none" xmlns="http://www.w3.org/2000/svg">
<path d="M24.9219 0.726562C25.2344 0.726562 25.5078 0.863281 25.7422 1.13672C25.9766 1.41016 26.0938 1.7487 26.0938 2.15234C26.0938 2.69922 25.8724 3.3112 25.4297 3.98828C25 4.65234 24.375 5.34896 23.5547 6.07812C23.4115 6.80729 23.2878 7.64062 23.1836 8.57812C23.0794 9.5026 23.0273 10.5573 23.0273 11.7422C23.0273 13.5651 22.9688 15.3424 22.8516 17.0742C22.7344 18.806 22.513 20.4336 22.1875 21.957C21.862 23.4805 21.3997 24.8802 20.8008 26.1562C20.2148 27.4323 19.4401 28.5326 18.4766 29.457C17.526 30.3685 16.3672 31.0781 15 31.5859C13.6328 32.1068 12.0117 32.3672 10.1367 32.3672C8.57422 32.3672 7.18099 32.1849 5.95703 31.8203C4.73307 31.4557 3.69141 30.9544 2.83203 30.3164C1.98568 29.6654 1.33464 28.9102 0.878906 28.0508C0.436198 27.1784 0.214844 26.2344 0.214844 25.2188C0.214844 24.2031 0.429688 23.2656 0.859375 22.4062C1.28906 21.5339 1.86849 20.7786 2.59766 20.1406C3.32682 19.4896 4.17318 18.9818 5.13672 18.6172C6.11328 18.2526 7.14844 18.0703 8.24219 18.0703C8.41146 18.0703 8.58073 18.0768 8.75 18.0898C8.93229 18.0898 9.09505 18.1159 9.23828 18.168C9.38151 18.207 9.4987 18.2852 9.58984 18.4023C9.69401 18.5065 9.74609 18.6562 9.74609 18.8516C9.74609 19.0599 9.66797 19.2357 9.51172 19.3789C9.36849 19.5091 9.19922 19.5742 9.00391 19.5742C8.8737 19.5742 8.74349 19.5742 8.61328 19.5742C8.49609 19.5612 8.3724 19.5547 8.24219 19.5547C7.35677 19.5547 6.51693 19.6979 5.72266 19.9844C4.92839 20.2708 4.23177 20.668 3.63281 21.1758C3.03385 21.6836 2.55859 22.2826 2.20703 22.9727C1.85547 23.6628 1.67969 24.4115 1.67969 25.2188C1.67969 25.9349 1.8099 26.5729 2.07031 27.1328C2.33073 27.6927 2.68229 28.1875 3.125 28.6172C3.56771 29.0339 4.07552 29.3919 4.64844 29.6914C5.23438 29.9909 5.84635 30.2318 6.48438 30.4141C7.1224 30.5964 7.76693 30.7331 8.41797 30.8242C9.08203 30.9023 9.71354 30.9414 10.3125 30.9414C11.9661 30.9414 13.3919 30.707 14.5898 30.2383C15.7878 29.7695 16.7969 29.112 17.6172 28.2656C18.4505 27.4193 19.1211 26.4102 19.6289 25.2383C20.1367 24.0534 20.5339 22.7513 20.8203 21.332C21.1068 19.8997 21.2956 18.3763 21.3867 16.7617C21.4909 15.1341 21.5495 13.4544 21.5625 11.7227C21.5755 10.8893 21.6081 10.0755 21.6602 9.28125C21.7122 8.47396 21.7839 7.74479 21.875 7.09375C21.3542 7.36719 20.7812 7.63411 20.1562 7.89453C19.5312 8.15495 18.8997 8.42839 18.2617 8.71484C17.6367 8.98828 17.0247 9.28776 16.4258 9.61328C15.8268 9.92578 15.293 10.2773 14.8242 10.668C14.3685 11.0456 13.9974 11.4753 13.7109 11.957C13.4375 12.4258 13.3008 12.9531 13.3008 13.5391C13.3008 14.0729 13.3919 14.5417 13.5742 14.9453C13.7565 15.3359 13.9844 15.668 14.2578 15.9414C14.5312 16.2148 14.8307 16.4427 15.1562 16.625C15.4818 16.7943 15.7812 16.931 16.0547 17.0352C16.3411 17.1263 16.582 17.1979 16.7773 17.25C16.9857 17.2891 17.1029 17.3086 17.1289 17.3086C17.3503 17.3737 17.5 17.4648 17.5781 17.582C17.6562 17.6862 17.6953 17.8164 17.6953 17.9727C17.6953 18.194 17.6302 18.3763 17.5 18.5195C17.3698 18.6497 17.207 18.7148 17.0117 18.7148C16.9857 18.7148 16.9271 18.7148 16.8359 18.7148C16.7578 18.7018 16.7057 18.6888 16.6797 18.6758C16.25 18.5846 15.7552 18.4284 15.1953 18.207C14.6354 17.9727 14.1016 17.6536 13.5938 17.25C13.099 16.8333 12.6758 16.3125 12.3242 15.6875C11.9857 15.0625 11.8164 14.3008 11.8164 13.4023C11.8164 12.6081 12.0117 11.9049 12.4023 11.293C12.793 10.681 13.3008 10.1341 13.9258 9.65234C14.5638 9.17057 15.2669 8.74089 16.0352 8.36328C16.8164 7.98568 17.5911 7.63411 18.3594 7.30859C19.1276 6.97005 19.8503 6.64453 20.5273 6.33203C21.2044 6.01953 21.7578 5.68099 22.1875 5.31641C22.5521 3.74089 22.9753 2.58203 23.457 1.83984C23.9388 1.09766 24.4271 0.726562 24.9219 0.726562ZM32.9883 24.8477C32.793 25.7591 32.513 26.612 32.1484 27.4062C31.7839 28.1875 31.3932 28.8711 30.9766 29.457C30.5729 30.043 30.1628 30.5052 29.7461 30.8438C29.3294 31.1823 28.9714 31.3646 28.6719 31.3906C28.3333 31.3906 27.9557 31.2214 27.5391 30.8828C27.1354 30.5443 26.7448 30.0755 26.3672 29.4766C26.0026 28.8646 25.6966 28.1419 25.4492 27.3086C25.2018 26.4753 25.0781 25.5703 25.0781 24.5938C25.0781 23.7344 25.1497 23.0833 25.293 22.6406C25.4492 22.1979 25.5469 21.944 25.5859 21.8789C25.651 21.7617 25.7357 21.6706 25.8398 21.6055C25.957 21.5404 26.0872 21.5078 26.2305 21.5078C26.4518 21.5078 26.6276 21.5859 26.7578 21.7422C26.888 21.8854 26.9531 22.0482 26.9531 22.2305C26.9531 22.3607 26.9271 22.4714 26.875 22.5625C26.862 22.5885 26.8034 22.7643 26.6992 23.0898C26.5951 23.4154 26.543 23.9036 26.543 24.5547C26.543 25.3229 26.6211 26.0326 26.7773 26.6836C26.9336 27.3346 27.1224 27.8945 27.3438 28.3633C27.5651 28.832 27.793 29.2031 28.0273 29.4766C28.2747 29.737 28.4766 29.8672 28.6328 29.8672C28.737 29.8672 28.8867 29.7695 29.082 29.5742C29.2904 29.3789 29.5052 29.112 29.7266 28.7734C29.9609 28.4349 30.1953 28.0312 30.4297 27.5625C30.6771 27.0938 30.8984 26.5859 31.0938 26.0391C31.3021 25.4792 31.4648 24.8932 31.582 24.2812C31.7122 23.6562 31.7773 23.0247 31.7773 22.3867C31.7773 22.2565 31.7708 22.1328 31.7578 22.0156C31.7578 21.8854 31.7578 21.7552 31.7578 21.625C31.7578 21.4036 31.8229 21.2214 31.9531 21.0781C32.0964 20.9219 32.2786 20.8438 32.5 20.8438C32.6693 20.8438 32.819 20.8958 32.9492 21C33.0924 21.1042 33.1836 21.2474 33.2227 21.4297C33.2227 21.4167 33.2487 21.5208 33.3008 21.7422C33.3529 21.9635 33.4375 22.25 33.5547 22.6016C33.6849 22.9401 33.8411 23.3112 34.0234 23.7148C34.2188 24.1185 34.4466 24.4961 34.707 24.8477C34.9805 25.1862 35.293 25.4727 35.6445 25.707C35.9961 25.9414 36.3997 26.0586 36.8555 26.0586C37.1029 26.0586 37.3177 26.0065 37.5 25.9023C37.6823 25.7982 37.832 25.681 37.9492 25.5508C38.0664 25.4206 38.151 25.2969 38.2031 25.1797C38.2682 25.0625 38.3008 24.9974 38.3008 24.9844C38.3529 24.8411 38.4375 24.7305 38.5547 24.6523C38.6849 24.5612 38.8281 24.5156 38.9844 24.5156C39.1927 24.5156 39.3685 24.5938 39.5117 24.75C39.6549 24.8932 39.7266 25.0625 39.7266 25.2578C39.7266 25.349 39.707 25.4401 39.668 25.5312C39.5898 25.7135 39.4727 25.9219 39.3164 26.1562C39.1732 26.3906 38.9844 26.612 38.75 26.8203C38.5156 27.0286 38.2357 27.2044 37.9102 27.3477C37.5977 27.4779 37.2461 27.543 36.8555 27.543C36.3997 27.543 35.9766 27.4648 35.5859 27.3086C35.1953 27.1393 34.8372 26.931 34.5117 26.6836C34.1992 26.4232 33.9128 26.1367 33.6523 25.8242C33.3919 25.4987 33.1706 25.1732 32.9883 24.8477ZM53.418 25.5508C53.3659 25.6549 53.2552 25.8763 53.0859 26.2148C52.9297 26.5404 52.7214 26.918 52.4609 27.3477C52.2135 27.7773 51.9206 28.2266 51.582 28.6953C51.2435 29.1641 50.8659 29.5938 50.4492 29.9844C50.0326 30.375 49.5833 30.7005 49.1016 30.9609C48.6198 31.2083 48.112 31.332 47.5781 31.332C46.8229 31.332 46.1849 31.0911 45.6641 30.6094C45.1562 30.1276 44.7852 29.5221 44.5508 28.793C44.1081 29.5352 43.5807 30.1276 42.9688 30.5703C42.3568 31 41.7448 31.2148 41.1328 31.2148C40.651 31.2148 40.2148 31.1302 39.8242 30.9609C39.4336 30.7786 39.1016 30.5312 38.8281 30.2188C38.5547 29.8932 38.3398 29.5156 38.1836 29.0859C38.0404 28.6562 37.9688 28.1875 37.9688 27.6797C37.9688 26.6641 38.138 25.7721 38.4766 25.0039C38.8281 24.2227 39.2708 23.5716 39.8047 23.0508C40.3385 22.5299 40.9245 22.1393 41.5625 21.8789C42.2135 21.6185 42.8385 21.4883 43.4375 21.4883C43.8411 21.4883 44.2122 21.5469 44.5508 21.6641C44.8893 21.7682 45.1758 21.8854 45.4102 22.0156C45.6576 22.1458 45.8464 22.2695 45.9766 22.3867C46.1068 22.4909 46.1784 22.5495 46.1914 22.5625C46.3346 22.7318 46.4062 22.9076 46.4062 23.0898C46.4062 23.2852 46.3346 23.4609 46.1914 23.6172C46.0482 23.7604 45.8789 23.832 45.6836 23.832C45.4753 23.832 45.2995 23.7604 45.1562 23.6172C45.1302 23.5911 45.0716 23.5456 44.9805 23.4805C44.8893 23.4023 44.7656 23.3242 44.6094 23.2461C44.4531 23.168 44.2643 23.1029 44.043 23.0508C43.8346 22.9857 43.5938 22.9531 43.3203 22.9531C42.9167 22.9531 42.487 23.0443 42.0312 23.2266C41.5755 23.4089 41.1589 23.6953 40.7812 24.0859C40.4036 24.4635 40.0846 24.9453 39.8242 25.5312C39.5768 26.1042 39.4531 26.7878 39.4531 27.582C39.4531 27.8294 39.4792 28.0833 39.5312 28.3438C39.5833 28.5911 39.6745 28.819 39.8047 29.0273C39.9349 29.2357 40.1107 29.4049 40.332 29.5352C40.5534 29.6654 40.8268 29.7305 41.1523 29.7305C41.3867 29.7305 41.6536 29.6523 41.9531 29.4961C42.2656 29.3398 42.5586 29.099 42.832 28.7734C43.1185 28.4479 43.3724 28.0378 43.5938 27.543C43.8281 27.0482 43.9909 26.4622 44.082 25.7852C44.1081 25.6029 44.1927 25.4531 44.3359 25.3359C44.4792 25.2057 44.6484 25.1406 44.8438 25.1406C45.026 25.1406 45.1823 25.2122 45.3125 25.3555C45.4557 25.4987 45.5339 25.6615 45.5469 25.8438C45.5599 26.0911 45.5859 26.4427 45.625 26.8984C45.6641 27.3411 45.7487 27.7839 45.8789 28.2266C46.0221 28.6693 46.2305 29.0534 46.5039 29.3789C46.7773 29.7044 47.1549 29.8672 47.6367 29.8672C47.9492 29.8672 48.2552 29.7826 48.5547 29.6133C48.8672 29.444 49.1667 29.2227 49.4531 28.9492C49.7526 28.6628 50.0326 28.3438 50.293 27.9922C50.5664 27.6276 50.8138 27.263 51.0352 26.8984C51.2565 26.5339 51.4518 26.1823 51.6211 25.8438C51.7904 25.5052 51.9336 25.2122 52.0508 24.9648C52.1159 24.8216 52.207 24.7109 52.3242 24.6328C52.4544 24.5547 52.5911 24.5156 52.7344 24.5156C52.9557 24.5156 53.1315 24.6003 53.2617 24.7695C53.4049 24.9258 53.4766 25.0951 53.4766 25.2773C53.4766 25.3685 53.457 25.4596 53.418 25.5508ZM56.4062 29.2422C56.6146 28.8125 56.8555 28.3438 57.1289 27.8359C57.4023 27.3151 57.6953 26.7943 58.0078 26.2734C58.3203 25.7396 58.6458 25.2122 58.9844 24.6914C59.3359 24.1706 59.7005 23.6758 60.0781 23.207C60.4557 22.7513 60.8333 22.4258 61.2109 22.2305C61.6016 22.0221 61.9661 21.918 62.3047 21.918C62.9818 21.918 63.4831 22.1654 63.8086 22.6602C64.1341 23.1549 64.2969 23.7669 64.2969 24.4961C64.2969 24.6654 64.2839 24.8737 64.2578 25.1211C64.2448 25.3555 64.2253 25.6094 64.1992 25.8828C64.1862 26.1562 64.1667 26.4362 64.1406 26.7227C64.1276 26.9961 64.1211 27.2565 64.1211 27.5039C64.1211 27.8164 64.1341 28.1159 64.1602 28.4023C64.1992 28.6888 64.2643 28.9427 64.3555 29.1641C64.4466 29.3724 64.5768 29.5417 64.7461 29.6719C64.9154 29.7891 65.1367 29.8477 65.4102 29.8477C65.9049 29.8477 66.3867 29.6589 66.8555 29.2812C67.3242 28.8906 67.7539 28.4349 68.1445 27.9141C68.5482 27.3802 68.8932 26.8398 69.1797 26.293C69.4792 25.7461 69.7005 25.3034 69.8438 24.9648C69.9089 24.8216 70 24.7109 70.1172 24.6328C70.2474 24.5547 70.3841 24.5156 70.5273 24.5156C70.7487 24.5156 70.9245 24.6003 71.0547 24.7695C71.1979 24.9258 71.2695 25.0951 71.2695 25.2773C71.2695 25.3685 71.25 25.4596 71.2109 25.5508C71.1589 25.6549 71.0547 25.8698 70.8984 26.1953C70.7422 26.5208 70.5339 26.8984 70.2734 27.3281C70.026 27.7448 69.7331 28.194 69.3945 28.6758C69.056 29.1445 68.6784 29.5742 68.2617 29.9648C67.8581 30.3555 67.4154 30.681 66.9336 30.9414C66.4648 31.2018 65.9701 31.332 65.4492 31.332C64.8633 31.332 64.388 31.2214 64.0234 31C63.6589 30.7656 63.3724 30.4661 63.1641 30.1016C62.9557 29.724 62.8125 29.3138 62.7344 28.8711C62.6693 28.4154 62.6367 27.9596 62.6367 27.5039C62.6367 27.3086 62.6432 27.0872 62.6562 26.8398C62.6823 26.5924 62.7083 26.332 62.7344 26.0586C62.7734 25.7852 62.7995 25.5117 62.8125 25.2383C62.8385 24.9648 62.8516 24.7044 62.8516 24.457C62.8516 24.0404 62.7865 23.7604 62.6562 23.6172C62.526 23.4609 62.4089 23.3828 62.3047 23.3828C62.0964 23.3828 61.8555 23.5065 61.582 23.7539C61.3216 23.9883 61.0417 24.3008 60.7422 24.6914C60.4557 25.082 60.1562 25.5247 59.8438 26.0195C59.5443 26.5013 59.2578 26.9831 58.9844 27.4648C58.724 27.9466 58.4766 28.4089 58.2422 28.8516C58.0208 29.2812 57.8451 29.6393 57.7148 29.9258C57.4544 30.4727 57.194 30.8372 56.9336 31.0195C56.6732 31.2148 56.4062 31.3125 56.1328 31.3125C55.7552 31.3125 55.4492 31.2018 55.2148 30.9805C54.9935 30.7461 54.8828 30.4206 54.8828 30.0039C54.8828 29.9128 54.8958 29.737 54.9219 29.4766C54.9479 29.2031 54.9805 28.8841 55.0195 28.5195C55.0586 28.1419 55.0977 27.7383 55.1367 27.3086C55.1758 26.8789 55.2148 26.4557 55.2539 26.0391C55.293 25.6094 55.3255 25.2122 55.3516 24.8477C55.3776 24.4831 55.3906 24.1771 55.3906 23.9297C55.3906 23.6042 55.3776 23.2917 55.3516 22.9922C55.3255 22.6927 55.2734 22.5104 55.1953 22.4453C55.0781 22.4844 54.8698 22.7318 54.5703 23.1875C54.2708 23.6302 53.8867 24.418 53.418 25.5508C53.3529 25.694 53.2552 25.8047 53.125 25.8828C52.9948 25.9609 52.8581 26 52.7148 26C52.4935 26 52.3177 25.9284 52.1875 25.7852C52.0573 25.6289 51.9922 25.4531 51.9922 25.2578C51.9922 25.1667 52.0117 25.069 52.0508 24.9648C52.6367 23.5716 53.1836 22.5495 53.6914 21.8984C54.2122 21.2344 54.7266 20.9023 55.2344 20.9023C55.5339 20.9023 55.7878 20.9805 55.9961 21.1367C56.2044 21.2799 56.3672 21.4753 56.4844 21.7227C56.6146 21.9701 56.7057 22.2435 56.7578 22.543C56.8229 22.8424 56.8555 23.1484 56.8555 23.4609C56.8555 23.6953 56.8359 24.0599 56.7969 24.5547C56.7708 25.0495 56.7318 25.5833 56.6797 26.1562C56.6276 26.7161 56.5755 27.276 56.5234 27.8359C56.4844 28.3958 56.4453 28.8646 56.4062 29.2422ZM114.609 17.4258C115.729 17.7383 116.68 18.0964 117.461 18.5C118.255 18.9036 118.919 19.3268 119.453 19.7695C120 20.1992 120.43 20.6419 120.742 21.0977C121.055 21.5534 121.296 21.9896 121.465 22.4062C121.634 22.8229 121.738 23.2135 121.777 23.5781C121.829 23.9297 121.855 24.2292 121.855 24.4766C121.855 25.388 121.68 26.2018 121.328 26.918C120.99 27.6341 120.527 28.2656 119.941 28.8125C119.355 29.3594 118.672 29.8216 117.891 30.1992C117.122 30.5768 116.315 30.8828 115.469 31.1172C114.622 31.3646 113.757 31.5404 112.871 31.6445C111.986 31.7617 111.146 31.8203 110.352 31.8203C109.062 31.8203 107.728 31.6901 106.348 31.4297C104.98 31.1693 103.594 30.7461 102.188 30.1602C101.875 30.0299 101.719 29.8021 101.719 29.4766C101.719 29.2552 101.797 29.0794 101.953 28.9492C102.109 28.806 102.279 28.7344 102.461 28.7344C102.552 28.7344 102.65 28.7539 102.754 28.793C103.965 29.3008 105.208 29.6849 106.484 29.9453C107.76 30.2057 109.043 30.3359 110.332 30.3359C112.09 30.3359 113.6 30.1667 114.863 29.8281C116.126 29.4896 117.161 29.0469 117.969 28.5C118.789 27.9401 119.395 27.3151 119.785 26.625C120.176 25.9219 120.371 25.2122 120.371 24.4961C120.371 23.7018 120.15 22.9661 119.707 22.2891C119.277 21.612 118.659 21.0065 117.852 20.4727C117.057 19.9388 116.1 19.4831 114.98 19.1055C113.861 18.7279 112.617 18.4479 111.25 18.2656C110.352 18.4219 109.479 18.5326 108.633 18.5977C107.786 18.6628 107.005 18.6953 106.289 18.6953H105.84C105.749 18.6953 105.664 18.6888 105.586 18.6758C104.648 20.9284 103.529 22.875 102.227 24.5156C100.938 26.1562 99.5573 27.5169 98.0859 28.5977C96.6276 29.6654 95.1237 30.4596 93.5742 30.9805C92.0378 31.4883 90.5599 31.7422 89.1406 31.7422C87.6693 31.7422 86.3151 31.5339 85.0781 31.1172C83.8542 30.7135 82.7995 30.1341 81.9141 29.3789C81.0286 28.6237 80.3385 27.7122 79.8438 26.6445C79.349 25.5638 79.1016 24.3594 79.1016 23.0312C79.1016 21.651 79.3685 20.2253 79.9023 18.7539C80.4492 17.2695 81.2565 15.7656 82.3242 14.2422C83.3398 12.8099 84.4661 11.5273 85.7031 10.3945C86.9401 9.2487 88.2357 8.24609 89.5898 7.38672C90.957 6.52734 92.3633 5.79167 93.8086 5.17969C95.2539 4.56771 96.6862 4.06641 98.1055 3.67578C99.5378 3.28516 100.931 3.00521 102.285 2.83594C103.652 2.65365 104.935 2.5625 106.133 2.5625C107.109 2.5625 108.04 2.59505 108.926 2.66016C109.811 2.72526 110.658 2.82292 111.465 2.95312C111.934 2.43229 112.311 2.0612 112.598 1.83984C112.884 1.60547 113.047 1.47526 113.086 1.44922C113.242 1.37109 113.379 1.33203 113.496 1.33203C113.678 1.33203 113.841 1.38411 113.984 1.48828C114.128 1.59245 114.199 1.74219 114.199 1.9375C114.199 2.19792 114.108 2.41927 113.926 2.60156C113.743 2.77083 113.496 3.00521 113.184 3.30469C115.566 3.89062 117.389 4.77604 118.652 5.96094C119.915 7.13281 120.547 8.58464 120.547 10.3164C120.547 11.2669 120.391 12.1198 120.078 12.875C119.766 13.6302 119.336 14.2943 118.789 14.8672C118.255 15.4401 117.624 15.9414 116.895 16.3711C116.178 16.7878 115.417 17.1393 114.609 17.4258ZM111.27 16.7812C111.842 16.6771 112.428 16.5404 113.027 16.3711C113.639 16.2018 114.232 16 114.805 15.7656C115.391 15.5182 115.944 15.2318 116.465 14.9062C116.986 14.5677 117.435 14.1771 117.812 13.7344C118.203 13.2786 118.509 12.7708 118.73 12.2109C118.965 11.651 119.082 11.013 119.082 10.2969C119.082 8.83854 118.477 7.63411 117.266 6.68359C116.055 5.73307 114.316 5.02995 112.051 4.57422C111.4 5.38151 110.788 6.27344 110.215 7.25C109.642 8.22656 109.115 9.24219 108.633 10.2969C108.151 11.3385 107.715 12.3997 107.324 13.4805C106.947 14.5482 106.634 15.5833 106.387 16.5859C106.647 16.5729 106.888 16.5664 107.109 16.5664C107.331 16.5664 107.52 16.5664 107.676 16.5664C108.184 16.5664 108.737 16.5859 109.336 16.625C109.935 16.651 110.579 16.7031 111.27 16.7812ZM110.391 4.30078C109.727 4.20964 109.043 4.14453 108.34 4.10547C107.637 4.06641 106.901 4.04688 106.133 4.04688C104.987 4.04688 103.77 4.13151 102.48 4.30078C101.191 4.47005 99.8698 4.73698 98.5156 5.10156C97.1615 5.46615 95.7943 5.94141 94.4141 6.52734C93.0469 7.10026 91.7122 7.79688 90.4102 8.61719C89.1211 9.42448 87.8906 10.3685 86.7188 11.4492C85.5469 12.5299 84.4792 13.7474 83.5156 15.1016C82.5391 16.4818 81.8034 17.8424 81.3086 19.1836C80.8138 20.5247 80.5664 21.8008 80.5664 23.0117C80.5664 24.1445 80.7682 25.1602 81.1719 26.0586C81.5885 26.957 82.1745 27.7188 82.9297 28.3438C83.6849 28.9557 84.5898 29.431 85.6445 29.7695C86.6992 30.0951 87.8646 30.2578 89.1406 30.2578C90.4167 30.2578 91.7448 30.0299 93.125 29.5742C94.5052 29.1055 95.8529 28.3958 97.168 27.4453C98.4831 26.4818 99.7331 25.2708 100.918 23.8125C102.103 22.3411 103.138 20.5964 104.023 18.5781C103.789 18.5781 103.548 18.513 103.301 18.3828C103.053 18.2396 102.93 18.0182 102.93 17.7188C102.93 17.4062 103.079 17.1849 103.379 17.0547C103.678 16.9115 104.147 16.7943 104.785 16.7031C105.137 15.6354 105.495 14.5677 105.859 13.5C106.224 12.4323 106.628 11.3776 107.07 10.3359C107.513 9.29427 108.001 8.27214 108.535 7.26953C109.069 6.25391 109.688 5.26432 110.391 4.30078ZM133.77 28.8516C133.444 28.8516 133.158 28.8255 132.91 28.7734C132.715 29.1641 132.48 29.5286 132.207 29.8672C131.934 30.1927 131.615 30.4792 131.25 30.7266C130.898 30.974 130.501 31.1693 130.059 31.3125C129.616 31.4557 129.134 31.5273 128.613 31.5273C128.001 31.5273 127.441 31.4167 126.934 31.1953C126.426 30.987 125.983 30.694 125.605 30.3164C125.228 29.9258 124.935 29.4635 124.727 28.9297C124.518 28.3828 124.414 27.7839 124.414 27.1328C124.414 26.2995 124.564 25.5768 124.863 24.9648C125.163 24.3398 125.508 23.8255 125.898 23.4219C126.289 23.0052 126.68 22.6992 127.07 22.5039C127.461 22.2956 127.754 22.1914 127.949 22.1914C128.171 22.1914 128.333 22.25 128.438 22.3672C128.555 22.4844 128.613 22.6406 128.613 22.8359C128.613 23.0573 128.542 23.2266 128.398 23.3438C128.268 23.4479 128.099 23.5521 127.891 23.6562C127.682 23.7604 127.461 23.9102 127.227 24.1055C126.992 24.2878 126.771 24.5221 126.562 24.8086C126.367 25.0951 126.204 25.4336 126.074 25.8242C125.944 26.2148 125.879 26.651 125.879 27.1328C125.879 27.5625 125.944 27.9661 126.074 28.3438C126.204 28.7083 126.393 29.0273 126.641 29.3008C126.888 29.5612 127.181 29.7695 127.52 29.9258C127.858 30.069 128.236 30.1406 128.652 30.1406C129.395 30.1406 130.007 29.9714 130.488 29.6328C130.983 29.2812 131.361 28.8385 131.621 28.3047C130.853 27.901 130.221 27.3281 129.727 26.5859C129.232 25.8438 128.984 25.0104 128.984 24.0859C128.984 23.3438 129.16 22.7383 129.512 22.2695C129.876 21.8008 130.352 21.5664 130.938 21.5664C131.289 21.5664 131.621 21.651 131.934 21.8203C132.246 21.9896 132.52 22.2565 132.754 22.6211C133.001 22.9857 133.197 23.4544 133.34 24.0273C133.483 24.6003 133.555 25.2839 133.555 26.0781C133.555 26.4948 133.503 26.931 133.398 27.3867C133.477 27.3997 133.555 27.4062 133.633 27.4062C133.711 27.4062 133.796 27.4062 133.887 27.4062C134.329 27.4062 134.727 27.3542 135.078 27.25C135.43 27.1458 135.749 26.9896 136.035 26.7812C136.322 26.5729 136.576 26.306 136.797 25.9805C137.031 25.6549 137.253 25.2773 137.461 24.8477C137.5 24.7695 137.585 24.6979 137.715 24.6328C137.845 24.5547 137.975 24.5156 138.105 24.5156C138.275 24.5156 138.431 24.5872 138.574 24.7305C138.73 24.8607 138.809 25.0365 138.809 25.2578C138.809 25.362 138.783 25.4792 138.73 25.6094C138.678 25.7266 138.626 25.8372 138.574 25.9414C138.353 26.332 138.092 26.7096 137.793 27.0742C137.507 27.4258 137.161 27.7383 136.758 28.0117C136.367 28.2721 135.924 28.4805 135.43 28.6367C134.935 28.793 134.382 28.8646 133.77 28.8516ZM130.43 23.9297C130.43 24.1771 130.462 24.4375 130.527 24.7109C130.592 24.9844 130.69 25.2578 130.82 25.5312C130.964 25.7917 131.133 26.0456 131.328 26.293C131.536 26.5273 131.777 26.7292 132.051 26.8984C132.09 26.625 132.109 26.3581 132.109 26.0977C132.109 25.7461 132.083 25.388 132.031 25.0234C131.979 24.6589 131.901 24.3268 131.797 24.0273C131.706 23.7148 131.589 23.4674 131.445 23.2852C131.302 23.0898 131.133 22.9922 130.938 22.9922C130.859 22.9922 130.755 23.0508 130.625 23.168C130.495 23.2852 130.43 23.5391 130.43 23.9297ZM153.887 25.5898C153.848 25.668 153.763 25.8307 153.633 26.0781C153.503 26.3125 153.333 26.5924 153.125 26.918C152.917 27.2305 152.669 27.569 152.383 27.9336C152.096 28.2852 151.784 28.6107 151.445 28.9102C151.107 29.2096 150.742 29.457 150.352 29.6523C149.961 29.8477 149.557 29.9453 149.141 29.9453C148.464 29.9453 147.891 29.8281 147.422 29.5938C146.953 29.3464 146.569 29.0729 146.27 28.7734C146.061 29.2292 145.807 29.6458 145.508 30.0234C145.208 30.401 144.876 30.7266 144.512 31C144.147 31.2865 143.757 31.5078 143.34 31.6641C142.936 31.8203 142.52 31.8984 142.09 31.8984C141.296 31.8984 140.618 31.6641 140.059 31.1953C139.499 30.7266 139.03 30.1016 138.652 29.3203C138.288 28.526 138.001 27.6081 137.793 26.5664C137.585 25.5247 137.422 24.431 137.305 23.2852C137.201 22.1393 137.135 20.9805 137.109 19.8086C137.083 18.6367 137.07 17.5234 137.07 16.4688C137.07 14.4505 137.129 12.7057 137.246 11.2344C137.363 9.75 137.52 8.49349 137.715 7.46484C137.923 6.42318 138.158 5.58333 138.418 4.94531C138.691 4.29427 138.978 3.79297 139.277 3.44141C139.577 3.07682 139.883 2.82943 140.195 2.69922C140.508 2.56901 140.814 2.50391 141.113 2.50391C141.595 2.50391 142.018 2.64714 142.383 2.93359C142.76 3.22005 143.073 3.6237 143.32 4.14453C143.581 4.65234 143.776 5.27083 143.906 6C144.036 6.72917 144.102 7.52995 144.102 8.40234C144.102 9.79557 143.952 11.2344 143.652 12.7188C143.353 14.2031 142.962 15.6875 142.48 17.1719C142.012 18.6432 141.484 20.0951 140.898 21.5273C140.312 22.9466 139.733 24.2943 139.16 25.5703C139.238 26.2083 139.355 26.8203 139.512 27.4062C139.668 27.9792 139.87 28.4935 140.117 28.9492C140.365 29.3919 140.658 29.75 140.996 30.0234C141.335 30.2839 141.725 30.4141 142.168 30.4141C142.611 30.4141 143.027 30.2904 143.418 30.043C143.809 29.7826 144.147 29.4505 144.434 29.0469C144.72 28.6302 144.941 28.1615 145.098 27.6406C145.267 27.1198 145.352 26.5859 145.352 26.0391C145.352 25.6745 145.312 25.3099 145.234 24.9453C145.169 24.5677 145.059 24.2357 144.902 23.9492C144.759 23.6497 144.577 23.4089 144.355 23.2266C144.134 23.0443 143.867 22.9531 143.555 22.9531C143.32 22.9531 143.138 23.0052 143.008 23.1094C142.878 23.2005 142.78 23.3112 142.715 23.4414C142.65 23.5586 142.611 23.6758 142.598 23.793C142.585 23.9102 142.578 23.9883 142.578 24.0273C142.578 24.2096 142.617 24.3919 142.695 24.5742C142.773 24.7565 142.923 24.9193 143.145 25.0625C143.366 25.2188 143.477 25.4336 143.477 25.707C143.477 25.9284 143.398 26.1042 143.242 26.2344C143.099 26.3646 142.936 26.4297 142.754 26.4297C142.493 26.4297 142.259 26.3516 142.051 26.1953C141.855 26.0391 141.686 25.8438 141.543 25.6094C141.4 25.362 141.289 25.1016 141.211 24.8281C141.133 24.5547 141.094 24.3008 141.094 24.0664C141.094 23.6888 141.159 23.3438 141.289 23.0312C141.419 22.7057 141.595 22.4323 141.816 22.2109C142.051 21.9766 142.311 21.8008 142.598 21.6836C142.897 21.5534 143.21 21.4883 143.535 21.4883C144.095 21.4883 144.577 21.6185 144.98 21.8789C145.397 22.1393 145.742 22.4844 146.016 22.9141C146.289 23.3438 146.491 23.832 146.621 24.3789C146.751 24.9258 146.816 25.4792 146.816 26.0391C146.816 26.3646 146.797 26.6836 146.758 26.9961C146.81 27.1003 146.895 27.237 147.012 27.4062C147.129 27.5755 147.285 27.7383 147.48 27.8945C147.676 28.0508 147.91 28.1875 148.184 28.3047C148.457 28.4219 148.776 28.4805 149.141 28.4805C149.453 28.4805 149.772 28.3633 150.098 28.1289C150.436 27.8815 150.755 27.582 151.055 27.2305C151.367 26.8659 151.654 26.4818 151.914 26.0781C152.174 25.6615 152.389 25.2773 152.559 24.9258C152.624 24.7956 152.715 24.6979 152.832 24.6328C152.949 24.5547 153.079 24.5156 153.223 24.5156C153.444 24.5156 153.62 24.5938 153.75 24.75C153.893 24.9062 153.965 25.082 153.965 25.2773C153.965 25.3555 153.939 25.4596 153.887 25.5898ZM138.789 23.0703C139.232 21.9766 139.681 20.8307 140.137 19.6328C140.592 18.4219 141.003 17.1914 141.367 15.9414C141.732 14.6914 142.031 13.4284 142.266 12.1523C142.5 10.8763 142.617 9.61979 142.617 8.38281C142.617 7.91406 142.591 7.42578 142.539 6.91797C142.5 6.39714 142.422 5.92188 142.305 5.49219C142.188 5.0625 142.025 4.70443 141.816 4.41797C141.621 4.13151 141.367 3.98828 141.055 3.98828C140.951 3.98828 140.814 4.0599 140.645 4.20312C140.488 4.33333 140.319 4.57422 140.137 4.92578C139.954 5.26432 139.772 5.73958 139.59 6.35156C139.408 6.96354 139.238 7.74479 139.082 8.69531C138.939 9.63281 138.815 10.7656 138.711 12.0938C138.62 13.4219 138.574 14.9844 138.574 16.7812C138.574 17.3802 138.581 17.9922 138.594 18.6172C138.607 19.2292 138.62 19.8151 138.633 20.375C138.659 20.9349 138.685 21.4492 138.711 21.918C138.737 22.3867 138.763 22.7708 138.789 23.0703ZM154.629 22.9727C154.577 23.3242 154.512 23.6562 154.434 23.9688C154.355 24.2682 154.277 24.5352 154.199 24.7695C154.134 24.9909 154.076 25.1732 154.023 25.3164C153.971 25.4596 153.939 25.5378 153.926 25.5508C153.796 25.8503 153.568 26 153.242 26C153.06 26 152.891 25.9349 152.734 25.8047C152.578 25.6615 152.5 25.4857 152.5 25.2773C152.5 25.1992 152.513 25.1406 152.539 25.1016C152.565 25.0625 152.604 24.9844 152.656 24.8672C152.708 24.75 152.773 24.5547 152.852 24.2812C152.93 24.0078 153.027 23.5846 153.145 23.0117C152.923 23.0117 152.695 23.0052 152.461 22.9922C152.227 22.9792 152.012 22.9336 151.816 22.8555C151.608 22.7773 151.439 22.6536 151.309 22.4844C151.178 22.3151 151.113 22.0807 151.113 21.7812C151.113 21.5599 151.178 21.2604 151.309 20.8828C151.426 20.5052 151.589 20.1341 151.797 19.7695C152.005 19.4049 152.24 19.0924 152.5 18.832C152.76 18.5586 153.021 18.4219 153.281 18.4219C153.581 18.4219 153.822 18.5326 154.004 18.7539C154.199 18.9753 154.349 19.2487 154.453 19.5742C154.557 19.8867 154.629 20.2188 154.668 20.5703C154.72 20.9219 154.746 21.2279 154.746 21.4883C154.967 21.4883 155.182 21.4883 155.391 21.4883C155.612 21.4753 155.82 21.4688 156.016 21.4688C156.758 21.4688 157.324 21.6315 157.715 21.957C158.105 22.2826 158.301 22.8164 158.301 23.5586C158.301 23.8581 158.281 24.1706 158.242 24.4961C158.203 24.8216 158.158 25.1602 158.105 25.5117C158.053 25.8503 158.008 26.1888 157.969 26.5273C157.93 26.8659 157.91 27.1979 157.91 27.5234C157.91 27.9922 157.975 28.3828 158.105 28.6953C158.236 28.9948 158.398 29.2357 158.594 29.418C158.789 29.6003 158.997 29.7305 159.219 29.8086C159.44 29.8737 159.642 29.9062 159.824 29.9062C160.384 29.9062 160.911 29.724 161.406 29.3594C161.901 28.9948 162.357 28.5586 162.773 28.0508C163.19 27.5299 163.561 26.9831 163.887 26.4102C164.225 25.8372 164.505 25.3359 164.727 24.9062C164.792 24.7891 164.883 24.6979 165 24.6328C165.117 24.5677 165.241 24.5352 165.371 24.5352C165.605 24.5352 165.788 24.6133 165.918 24.7695C166.048 24.9128 166.113 25.0755 166.113 25.2578C166.113 25.388 166.087 25.5052 166.035 25.6094C165.736 26.1432 165.384 26.7487 164.98 27.4258C164.59 28.0898 164.141 28.7148 163.633 29.3008C163.125 29.8867 162.552 30.3815 161.914 30.7852C161.289 31.1888 160.599 31.3906 159.844 31.3906C159.375 31.3906 158.932 31.2995 158.516 31.1172C158.099 30.9479 157.734 30.7005 157.422 30.375C157.122 30.0365 156.882 29.6263 156.699 29.1445C156.517 28.6497 156.426 28.0964 156.426 27.4844C156.426 26.8333 156.491 26.1888 156.621 25.5508C156.751 24.8997 156.816 24.2812 156.816 23.6953C156.816 23.4479 156.758 23.2656 156.641 23.1484C156.536 23.0182 156.296 22.9531 155.918 22.9531C155.736 22.9531 155.534 22.9531 155.312 22.9531C155.104 22.9531 154.876 22.9596 154.629 22.9727ZM153.32 21.5273C153.32 21.4362 153.314 21.319 153.301 21.1758C153.301 21.0195 153.288 20.8698 153.262 20.7266C153.249 20.5833 153.223 20.4596 153.184 20.3555C153.158 20.2513 153.125 20.1992 153.086 20.1992C153.047 20.1992 152.995 20.2513 152.93 20.3555C152.878 20.4466 152.819 20.5638 152.754 20.707C152.689 20.8372 152.63 20.9805 152.578 21.1367C152.526 21.293 152.487 21.4232 152.461 21.5273H153.32ZM173.73 28.8516C173.405 28.8516 173.118 28.8255 172.871 28.7734C172.676 29.1641 172.441 29.5286 172.168 29.8672C171.895 30.1927 171.576 30.4792 171.211 30.7266C170.859 30.974 170.462 31.1693 170.02 31.3125C169.577 31.4557 169.095 31.5273 168.574 31.5273C167.962 31.5273 167.402 31.4167 166.895 31.1953C166.387 30.987 165.944 30.694 165.566 30.3164C165.189 29.9258 164.896 29.4635 164.688 28.9297C164.479 28.3828 164.375 27.7839 164.375 27.1328C164.375 26.2995 164.525 25.5768 164.824 24.9648C165.124 24.3398 165.469 23.8255 165.859 23.4219C166.25 23.0052 166.641 22.6992 167.031 22.5039C167.422 22.2956 167.715 22.1914 167.91 22.1914C168.132 22.1914 168.294 22.25 168.398 22.3672C168.516 22.4844 168.574 22.6406 168.574 22.8359C168.574 23.0573 168.503 23.2266 168.359 23.3438C168.229 23.4479 168.06 23.5521 167.852 23.6562C167.643 23.7604 167.422 23.9102 167.188 24.1055C166.953 24.2878 166.732 24.5221 166.523 24.8086C166.328 25.0951 166.165 25.4336 166.035 25.8242C165.905 26.2148 165.84 26.651 165.84 27.1328C165.84 27.5625 165.905 27.9661 166.035 28.3438C166.165 28.7083 166.354 29.0273 166.602 29.3008C166.849 29.5612 167.142 29.7695 167.48 29.9258C167.819 30.069 168.197 30.1406 168.613 30.1406C169.355 30.1406 169.967 29.9714 170.449 29.6328C170.944 29.2812 171.322 28.8385 171.582 28.3047C170.814 27.901 170.182 27.3281 169.688 26.5859C169.193 25.8438 168.945 25.0104 168.945 24.0859C168.945 23.3438 169.121 22.7383 169.473 22.2695C169.837 21.8008 170.312 21.5664 170.898 21.5664C171.25 21.5664 171.582 21.651 171.895 21.8203C172.207 21.9896 172.48 22.2565 172.715 22.6211C172.962 22.9857 173.158 23.4544 173.301 24.0273C173.444 24.6003 173.516 25.2839 173.516 26.0781C173.516 26.4948 173.464 26.931 173.359 27.3867C173.438 27.3997 173.516 27.4062 173.594 27.4062C173.672 27.4062 173.757 27.4062 173.848 27.4062C174.29 27.4062 174.688 27.3542 175.039 27.25C175.391 27.1458 175.71 26.9896 175.996 26.7812C176.283 26.5729 176.536 26.306 176.758 25.9805C176.992 25.6549 177.214 25.2773 177.422 24.8477C177.461 24.7695 177.546 24.6979 177.676 24.6328C177.806 24.5547 177.936 24.5156 178.066 24.5156C178.236 24.5156 178.392 24.5872 178.535 24.7305C178.691 24.8607 178.77 25.0365 178.77 25.2578C178.77 25.362 178.743 25.4792 178.691 25.6094C178.639 25.7266 178.587 25.8372 178.535 25.9414C178.314 26.332 178.053 26.7096 177.754 27.0742C177.467 27.4258 177.122 27.7383 176.719 28.0117C176.328 28.2721 175.885 28.4805 175.391 28.6367C174.896 28.793 174.342 28.8646 173.73 28.8516ZM170.391 23.9297C170.391 24.1771 170.423 24.4375 170.488 24.7109C170.553 24.9844 170.651 25.2578 170.781 25.5312C170.924 25.7917 171.094 26.0456 171.289 26.293C171.497 26.5273 171.738 26.7292 172.012 26.8984C172.051 26.625 172.07 26.3581 172.07 26.0977C172.07 25.7461 172.044 25.388 171.992 25.0234C171.94 24.6589 171.862 24.3268 171.758 24.0273C171.667 23.7148 171.549 23.4674 171.406 23.2852C171.263 23.0898 171.094 22.9922 170.898 22.9922C170.82 22.9922 170.716 23.0508 170.586 23.168C170.456 23.2852 170.391 23.5391 170.391 23.9297ZM185.293 24.8477C185.098 25.7591 184.818 26.612 184.453 27.4062C184.089 28.1875 183.698 28.8711 183.281 29.457C182.878 30.043 182.467 30.5052 182.051 30.8438C181.634 31.1823 181.276 31.3646 180.977 31.3906C180.638 31.3906 180.26 31.2214 179.844 30.8828C179.44 30.5443 179.049 30.0755 178.672 29.4766C178.307 28.8646 178.001 28.1419 177.754 27.3086C177.507 26.4753 177.383 25.5703 177.383 24.5938C177.383 23.7344 177.454 23.0833 177.598 22.6406C177.754 22.1979 177.852 21.944 177.891 21.8789C177.956 21.7617 178.04 21.6706 178.145 21.6055C178.262 21.5404 178.392 21.5078 178.535 21.5078C178.757 21.5078 178.932 21.5859 179.062 21.7422C179.193 21.8854 179.258 22.0482 179.258 22.2305C179.258 22.3607 179.232 22.4714 179.18 22.5625C179.167 22.5885 179.108 22.7643 179.004 23.0898C178.9 23.4154 178.848 23.9036 178.848 24.5547C178.848 25.3229 178.926 26.0326 179.082 26.6836C179.238 27.3346 179.427 27.8945 179.648 28.3633C179.87 28.832 180.098 29.2031 180.332 29.4766C180.579 29.737 180.781 29.8672 180.938 29.8672C181.042 29.8672 181.191 29.7695 181.387 29.5742C181.595 29.3789 181.81 29.112 182.031 28.7734C182.266 28.4349 182.5 28.0312 182.734 27.5625C182.982 27.0938 183.203 26.5859 183.398 26.0391C183.607 25.4792 183.77 24.8932 183.887 24.2812C184.017 23.6562 184.082 23.0247 184.082 22.3867C184.082 22.2565 184.076 22.1328 184.062 22.0156C184.062 21.8854 184.062 21.7552 184.062 21.625C184.062 21.4036 184.128 21.2214 184.258 21.0781C184.401 20.9219 184.583 20.8438 184.805 20.8438C184.974 20.8438 185.124 20.8958 185.254 21C185.397 21.1042 185.488 21.2474 185.527 21.4297C185.527 21.4167 185.553 21.5208 185.605 21.7422C185.658 21.9635 185.742 22.25 185.859 22.6016C185.99 22.9401 186.146 23.3112 186.328 23.7148C186.523 24.1185 186.751 24.4961 187.012 24.8477C187.285 25.1862 187.598 25.4727 187.949 25.707C188.301 25.9414 188.704 26.0586 189.16 26.0586C189.408 26.0586 189.622 26.0065 189.805 25.9023C189.987 25.7982 190.137 25.681 190.254 25.5508C190.371 25.4206 190.456 25.2969 190.508 25.1797C190.573 25.0625 190.605 24.9974 190.605 24.9844C190.658 24.8411 190.742 24.7305 190.859 24.6523C190.99 24.5612 191.133 24.5156 191.289 24.5156C191.497 24.5156 191.673 24.5938 191.816 24.75C191.96 24.8932 192.031 25.0625 192.031 25.2578C192.031 25.349 192.012 25.4401 191.973 25.5312C191.895 25.7135 191.777 25.9219 191.621 26.1562C191.478 26.3906 191.289 26.612 191.055 26.8203C190.82 27.0286 190.54 27.2044 190.215 27.3477C189.902 27.4779 189.551 27.543 189.16 27.543C188.704 27.543 188.281 27.4648 187.891 27.3086C187.5 27.1393 187.142 26.931 186.816 26.6836C186.504 26.4232 186.217 26.1367 185.957 25.8242C185.697 25.4987 185.475 25.1732 185.293 24.8477Z" fill="black"/>
</svg>
