<svg width="76" height="48" viewBox="0 0 76 48" fill="none" xmlns="http://www.w3.org/2000/svg">
<path d="M18.7596 13.0864C18.7596 18.9521 17.1591 24.3406 15.1005 29.7678C13.2737 34.5839 9.17991 34.9838 4.60733 34.8798C1.75434 34.815 -0.526207 29.4623 2.77776 29.0952C5.05121 28.8426 7.41691 30.2407 5.19925 32.4583" stroke="black" stroke-linecap="round"/>
<path d="M18.8214 13.1075C26.0494 14.2756 26.3415 20.3449 23.4761 26.0759C22.4557 28.1167 20.6782 30.46 20.2743 32.7484C19.8383 35.2191 29.9547 33.0544 31.1172 31.8606C34.6586 28.2234 19.6052 25.2893 17.799 25.1073C15.3488 24.8604 8.07316 23.8988 10.4269 24.623C12.3013 25.1997 14.9951 24.7306 16.9111 24.7306C21.2864 24.7306 25.5795 25.054 29.9065 25.6992C30.6721 25.8134 38.785 26.2579 38.1933 25.6992C36.9158 24.4926 33.4619 22.3151 33.8347 25.484C34.1924 28.5247 39.9983 25.3052 40.1305 22.7934C40.2096 21.2903 45.8481 25.9046 46.8031 21.4481C47.0028 20.5162 45.9959 20.0517 45.9959 20.6948C45.9959 22.5535 48.9423 23.7712 50.4084 24.0311C51.7066 24.2611 54.9747 23.0722 54.1214 21.1522C53.6507 20.0932 52.3632 21.4974 53.2604 22.7934C54.5975 24.7248 58.1104 25.9053 60.2289 24.6499C62.3715 23.3802 65.1493 21.7426 67.036 20.1567C71.4585 16.4392 65.9973 13.7296 62.5966 13.4303C52.0834 12.5052 42.0413 14.3653 32.597 19.0267C30.0309 20.2932 27.5118 21.7354 25.1711 23.3853C24.4733 23.8772 22.9743 25.6255 23.8258 25.5647C25.2884 25.4602 26.7102 24.4021 27.9155 23.7082C32.3012 21.1831 36.7396 18.8509 41.5834 17.3047C45.978 15.9019 50.5309 15.1118 55.1169 14.6949C59.4472 14.3012 65.146 13.5978 69.296 15.4213C77.7108 19.1187 55.9884 31.3129 54.4442 32.2103C40.3179 40.4196 25.054 46.3771 8.59735 46.9545C6.53487 47.0269 4.47222 47.0083 2.4091 47.0083C1.22298 47.0083 0.155327 47.2685 1.97861 46.5778C29.142 36.2887 52.7107 19.2367 75 1" stroke="black" stroke-linecap="round"/>
</svg>
