<svg width="25" height="25" viewBox="0 0 25 25" fill="none" xmlns="http://www.w3.org/2000/svg">
<path d="M12.494 25C19.3451 25 25 19.3424 25 12.5C25 5.65764 19.333 0 12.4819 0C5.64282 0 0 5.65764 0 12.5C0 19.3424 5.65491 25 12.494 25ZM12.494 16.6828C9.08652 16.6828 6.44031 17.9038 5.1595 19.3061C3.51619 17.529 2.51329 15.1354 2.51329 12.5C2.51329 6.95116 6.9478 2.50242 12.4819 2.50242C18.028 2.50242 22.4867 6.95116 22.4988 12.5C22.4988 15.1354 21.4959 17.529 19.8405 19.3182C18.5597 17.9038 15.9135 16.6828 12.494 16.6828ZM12.494 14.7002C14.8381 14.7244 16.6626 12.7176 16.6626 10.1306C16.6626 7.68859 14.826 5.64555 12.494 5.64555C10.174 5.64555 8.32528 7.68859 8.33736 10.1306C8.34944 12.7176 10.1619 14.6881 12.494 14.7002Z" fill="#FDFDFD"/>
</svg>
