<svg width="23" height="17" viewBox="0 0 23 17" fill="none" xmlns="http://www.w3.org/2000/svg">
<path d="M21.1665 6.66667L21.8611 7.38607L22.6062 6.66667L21.8611 5.94727L21.1665 6.66667ZM0.83317 16C0.83317 16.5523 1.28089 17 1.83317 17C2.38545 17 2.83317 16.5523 2.83317 16L0.83317 16ZM15.8194 13.2194L21.8611 7.38607L20.4719 5.94727L14.4302 11.7806L15.8194 13.2194ZM21.8611 5.94727L15.8194 0.113932L14.4302 1.55273L20.4719 7.38607L21.8611 5.94727ZM21.1665 5.66667L7.83317 5.66667L7.83317 7.66667L21.1665 7.66667L21.1665 5.66667ZM0.83317 12.6667L0.83317 16L2.83317 16L2.83317 12.6667L0.83317 12.6667ZM7.83317 5.66667C3.96718 5.66667 0.833171 8.80067 0.83317 12.6667L2.83317 12.6667C2.83317 9.90524 5.07175 7.66667 7.83317 7.66667L7.83317 5.66667Z" fill="#33363F"/>
</svg>
