<svg width="26" height="26" viewBox="0 0 26 26" fill="none" xmlns="http://www.w3.org/2000/svg">
<path d="M17.3335 22.75V20.25C17.3335 18.3644 17.3335 17.4216 16.7477 16.8358C16.1619 16.25 15.2191 16.25 13.3335 16.25H11.5835C9.69788 16.25 8.75507 16.25 8.16928 16.8358C7.5835 17.4216 7.5835 18.3644 7.5835 20.25V22.75" stroke="black" stroke-width="2"/>
<path d="M7.5835 8.66669H13.0002" stroke="black" stroke-width="2" stroke-linecap="round"/>
<path d="M3.25 9.25C3.25 6.42157 3.25 5.00736 4.12868 4.12868C5.00736 3.25 6.42157 3.25 9.25 3.25H17.5882C17.997 3.25 18.2014 3.25 18.3851 3.32612C18.5689 3.40224 18.7134 3.54676 19.0025 3.83579L22.1642 6.99755C22.4532 7.28658 22.5978 7.43109 22.6739 7.61486C22.75 7.79863 22.75 8.00301 22.75 8.41176V16.75C22.75 19.5784 22.75 20.9926 21.8713 21.8713C20.9926 22.75 19.5784 22.75 16.75 22.75H9.25C6.42157 22.75 5.00736 22.75 4.12868 21.8713C3.25 20.9926 3.25 19.5784 3.25 16.75V9.25Z" stroke="black" stroke-width="2"/>
</svg>
