<svg width="25" height="24" viewBox="0 0 25 24" fill="none" xmlns="http://www.w3.org/2000/svg">
<path d="M8.36938 8.46436C10.4458 8.46436 12.1707 6.75049 12.1707 4.67407C12.1707 2.60864 10.4458 0.872803 8.36938 0.872803C6.30396 0.872803 4.56812 2.60864 4.56812 4.67407C4.56812 6.75049 6.30396 8.46436 8.36938 8.46436ZM16.6201 8.46436C18.6965 8.46436 20.4214 6.75049 20.4214 4.67407C20.4214 2.60864 18.6965 0.872803 16.6201 0.872803C14.5547 0.872803 12.8188 2.60864 12.8188 4.67407C12.8188 6.75049 14.5437 8.46436 16.6201 8.46436ZM8.36938 6.43188C7.41357 6.43188 6.61157 5.6189 6.61157 4.67407C6.61157 3.71826 7.41357 2.91626 8.36938 2.91626C9.3252 2.91626 10.1382 3.72925 10.1382 4.67407C10.1382 5.62988 9.3252 6.43188 8.36938 6.43188ZM16.6201 6.43188C15.6643 6.43188 14.8623 5.62988 14.8623 4.67407C14.8623 3.72925 15.6643 2.91626 16.6201 2.91626C17.5759 2.91626 18.3779 3.71826 18.3779 4.67407C18.3779 5.62988 17.5759 6.43188 16.6201 6.43188ZM4.24951 15.8582C6.31494 15.8582 8.05078 14.1333 8.05078 12.0679C8.05078 9.99146 6.31494 8.2666 4.24951 8.2666C2.1731 8.2666 0.448242 9.99146 0.448242 12.0679C0.448242 14.1333 2.1731 15.8582 4.24951 15.8582ZM20.74 15.8582C22.8164 15.8582 24.5413 14.1333 24.5413 12.0679C24.5413 9.99146 22.8164 8.2666 20.74 8.2666C18.6746 8.2666 16.9497 9.99146 16.9497 12.0679C16.9497 14.1333 18.6746 15.8582 20.74 15.8582ZM4.24951 13.8257C3.2937 13.8257 2.48071 13.0237 2.48071 12.0679C2.48071 11.1121 3.2937 10.3101 4.24951 10.3101C5.20532 10.3101 6.00732 11.1121 6.00732 12.0679C6.00732 13.0237 5.20532 13.8257 4.24951 13.8257ZM20.74 13.8257C19.7952 13.8257 18.9822 13.0237 18.9822 12.0679C18.9822 11.1121 19.7952 10.3101 20.74 10.3101C21.6958 10.3101 22.5088 11.1121 22.5088 12.0679C22.5088 13.0237 21.6958 13.8257 20.74 13.8257ZM8.36938 23.252C10.4458 23.252 12.1707 21.5271 12.1707 19.4507C12.1707 17.3853 10.4458 15.6604 8.36938 15.6604C6.29297 15.6604 4.56812 17.3853 4.56812 19.4507C4.56812 21.5271 6.30396 23.252 8.36938 23.252ZM16.6201 23.252C18.6965 23.252 20.4214 21.5271 20.4214 19.4507C20.4214 17.3853 18.6965 15.6604 16.6201 15.6604C14.5437 15.6604 12.8188 17.3853 12.8188 19.4507C12.8188 21.5271 14.5547 23.252 16.6201 23.252ZM8.36938 21.2195C7.41357 21.2195 6.61157 20.4065 6.61157 19.4507C6.61157 18.5059 7.41357 17.7039 8.36938 17.7039C9.3252 17.7039 10.1382 18.5059 10.1382 19.4507C10.1382 20.4065 9.3252 21.2195 8.36938 21.2195ZM16.6201 21.2195C15.6643 21.2195 14.8623 20.4065 14.8623 19.4507C14.8623 18.5059 15.6643 17.7039 16.6201 17.7039C17.5759 17.7039 18.3779 18.5059 18.3779 19.4507C18.3779 20.4065 17.5759 21.2195 16.6201 21.2195Z" fill="#1C1C1E"/>
</svg>
