<svg width="19" height="24" viewBox="0 0 19 24" fill="none" xmlns="http://www.w3.org/2000/svg">
<path d="M3.64404 23.9771H15.3555C17.7175 23.9771 18.937 22.7356 18.937 20.3625V10.387C18.937 8.84888 18.7393 8.14575 17.7834 7.16797L12.0376 1.33423C11.1038 0.389404 10.3347 0.169678 8.95044 0.169678H3.64404C1.29297 0.169678 0.0625 1.41113 0.0625 3.79517V20.3625C0.0625 22.7356 1.29297 23.9771 3.64404 23.9771ZM3.83081 21.7798C2.77612 21.7798 2.24878 21.2305 2.24878 20.2197V3.927C2.24878 2.92725 2.77612 2.36694 3.8418 2.36694H8.5V8.34351C8.5 9.93652 9.28003 10.7056 10.8621 10.7056H16.7507V20.2197C16.7507 21.2305 16.2234 21.7798 15.1577 21.7798H3.83081ZM11.0708 8.78296C10.6094 8.78296 10.4116 8.58521 10.4116 8.13477V2.65259L16.4541 8.78296H11.0708ZM10.4666 19.5276V16.2097L10.3787 14.5068L11.2246 15.3967L12.0486 16.2427C12.2134 16.4185 12.4661 16.5283 12.6968 16.5283C13.2021 16.5283 13.5757 16.1768 13.5757 15.6934C13.5757 15.4077 13.4658 15.21 13.2571 15.0232L10.2358 12.2546C9.98315 12.0239 9.77441 11.9141 9.49976 11.9141C9.2251 11.9141 9.01636 12.0239 8.76367 12.2546L5.74243 15.0232C5.53369 15.21 5.42383 15.4077 5.42383 15.6934C5.42383 16.1768 5.79736 16.5283 6.30273 16.5283C6.53345 16.5283 6.78613 16.4185 6.95093 16.2427L7.7749 15.3967L8.62085 14.5068L8.53296 16.2097V19.5276C8.53296 20.0549 8.97241 20.4614 9.49976 20.4614C10.0271 20.4614 10.4666 20.0549 10.4666 19.5276Z" fill="#1C1C1E"/>
</svg>
