<svg width="26" height="26" viewBox="0 0 26 26" fill="none" xmlns="http://www.w3.org/2000/svg">
<path d="M11.3661 25.577H13.7016C14.6565 25.577 15.4043 24.9788 15.6344 24.0584L16.0946 22.045L16.3937 21.93L18.1539 23.023C18.9593 23.5292 19.9142 23.3911 20.5929 22.7123L22.2036 21.1016C22.8939 20.4114 23.009 19.468 22.5028 18.6741L21.4098 16.9139L21.5248 16.6378L23.5382 16.1661C24.4471 15.936 25.0453 15.1882 25.0453 14.2333V11.9668C25.0453 11.0119 24.4586 10.2641 23.5382 10.034L21.5363 9.55079L21.4213 9.25167L22.5143 7.50293C23.0205 6.7091 22.9054 5.76571 22.2151 5.06391L20.6045 3.45323C19.9372 2.77445 18.9823 2.6479 18.1769 3.1426L16.4167 4.22406L16.0946 4.10901L15.6344 2.08416C15.4043 1.16377 14.6565 0.577026 13.7016 0.577026H11.3661C10.3997 0.577026 9.65185 1.16377 9.43326 2.08416L8.97307 4.10901L8.65093 4.22406L6.89069 3.1426C6.07385 2.6479 5.13045 2.77445 4.46317 3.45323L2.84099 5.06391C2.16221 5.76571 2.03565 6.7091 2.54187 7.50293L3.63483 9.25167L3.51978 9.55079L1.52944 10.034C0.609055 10.2641 0.0223083 11.0119 0.0223083 11.9668V14.2333C0.0223083 15.1882 0.62056 15.936 1.52944 16.1661L3.54279 16.6378L3.64633 16.9139L2.55337 18.6741C2.04716 19.468 2.17371 20.4114 2.8525 21.1016L4.47468 22.7123C5.14196 23.3911 6.09686 23.5292 6.9022 23.023L8.66244 21.93L8.97307 22.045L9.43326 24.0584C9.65185 24.9788 10.3997 25.577 11.3661 25.577ZM11.6652 23.4601C11.4696 23.4601 11.3661 23.3796 11.3431 23.207L10.6528 20.3768C9.92797 20.2043 9.22617 19.9051 8.66244 19.5485L6.17739 21.0786C6.02783 21.1707 5.88977 21.1592 5.75172 21.0211L4.54371 19.8131C4.40565 19.6866 4.40565 19.5485 4.49769 19.3989L6.02783 16.9139C5.7057 16.3617 5.40657 15.6714 5.234 14.9466L2.3923 14.2678C2.21973 14.2448 2.12769 14.1412 2.12769 13.9456V12.2429C2.12769 12.0358 2.20823 11.9553 2.3923 11.9093L5.22249 11.242C5.39507 10.4712 5.72871 9.75788 6.01633 9.24016L4.48618 6.77813C4.39414 6.61706 4.39414 6.47901 4.5207 6.34095L5.74021 5.14444C5.87827 5.01789 6.00482 4.99488 6.17739 5.09843L8.63943 6.60556C9.15715 6.28342 9.92797 5.96129 10.6643 5.77721L11.3431 2.94702C11.3661 2.77445 11.4696 2.68241 11.6652 2.68241H13.4024C13.598 2.68241 13.69 2.76294 13.7246 2.94702L14.4149 5.78871C15.1627 5.97279 15.8415 6.28342 16.4167 6.60556L18.8787 5.09843C19.0513 5.00639 19.1779 5.01789 19.3159 5.15595L20.5354 6.35245C20.6735 6.479 20.6735 6.61706 20.5699 6.77813L19.0513 9.24016C19.3274 9.75788 19.6726 10.4712 19.8451 11.242L22.6753 11.9093C22.8594 11.9553 22.9284 12.0358 22.9284 12.2429V13.9456C22.9284 14.1412 22.8479 14.2448 22.6753 14.2678L19.8336 14.9466C19.6611 15.6714 19.3504 16.3732 19.0283 16.9139L20.5584 19.3874C20.6505 19.5485 20.6505 19.675 20.5124 19.8016L19.3044 21.0211C19.1663 21.1592 19.0283 21.1707 18.8787 21.0786L16.4052 19.5485C15.8299 19.9051 15.1742 20.1928 14.4149 20.3768L13.7246 23.207C13.69 23.3796 13.598 23.4601 13.4024 23.4601H11.6652ZM12.5396 17.4431C14.9326 17.4431 16.8999 15.4758 16.8999 13.0713C16.8999 10.6898 14.9326 8.72245 12.5396 8.72245C10.1351 8.72245 8.15623 10.6898 8.15623 13.0713C8.15623 15.4758 10.1351 17.4431 12.5396 17.4431ZM12.5396 15.4528C11.228 15.4528 10.1581 14.3828 10.1581 13.0713C10.1581 11.7827 11.2395 10.7128 12.5396 10.7128C13.8166 10.7128 14.8866 11.7827 14.8866 13.0713C14.8866 14.3713 13.8166 15.4528 12.5396 15.4528Z" fill="white"/>
</svg>
