<svg width="26" height="20" viewBox="0 0 26 20" fill="none" xmlns="http://www.w3.org/2000/svg">
<path d="M6.09877 18.671C6.57528 18.671 6.99223 18.4667 7.57937 17.9647L10.3278 15.514C10.949 16.1693 11.8935 16.5266 13.0763 16.5266H15.9779L18.8115 18.9518C19.3731 19.4283 19.756 19.6921 20.2155 19.6921C20.8877 19.6921 21.2877 19.2155 21.2877 18.4752V16.5266H21.6706C23.8149 16.5266 25.2444 15.2077 25.2444 12.9953V7.82174C25.2444 5.57531 23.7894 4.24788 21.611 4.24788H20.1389V3.67777C20.1389 1.36327 18.7264 -0.00671387 16.3949 -0.00671387H3.997C1.73355 -0.00671387 0.244446 1.36327 0.244446 3.67777V11.6424C0.244446 13.9228 1.70803 15.2758 3.93743 15.2758H5.00959V17.4627C5.00959 18.2115 5.40952 18.671 6.09877 18.671ZM6.51572 14.4674C6.51572 13.9569 6.20088 13.7016 5.78393 13.7016H4.1842C2.76317 13.7016 1.91225 12.9017 1.91225 11.4211V3.85646C1.91225 2.36735 2.77168 1.56749 4.1842 1.56749H16.1992C17.6202 1.56749 18.4711 2.36735 18.4711 3.85646V4.24788H13.0763C10.8129 4.24788 9.43437 5.57531 9.43437 7.82174V13.0038C9.43437 13.3697 9.46841 13.7101 9.54499 14.0249L6.51572 16.85V14.4674ZM19.7901 17.8711L17.1097 15.446C16.7438 15.1141 16.4374 14.9695 15.9439 14.9695H13.2465C11.902 14.9695 11.0766 14.2207 11.0766 12.7996L11.0852 7.97491C11.0852 6.56238 11.902 5.79655 13.2465 5.79655H21.4323C22.7853 5.79655 23.6022 6.56238 23.6022 7.97491V12.7996C23.6022 14.2121 22.7768 14.9695 21.4323 14.9695H20.5218C20.1049 14.9695 19.7901 15.2162 19.7901 15.7268V17.8711ZM17.3479 11.3701C17.7734 11.3701 18.0116 11.1318 18.0287 10.6808L18.1478 7.91534C18.1648 7.43032 17.8159 7.10697 17.3394 7.10697C16.8629 7.10697 16.5225 7.43032 16.5481 7.90683L16.6587 10.6808C16.6757 11.1233 16.9139 11.3701 17.3479 11.3701ZM17.3479 13.9654C17.8585 13.9654 18.2669 13.5995 18.2669 13.0974C18.2669 12.6039 17.8585 12.238 17.3479 12.238C16.8203 12.238 16.4204 12.6124 16.4204 13.0974C16.4204 13.591 16.8289 13.9654 17.3479 13.9654Z" fill="white"/>
</svg>
