<svg width="28" height="28" viewBox="0 0 28 28" fill="none" xmlns="http://www.w3.org/2000/svg">
<path d="M10.5 2.33331C11.1443 2.33331 11.6667 2.85565 11.6667 3.49998V4.66665H16.3333V3.49998C16.3333 2.85565 16.8557 2.33331 17.5 2.33331C18.1443 2.33331 18.6667 2.85565 18.6667 3.49998V4.66665H22.1667C23.4553 4.66665 24.5 5.71132 24.5 6.99998V22.1666C24.5 23.4553 23.4553 24.5 22.1667 24.5H5.83333C4.54467 24.5 3.5 23.4553 3.5 22.1666V6.99998C3.5 5.71132 4.54467 4.66665 5.83333 4.66665H9.33333V3.49998C9.33333 2.85565 9.85567 2.33331 10.5 2.33331ZM9.33333 6.99998H5.83333V10.5H22.1667V6.99998H18.6667V8.16665C18.6667 8.81098 18.1443 9.33331 17.5 9.33331C16.8557 9.33331 16.3333 8.81098 16.3333 8.16665V6.99998H11.6667V8.16665C11.6667 8.81098 11.1443 9.33331 10.5 9.33331C9.85567 9.33331 9.33333 8.81098 9.33333 8.16665V6.99998ZM22.1667 12.8333H5.83333V22.1666H22.1667V12.8333Z" fill="#474747"/>
</svg>
