<svg width="25" height="21" viewBox="0 0 25 21" fill="none" xmlns="http://www.w3.org/2000/svg">
<path d="M0 15.1273C0 17.2253 1.15165 18.3233 3.35304 18.3233H13.9829C13.6058 17.7351 13.3408 17.0684 13.2185 16.3723H3.34285C2.49694 16.3723 2.02813 15.9508 2.02813 15.088V6.06855C2.02813 5.20582 2.49694 4.78425 3.34285 4.78425H17.3971C18.243 4.78425 18.7118 5.20582 18.7118 6.06855V8.69597C19.0685 8.63715 19.4048 8.60773 19.7411 8.60773C20.0775 8.60773 20.4138 8.63715 20.7501 8.68616V3.19604C20.7501 1.09803 19.5985 0 17.3869 0H3.35304C1.15165 0 0 1.08822 0 3.19604V15.1273ZM5.08561 8.30382H15.6747C16.0416 8.30382 16.3168 8.02931 16.3168 7.66657C16.3168 7.32344 16.0416 7.05873 15.6747 7.05873H5.08561C4.70852 7.05873 4.43335 7.32344 4.43335 7.66657C4.43335 8.02931 4.70852 8.30382 5.08561 8.30382ZM5.08561 11.1959H14.3905C14.7472 10.7254 15.1549 10.3136 15.6339 9.95085H5.08561C4.70852 9.95085 4.43335 10.2352 4.43335 10.5881C4.43335 10.9312 4.70852 11.1959 5.08561 11.1959ZM19.7411 20.1076C22.5948 20.1076 25 17.8135 25 15.0488C25 12.2842 22.6254 9.99987 19.7411 9.99987C16.8671 9.99987 14.4925 12.2842 14.4925 15.0488C14.4925 17.8233 16.8671 20.1076 19.7411 20.1076ZM16.4085 15.0488C16.4085 14.6469 16.6938 14.3822 17.1117 14.3822H19.0379V12.5293C19.0379 12.1273 19.3233 11.8528 19.7411 11.8528C20.1692 11.8528 20.4444 12.1273 20.4444 12.5293V14.3822H22.3706C22.7884 14.3822 23.0738 14.6469 23.0738 15.0488C23.0738 15.4606 22.7884 15.7253 22.3706 15.7253H20.4444V17.588C20.4444 17.99 20.1692 18.2547 19.7411 18.2547C19.3233 18.2547 19.0379 17.99 19.0379 17.588V15.7253H17.1117C16.6938 15.7253 16.4187 15.4606 16.4085 15.0488ZM5.08561 14.0881H11.7713C12.1382 14.0881 12.4134 13.8234 12.4134 13.4802C12.4134 13.1273 12.1382 12.8528 11.7713 12.8528H5.08561C4.70852 12.8528 4.43335 13.1273 4.43335 13.4802C4.43335 13.8234 4.70852 14.0881 5.08561 14.0881Z" fill="#FDFDFD"/>
</svg>
