<svg width="17" height="26" viewBox="0 0 17 26" fill="none" xmlns="http://www.w3.org/2000/svg">
<path d="M1.58187 25.1818C2.19691 25.1818 2.59554 24.8629 3.56365 23.9176L7.96 19.5668C8.00556 19.5098 8.10807 19.5098 8.15363 19.5668L12.5614 23.9176C13.5295 24.8629 13.9167 25.1818 14.5431 25.1818C15.4543 25.1818 16.0238 24.5554 16.0238 23.5303V3.64421C16.0238 1.37769 14.8393 0.181793 12.5955 0.181793H3.51809C1.27435 0.181793 0.0898438 1.37769 0.0898438 3.64421V23.5303C0.0898438 24.5554 0.65932 25.1818 1.58187 25.1818ZM2.66388 21.4346C2.51581 21.5827 2.33358 21.5371 2.33358 21.3207V3.79227C2.33358 2.88111 2.78916 2.43692 3.70032 2.43692H12.4133C13.3245 2.43692 13.78 2.88111 13.78 3.79227V21.3207C13.78 21.5371 13.6092 21.5827 13.4498 21.4346L8.81422 16.9472C8.33586 16.4688 7.78916 16.4688 7.29941 16.9472L2.66388 21.4346Z" fill="white"/>
</svg>
