<svg width="22" height="25" viewBox="0 0 22 25" fill="none" xmlns="http://www.w3.org/2000/svg">
<path d="M5.66315 25H15.5014C17.15 25 18.2099 23.9708 18.2955 22.2665L19.0128 6.33023H20.1904C20.7363 6.33023 21.1538 5.88756 21.1538 5.33422C21.1538 4.78088 20.7256 4.36034 20.1904 4.36034H15.4372V2.70031C15.4372 0.996016 14.388 0 12.6002 0H8.53219C6.74439 0 5.69527 0.996016 5.69527 2.70031V4.36034H0.963485C0.428216 4.36034 0 4.79194 0 5.33422C0 5.89863 0.428216 6.33023 0.963485 6.33023H2.14108L2.85834 22.2665C2.94398 23.9818 3.99311 25 5.66315 25ZM7.69717 2.79991C7.69717 2.2355 8.08257 1.8703 8.67136 1.8703H12.4611C13.0499 1.8703 13.4353 2.2355 13.4353 2.79991V4.36034H7.69717V2.79991ZM5.87726 23.019C5.28846 23.019 4.86025 22.5653 4.82813 21.9123L4.11087 6.33023H17.0109L16.315 21.9123C16.2936 22.5764 15.8761 23.019 15.2659 23.019H5.87726ZM7.41883 21.2373C7.87917 21.2373 8.16821 20.9385 8.15751 20.4958L7.83634 8.91988C7.82564 8.4772 7.52589 8.18946 7.08697 8.18946C6.63734 8.18946 6.34829 8.48827 6.359 8.93094L6.68016 20.5069C6.69087 20.9495 6.99062 21.2373 7.41883 21.2373ZM10.5769 21.2373C11.0265 21.2373 11.337 20.9495 11.337 20.5069V8.93094C11.337 8.48827 11.0265 8.18946 10.5769 8.18946C10.1273 8.18946 9.82755 8.48827 9.82755 8.93094V20.5069C9.82755 20.9495 10.1273 21.2373 10.5769 21.2373ZM13.735 21.2483C14.1632 21.2483 14.463 20.9495 14.4737 20.5069L14.7948 8.93094C14.8056 8.48827 14.5165 8.20053 14.0669 8.20053C13.628 8.20053 13.3282 8.48827 13.3175 8.93094L12.9963 20.5069C12.9856 20.9385 13.2747 21.2483 13.735 21.2483Z" fill="white"/>
</svg>
