<svg width="14" height="17" viewBox="0 0 14 17" fill="none" xmlns="http://www.w3.org/2000/svg">
<path d="M7 16.5381C7.5625 16.5381 7.95801 16.1426 7.95801 15.5625V7.37988L7.87012 5.53418L10.2168 8.10938L12.0273 9.88477C12.2031 10.0605 12.4492 10.1748 12.7217 10.1748C13.249 10.1748 13.6445 9.7793 13.6445 9.23438C13.6445 8.97949 13.5391 8.74219 13.3281 8.53125L7.71191 2.96777C7.57129 2.81836 7.39551 2.71289 7.20215 2.67773H12.792C13.3369 2.67773 13.7324 2.27344 13.7324 1.72852C13.7324 1.18359 13.3369 0.779297 12.792 0.779297H1.18164C0.645508 0.779297 0.258789 1.18359 0.258789 1.72852C0.258789 2.27344 0.645508 2.67773 1.18164 2.67773H6.78906C6.5957 2.71289 6.41992 2.81836 6.2793 2.96777L0.663086 8.53125C0.452148 8.74219 0.355469 8.97949 0.355469 9.23438C0.355469 9.7793 0.742188 10.1748 1.27832 10.1748C1.55078 10.1748 1.78809 10.0693 1.97266 9.88477L3.77441 8.10938L6.12109 5.52539L6.0332 7.37988V15.5625C6.0332 16.1426 6.42871 16.5381 7 16.5381Z" fill="#1C1C1E"/>
</svg>
