<svg width="24" height="24" viewBox="0 0 24 24" fill="none" xmlns="http://www.w3.org/2000/svg">
<circle cx="12" cy="8" r="4" stroke="black" stroke-width="2" stroke-linecap="round"/>
<path fill-rule="evenodd" clip-rule="evenodd" d="M13.3265 15.0759C12.8885 15.0255 12.4451 15 11.9999 15C10.0804 15 8.19371 15.4738 6.63101 16.3732C5.06889 17.2721 3.88112 18.5702 3.33078 20.1106C3.14497 20.6307 3.41596 21.203 3.93605 21.3888C4.45614 21.5746 5.02838 21.3036 5.21419 20.7835C5.57546 19.7723 6.39641 18.8157 7.6286 18.1066C8.6426 17.523 9.86363 17.1503 11.1579 17.0368C11.4888 16.0601 12.3089 15.3092 13.3265 15.0759Z" fill="black"/>
<path d="M18 14L18 22" stroke="black" stroke-width="2.5" stroke-linecap="round"/>
<path d="M22 18L14 18" stroke="black" stroke-width="2.5" stroke-linecap="round"/>
</svg>
