<?xml version="1.0" encoding="UTF-8"?>
<svg version="1.1" xmlns="http://www.w3.org/2000/svg" width="600" height="600">
<path d="M0 0 C0.67478394 -0.00090637 1.34956787 -0.00181274 2.0447998 -0.00274658 C15.41109289 -0.00071609 28.50485004 0.5856931 41.625 3.25 C42.68581787 3.46479004 43.74663574 3.67958008 44.83959961 3.90087891 C67.58918741 8.75094246 88.85374513 17.3777848 108.86914062 29.09423828 C110.70983283 30.16415257 112.56279376 31.20852543 114.421875 32.24609375 C115.52015625 32.86613281 116.6184375 33.48617187 117.75 34.125 C118.719375 34.67027344 119.68875 35.21554688 120.6875 35.77734375 C121.368125 36.24269531 122.04875 36.70804688 122.75 37.1875 C122.75 37.8475 122.75 38.5075 122.75 39.1875 C123.29527344 39.435 123.84054687 39.6825 124.40234375 39.9375 C127.24525318 41.45119553 129.72407215 43.27171122 132.3125 45.1875 C135.09837662 47.24383227 137.86859376 49.2665625 140.75 51.1875 C140.75 51.8475 140.75 52.5075 140.75 53.1875 C141.74 53.5175 142.73 53.8475 143.75 54.1875 C143.75 54.8475 143.75 55.5075 143.75 56.1875 C144.28109375 56.39375 144.8121875 56.6 145.359375 56.8125 C148.75773436 58.76711192 151.26055928 61.40873717 154 64.1875 C154.55429687 64.7340625 155.10859375 65.280625 155.6796875 65.84375 C159.75 69.9341133 159.75 69.9341133 159.75 72.1875 C160.41 72.1875 161.07 72.1875 161.75 72.1875 C162.41 73.8375 163.07 75.4875 163.75 77.1875 C164.41 77.1875 165.07 77.1875 165.75 77.1875 C167.32749744 78.96257051 168.76205956 80.7320261 170.1875 82.625 C170.62416992 83.20048584 171.06083984 83.77597168 171.51074219 84.36889648 C179.6916637 95.3208221 187.02315002 106.7607141 192.75 119.1875 C193.35182766 120.46272946 193.95475549 121.7374401 194.55859375 123.01171875 C202.52897382 139.9025087 202.52897382 139.9025087 204.75 148 C206.04805996 152.73942096 206.04805996 152.73942096 207.46826172 157.44287109 C209.53102738 163.95652545 210.80541878 170.44485997 211.875 177.1875 C212.04386719 178.20328125 212.21273438 179.2190625 212.38671875 180.265625 C216.93294973 208.18735858 216.83616772 238.90926615 208.75 266.1875 C208.29840496 267.83919588 207.84945159 269.49161506 207.40234375 271.14453125 C204.76717715 280.7830143 201.98921622 290.11468011 197.75 299.1875 C197.04938699 300.7304269 196.34887514 302.27339973 195.6484375 303.81640625 C188.62490405 319.11263007 188.62490405 319.11263007 183.84375 325.59375 C182.55365067 327.31642914 182.55365067 327.31642914 181.75 330.1875 C181.09 330.1875 180.43 330.1875 179.75 330.1875 C179.49347656 331.08082031 179.23695313 331.97414063 178.97265625 332.89453125 C177.74243412 336.20787711 176.44493425 338.18888126 174.1875 340.875 C173.47207031 341.73609375 172.75664062 342.5971875 172.01953125 343.484375 C171.27058594 344.37640625 170.52164062 345.2684375 169.75 346.1875 C168.29131952 347.99972063 166.83299 349.81222381 165.375 351.625 C150.70846409 369.47223045 150.70846409 369.47223045 142.75 375.1875 C142.09 375.1875 141.43 375.1875 140.75 375.1875 C140.75 375.8475 140.75 376.5075 140.75 377.1875 C140.09 377.1875 139.43 377.1875 138.75 377.1875 C138.75 377.8475 138.75 378.5075 138.75 379.1875 C137.2890625 380.4765625 137.2890625 380.4765625 135.375 381.8125 C134.74851562 382.25851562 134.12203125 382.70453125 133.4765625 383.1640625 C131.75 384.1875 131.75 384.1875 129.75 384.1875 C129.42 385.1775 129.09 386.1675 128.75 387.1875 C126.31640625 389.01171875 126.31640625 389.01171875 123.3125 390.875 C121.82943359 391.80892578 121.82943359 391.80892578 120.31640625 392.76171875 C117.75 394.1875 117.75 394.1875 115.75 394.1875 C115.75 394.8475 115.75 395.5075 115.75 396.1875 C113.10261084 397.6481285 111.85551666 398.1875 108.75 398.1875 C108.75 398.8475 108.75 399.5075 108.75 400.1875 C92.19596542 409.17335276 92.19596542 409.17335276 84.75 412.1875 C83.32880859 412.76757812 83.32880859 412.76757812 81.87890625 413.359375 C34.09221619 432.31027779 -17.11154259 434.62284548 -66.25 419.1875 C-67.34570312 418.84847656 -68.44140625 418.50945312 -69.5703125 418.16015625 C-74.74414087 416.48118409 -79.59749788 414.67180669 -84.3984375 412.11328125 C-86.27690433 411.17404784 -88.13840456 410.48920881 -90.125 409.8125 C-94.28628673 408.31184104 -97.86152636 406.12100357 -101.609375 403.79296875 C-104.29857427 402.15796742 -107.0344533 400.66576228 -109.8125 399.1875 C-114.21161014 396.81922906 -118.35980065 394.22034982 -122.47265625 391.38671875 C-124.23931253 390.13886533 -124.23931253 390.13886533 -126.25 389.1875 C-126.25 388.5275 -126.25 387.8675 -126.25 387.1875 C-127.12301758 386.77588623 -127.12301758 386.77588623 -128.01367188 386.35595703 C-134.71913029 382.85242821 -140.3049081 377.4866175 -145.75 372.3125 C-146.40291016 371.69608643 -147.05582031 371.07967285 -147.72851562 370.44458008 C-149.57396512 368.69733683 -151.4128722 366.94348445 -153.25 365.1875 C-154.075 364.40503906 -154.9 363.62257813 -155.75 362.81640625 C-160.36458953 358.33700977 -164.68497808 353.55731427 -168.25 348.1875 C-168.25 347.5275 -168.25 346.8675 -168.25 346.1875 C-168.91 346.1875 -169.57 346.1875 -170.25 346.1875 C-180.41241286 333.44688515 -188.28250835 318.69476105 -195.32861328 304.06713867 C-195.95055104 302.79837904 -196.59007959 301.53811311 -197.24560547 300.28637695 C-199.94993484 295.09539009 -201.92961935 289.80803651 -203.75 284.25 C-204.05260742 283.32832031 -204.35521484 282.40664063 -204.66699219 281.45703125 C-207.35509114 273.11326431 -209.55852102 264.7858515 -211.25 256.1875 C-211.39953125 255.49011719 -211.5490625 254.79273438 -211.703125 254.07421875 C-217.36419273 226.9889378 -216.27028021 196.08412831 -210.25 169.1875 C-210.09515137 168.44435547 -209.94030273 167.70121094 -209.78076172 166.93554688 C-204.89824371 143.59894917 -195.25560705 121.65964626 -183.25 101.1875 C-182.59 101.1875 -181.93 101.1875 -181.25 101.1875 C-181.13068115 100.60323242 -181.0113623 100.01896484 -180.88842773 99.41699219 C-179.80902765 95.64755372 -177.48670426 92.66373857 -175.3125 89.4375 C-174.85681641 88.74011719 -174.40113281 88.04273438 -173.93164062 87.32421875 C-172.76112539 85.57273037 -171.51127982 83.87480278 -170.25 82.1875 C-169.59 82.1875 -168.93 82.1875 -168.25 82.1875 C-168.00636719 81.62546875 -167.76273438 81.0634375 -167.51171875 80.484375 C-166.00819064 77.74730215 -164.18300252 75.72954059 -162.0625 73.4375 C-159.21113296 70.33561349 -156.40862827 67.21644886 -153.6875 64 C-150.23239089 60.03631174 -146.49374392 56.30933461 -142.25 53.1875 C-141.59 53.1875 -140.93 53.1875 -140.25 53.1875 C-140.25 52.5275 -140.25 51.8675 -140.25 51.1875 C-139.59 51.1875 -138.93 51.1875 -138.25 51.1875 C-138.25 50.5275 -138.25 49.8675 -138.25 49.1875 C-136.7890625 47.8984375 -136.7890625 47.8984375 -134.875 46.5625 C-134.24851562 46.11648437 -133.62203125 45.67046875 -132.9765625 45.2109375 C-131.25 44.1875 -131.25 44.1875 -129.25 44.1875 C-129.25 43.5275 -129.25 42.8675 -129.25 42.1875 C-126.84297475 40.43478296 -124.43859301 38.79518146 -121.9375 37.1875 C-121.24720703 36.73632812 -120.55691406 36.28515625 -119.84570312 35.8203125 C-118.55502876 34.97732132 -117.26248476 34.13718115 -115.9675293 33.30078125 C-114.38653173 32.27599818 -112.81764406 31.23259604 -111.25 30.1875 C-110.26 30.1875 -109.27 30.1875 -108.25 30.1875 C-108.25 29.5275 -108.25 28.8675 -108.25 28.1875 C-102.625 25.1875 -102.625 25.1875 -99.25 25.1875 C-99.25 24.5275 -99.25 23.8675 -99.25 23.1875 C-78.30351106 13.59645733 -57.13531147 5.54538994 -34.25 2.1875 C-33.04601562 1.99929687 -31.84203125 1.81109375 -30.6015625 1.6171875 C-20.41986587 0.17567492 -10.2647924 -0.00088903 0 0 Z " fill="#FEFEFE" transform="translate(295.25,84.8125)"/>
<path d="M0 0 C0.71285156 0.12181641 1.42570312 0.24363281 2.16015625 0.36914062 C34.41914645 6.09250985 64.25490147 20.07993419 92 37 C92.89976562 37.53238281 93.79953125 38.06476563 94.7265625 38.61328125 C96.51878765 39.68671645 98.26722425 40.83302858 100 42 C100 42.66 100 43.32 100 44 C100.78375 44.309375 101.5675 44.61875 102.375 44.9375 C105 46 105 46 107 47 C107 47.66 107 48.32 107 49 C107.7425 49.268125 108.485 49.53625 109.25 49.8125 C111.89061949 50.95276751 113.85552844 52.09380306 116 54 C116 54.66 116 55.32 116 56 C116.80630859 56.32871094 116.80630859 56.32871094 117.62890625 56.6640625 C120.81298668 58.45805839 123.30391908 60.8762216 125.9375 63.375 C126.96599574 64.34269159 127.99592709 65.30885979 129.02734375 66.2734375 C129.52218262 66.73717773 130.01702148 67.20091797 130.52685547 67.67871094 C131.92017407 68.92840273 133.39838535 70.0815192 134.87890625 71.2265625 C135.57886719 71.81179687 136.27882813 72.39703125 137 73 C137 73.66 137 74.32 137 75 C137.66 75 138.32 75 139 75 C139 75.66 139 76.32 139 77 C139.66 77 140.32 77 141 77 C142.58533702 78.71332754 144.09541215 80.49689047 145.5625 82.3125 C146.77099609 83.79169922 146.77099609 83.79169922 148.00390625 85.30078125 C150 88 150 88 151 91 C151.66 91 152.32 91 153 91 C153.66 92.65 154.32 94.3 155 96 C155.66 96 156.32 96 157 96 C158.43286133 97.70898437 158.43286133 97.70898437 160.08203125 100.09375 C160.68466797 100.96 161.28730469 101.82625 161.90820312 102.71875 C162.53662109 103.6365625 163.16503906 104.554375 163.8125 105.5 C164.73772461 106.8303125 164.73772461 106.8303125 165.68164062 108.1875 C168.48975876 112.24599167 171.26095054 116.32974558 173.94921875 120.46875 C174.34842529 121.08169922 174.74763184 121.69464844 175.15893555 122.32617188 C176 124 176 124 176 127 C176.66 127 177.32 127 178 127 C183.72256289 138.17117329 189.06083178 149.46035783 194 161 C194.45117188 162.03898438 194.90234375 163.07796875 195.3671875 164.1484375 C220.51386621 225.4537392 217.0315072 297.97702955 192.02490234 358.58056641 C187.9955613 368.09242199 183.70340625 377.39848722 178.12890625 386.1171875 C176.84467816 388.10491125 176.84467816 388.10491125 176 391 C175.34 391 174.68 391 174 391 C173.7215625 391.7321875 173.443125 392.464375 173.15625 393.21875 C169.64667769 401.6606942 164.01815841 408.79895607 158.40625 415.92578125 C155.90089418 419.12661733 153.50747752 422.39207384 151.15625 425.70703125 C150.7746875 426.13371094 150.393125 426.56039063 150 427 C149.34 427 148.68 427 148 427 C148 427.66 148 428.32 148 429 C147.34 429 146.68 429 146 429 C145.6596875 430.0828125 145.6596875 430.0828125 145.3125 431.1875 C143.73664872 434.56432417 141.79123384 436.55767039 139 439 C138.34 439 137.68 439 137 439 C137 439.66 137 440.32 137 441 C136.34 441 135.68 441 135 441 C135 441.66 135 442.32 135 443 C133.625 444.625 133.625 444.625 132 446 C131.34 446 130.68 446 130 446 C130 446.66 130 447.32 130 448 C129.34 448 128.68 448 128 448 C128 448.66 128 449.32 128 450 C126.28667246 451.58533702 124.50310953 453.09541215 122.6875 454.5625 C121.70136719 455.36816406 120.71523438 456.17382812 119.69921875 457.00390625 C117 459 117 459 114 460 C114 460.66 114 461.32 114 462 C112.41796875 463.35351562 112.41796875 463.35351562 110.1875 464.90625 C109.36668945 465.48068848 108.54587891 466.05512695 107.70019531 466.64697266 C106.36359863 467.56422119 106.36359863 467.56422119 105 468.5 C104.09604492 469.12567871 103.19208984 469.75135742 102.26074219 470.39599609 C96.65870603 474.2472728 91.00673289 478.0088775 85.25 481.625 C84.63253906 482.01365234 84.01507813 482.40230469 83.37890625 482.80273438 C79.67625326 485.08777727 75.89870124 487.10969629 71.99121094 489.02197266 C70.07265066 489.96431602 68.17587392 490.9402505 66.28125 491.9296875 C57.07601582 496.69260076 47.8227171 500.69553506 38 504 C36.77361816 504.41548096 36.77361816 504.41548096 35.52246094 504.83935547 C10.92859468 513.04493831 -14.07698358 518.03972808 -40 519 C-41.32668701 519.04979004 -41.32668701 519.04979004 -42.68017578 519.10058594 C-95.35777762 520.73948962 -147.82811345 505.53481043 -192 477 C-192.56428711 476.64099609 -193.12857422 476.28199219 -193.70996094 475.91210938 C-201.25852207 471.10426954 -201.25852207 471.10426954 -204 469 C-204 468.34 -204 467.68 -204 467 C-204.7425 466.731875 -205.485 466.46375 -206.25 466.1875 C-208.89061949 465.04723249 -210.85552844 463.90619694 -213 462 C-213 461.34 -213 460.68 -213 460 C-213.7425 459.731875 -214.485 459.46375 -215.25 459.1875 C-217.89061949 458.04723249 -219.85552844 456.90619694 -222 455 C-222 454.34 -222 453.68 -222 453 C-222.639375 452.731875 -223.27875 452.46375 -223.9375 452.1875 C-226 451 -226 451 -227 448 C-227.66 448 -228.32 448 -229 448 C-229 447.34 -229 446.68 -229 446 C-229.85851562 445.62875 -229.85851562 445.62875 -230.734375 445.25 C-233.35010611 443.80683801 -235.14773456 442.11783778 -237.25 440 C-237.95640625 439.29875 -238.6628125 438.5975 -239.390625 437.875 C-241 436 -241 436 -241 434 C-241.66 434 -242.32 434 -243 434 C-244.7265625 432.3203125 -244.7265625 432.3203125 -246.625 430.125 C-247.25664062 429.40570313 -247.88828125 428.68640625 -248.5390625 427.9453125 C-250 426 -250 426 -250 424 C-250.66 424 -251.32 424 -252 424 C-253.40112305 422.41455078 -253.40112305 422.41455078 -255.01171875 420.1953125 C-255.60146484 419.38900391 -256.19121094 418.58269531 -256.79882812 417.75195312 C-257.7337207 416.45161133 -257.7337207 416.45161133 -258.6875 415.125 C-259.32236328 414.25037109 -259.95722656 413.37574219 -260.61132812 412.47460938 C-261.86173477 410.74871407 -263.1090572 409.02057934 -264.35302734 407.29003906 C-265.64999274 405.48666885 -266.95778362 403.69108401 -268.26953125 401.8984375 C-275.43392299 391.9685582 -280.62245807 380.90257112 -286.02734375 369.95629883 C-286.68952273 368.62446144 -287.35909998 367.29628261 -288.03515625 365.97143555 C-298.96455475 344.49671412 -305.46312208 319.74623216 -309 296 C-309.11569336 295.26523437 -309.23138672 294.53046875 -309.35058594 293.7734375 C-313.26111225 267.87345315 -312.44271978 239.73173983 -308 214 C-307.85546387 213.10619629 -307.71092773 212.21239258 -307.56201172 211.29150391 C-300.03521627 165.03880408 -278.75808921 121.78129222 -248.1171875 86.51171875 C-246.00465766 84.20474802 -246.00465766 84.20474802 -245 82 C-244.34 82 -243.68 82 -243 82 C-243 81.34 -243 80.68 -243 80 C-242.34 80 -241.68 80 -241 80 C-240.505 78.515 -240.505 78.515 -240 77 C-239.34 77 -238.68 77 -238 77 C-238 76.34 -238 75.68 -238 75 C-237.34 75 -236.68 75 -236 75 C-235.731875 74.360625 -235.46375 73.72125 -235.1875 73.0625 C-234 71 -234 71 -231 70 C-231 69.34 -231 68.68 -231 68 C-230.34 68 -229.68 68 -229 68 C-228.61328125 67.11054688 -228.61328125 67.11054688 -228.21875 66.203125 C-226.90230105 63.82339035 -225.57419218 62.49021208 -223.5 60.75 C-222.8915625 60.22921875 -222.283125 59.7084375 -221.65625 59.171875 C-220 58 -220 58 -218 58 C-218 57.34 -218 56.68 -218 56 C-215.9375 54.22265625 -215.9375 54.22265625 -213 52.0625 C-212.47325684 51.67425049 -211.94651367 51.28600098 -211.40380859 50.88598633 C-204.97063401 46.18310747 -198.39588826 41.67241687 -191.79003906 37.21630859 C-190.61681675 36.41911907 -189.45166951 35.60988407 -188.29589844 34.78759766 C-184.32201087 32 -184.32201087 32 -181 32 C-181 31.34 -181 30.68 -181 30 C-123.65610604 0.60724988 -64.18779297 -11.21477542 0 0 Z M-102.1875 30.3125 C-103.49853317 30.62614763 -104.80956835 30.93978685 -106.12060547 31.25341797 C-114.92575443 33.39796387 -123.53877002 35.72539411 -132 39 C-133.42699219 39.54527344 -133.42699219 39.54527344 -134.8828125 40.1015625 C-141.34697778 42.69075132 -147.63894735 45.66083472 -153.9375 48.625 C-154.75508789 49.00946289 -155.57267578 49.39392578 -156.41503906 49.79003906 C-162.38626436 52.57772732 -162.38626436 52.57772732 -168 56 C-168 56.66 -168 57.32 -168 58 C-168.52207031 58.07992187 -169.04414063 58.15984375 -169.58203125 58.2421875 C-172.96969524 59.30391095 -175.74471713 61.19111472 -178.6875 63.125 C-179.31035889 63.53024902 -179.93321777 63.93549805 -180.57495117 64.35302734 C-184.8318972 67.15351922 -188.92225518 70.10072363 -192.890625 73.30078125 C-194.4211777 74.53372648 -195.97688018 75.7356567 -197.546875 76.91796875 C-198.37703125 77.54316406 -199.2071875 78.16835937 -200.0625 78.8125 C-200.81660156 79.37582031 -201.57070312 79.93914062 -202.34765625 80.51953125 C-203.16556641 81.25236328 -203.16556641 81.25236328 -204 82 C-204 82.66 -204 83.32 -204 84 C-204.721875 84.20625 -205.44375 84.4125 -206.1875 84.625 C-209.20277805 86.09913594 -210.71333917 87.80037875 -212.75390625 90.42578125 C-215.10754886 93.39919182 -217.91016918 95.95923739 -220.6484375 98.57421875 C-222.13386989 100.01432104 -223.57067488 101.50419464 -225 103 C-225 103.66 -225 104.32 -225 105 C-225.66 105 -226.32 105 -227 105 C-232.94869162 111.32777491 -237.79999225 118.80929651 -242.80078125 125.8984375 C-244.08444392 127.70878947 -245.40106098 129.49804959 -246.79296875 131.2265625 C-248.28132931 133.05580661 -248.28132931 133.05580661 -248 136 C-248.66 136 -249.32 136 -250 136 C-250.84114171 137.43294498 -251.67265687 138.87154405 -252.5 140.3125 C-252.9640625 141.11300781 -253.428125 141.91351563 -253.90625 142.73828125 C-255.21767886 145.0314118 -255.21767886 145.0314118 -255 148 C-255.66 148 -256.32 148 -257 148 C-261.8350171 157.15506196 -265.84472891 166.33138369 -269.30908203 176.08007812 C-269.95286374 177.86901782 -270.6294813 179.64604663 -271.30859375 181.421875 C-275.06941257 191.4038614 -277.621114 201.61344657 -280 212 C-280.226875 212.98484375 -280.45375 213.9696875 -280.6875 214.984375 C-281.23114989 217.65165729 -281.64039755 220.30123596 -282 223 C-282.13317627 223.98734131 -282.13317627 223.98734131 -282.26904297 224.99462891 C-287.04408061 261.9951314 -283.31251617 297.21349442 -272.67871094 332.73095703 C-272.11106974 334.6286755 -271.55769508 336.53065364 -271.0078125 338.43359375 C-268.55209053 346.4418552 -264.81762071 353.7038057 -260.96972656 361.11181641 C-259.59902105 363.78075812 -258.30594638 366.48640325 -257 369.1875 C-251.90472626 379.36423915 -245.60495346 388.75604708 -239 398 C-237.19062768 400.62227872 -235.3821539 403.2451358 -233.578125 405.87109375 C-232.15693558 407.78829235 -230.81344905 409.45059711 -229 411 C-228.34 411 -227.68 411 -227 411 C-226.75894531 411.55816406 -226.51789063 412.11632812 -226.26953125 412.69140625 C-223.68945781 417.38317056 -219.63520861 421.10693057 -216 425 C-215.46117187 425.58136719 -214.92234375 426.16273438 -214.3671875 426.76171875 C-213.2905088 427.88675129 -212.15224974 428.95250023 -211 430 C-210.34 430 -209.68 430 -209 430 C-209 430.66 -209 431.32 -209 432 C-207.43059199 433.43812673 -205.79125965 434.8003005 -204.125 436.125 C-202.63033203 437.31802734 -202.63033203 437.31802734 -201.10546875 438.53515625 C-200.08066406 439.34855469 -199.05585938 440.16195313 -198 441 C-196.57107422 442.17369141 -196.57107422 442.17369141 -195.11328125 443.37109375 C-194.23027344 444.09425781 -193.34726563 444.81742187 -192.4375 445.5625 C-191.63183594 446.22378906 -190.82617188 446.88507813 -189.99609375 447.56640625 C-188.13885027 449.19444708 -188.13885027 449.19444708 -186 449 C-186 449.66 -186 450.32 -186 451 C-184.2427997 452.39023163 -184.2427997 452.39023163 -181.93359375 453.7578125 C-180.62708862 454.56714233 -180.62708862 454.56714233 -179.29418945 455.39282227 C-178.35148193 455.96444092 -177.40877441 456.53605957 -176.4375 457.125 C-175.00506958 458.00079712 -175.00506958 458.00079712 -173.54370117 458.89428711 C-163.52428676 464.97249096 -153.44278995 470.95114127 -142.4375 475.078125 C-139.69097963 476.11687309 -137.00915525 477.27564322 -134.3125 478.4375 C-123.57168435 482.88338192 -112.83613398 486.18921943 -101.5 488.6875 C-100.58758545 488.88988281 -99.6751709 489.09226562 -98.73510742 489.30078125 C-95.83049706 489.91600187 -92.92169778 490.47183886 -90 491 C-88.94997803 491.19126465 -87.89995605 491.3825293 -86.81811523 491.57958984 C-75.69740351 493.33586144 -64.61937238 493.30390339 -53.38500977 493.26074219 C-50.07224173 493.2500315 -46.76001716 493.26068577 -43.44726562 493.2734375 C-28.04644422 493.28460989 -13.35869991 492.32735517 1.6875 488.8125 C3.05672607 488.49647827 3.05672607 488.49647827 4.45361328 488.17407227 C11.19422793 486.55972338 17.79522757 484.61318799 24.375 482.4375 C25.22408936 482.15688721 26.07317871 481.87627441 26.94799805 481.5871582 C31.54260918 480.0101496 35.82861472 478.16840693 40.13769531 475.93041992 C43.93533396 474.03309416 47.96736337 472.70054392 51.94921875 471.24609375 C54.88679073 470.0462404 57.31667458 468.68632788 60 467 C61.4434983 466.15314999 62.88904254 465.30978345 64.3359375 464.46875 C75.02586234 458.19307273 85.19743757 451.58556185 95 444 C96.03769531 443.20980469 97.07539063 442.41960937 98.14453125 441.60546875 C101.66263692 438.90857722 101.66263692 438.90857722 105 436 C105 435.34 105 434.68 105 434 C105.721875 433.79375 106.44375 433.5875 107.1875 433.375 C110.19954245 431.90244591 111.70921024 430.20635452 113.74609375 427.58203125 C116.28921849 424.37341592 119.34347689 421.62103538 122.3125 418.8125 C124.22713951 417.16877727 124.22713951 417.16877727 124 415 C124.66 415 125.32 415 126 415 C126 414.34 126 413.68 126 413 C126.66 413 127.32 413 128 413 C129.56744225 411.18103081 131.00835737 409.36160052 132.4375 407.4375 C132.87416992 406.85758301 133.31083984 406.27766602 133.76074219 405.68017578 C134.69563305 404.43509225 135.62732789 403.18760384 136.55615234 401.93798828 C137.99146551 400.01145533 139.44188913 398.09708082 140.89453125 396.18359375 C146.25484976 389.06995117 151.03124854 382.00100295 155 374 C155.66477241 372.68199282 156.33018347 371.36430765 156.99609375 370.046875 C158.68796914 366.68827215 160.36552953 363.32293207 162.02954102 359.95043945 C162.68287465 358.63736212 163.34501547 357.32863424 164.01538086 356.02416992 C170.3432849 343.65771537 174.32412461 330.4707411 177.8125 317.0625 C178.10229736 315.95028076 178.39209473 314.83806152 178.69067383 313.69213867 C181.5841661 302.23493201 183.27507736 290.90499773 184.125 279.125 C184.2084668 277.97515625 184.29193359 276.8253125 184.37792969 275.640625 C185.87386869 254.09910334 185.08243569 232.05916639 180 211 C179.69543417 209.61642956 179.39347223 208.23228404 179.09375 206.84765625 C177.0034968 197.34767531 174.39368448 188.12690713 171 179 C170.70528809 178.19997559 170.41057617 177.39995117 170.10693359 176.57568359 C164.48342319 161.53343004 157.22388204 147.77334264 149 134 C148.48808105 133.07711182 147.97616211 132.15422363 147.44873047 131.20336914 C146.73160889 130.11270142 146.73160889 130.11270142 146 129 C145.34 129 144.68 129 144 129 C143.5978125 127.9171875 143.5978125 127.9171875 143.1875 126.8125 C142.00098638 124.00233617 140.72514361 121.51583443 139 119 C138.34 119 137.68 119 137 119 C136.74992187 118.2678125 136.49984375 117.535625 136.2421875 116.78125 C134.89832773 113.77235644 133.36582868 111.90149187 131.125 109.5 C128.84401935 107.02480542 126.69033375 104.60069352 124.625 101.9375 C123.820625 100.9784375 123.820625 100.9784375 123 100 C122.34 100 121.68 100 121 100 C121 99.34 121 98.68 121 98 C120.34 98 119.68 98 119 98 C119 97.34 119 96.68 119 96 C118.34 96 117.68 96 117 96 C116.5978125 95.0409375 116.5978125 95.0409375 116.1875 94.0625 C115.11332248 91.66868314 115.11332248 91.66868314 112 91 C112 90.34 112 89.68 112 89 C111.34 89 110.68 89 110 89 C109.67 88.01 109.34 87.02 109 86 C108.34 86 107.68 86 107 86 C107 85.34 107 84.68 107 84 C104.78581383 82.1084693 102.56433016 80.32350321 100.25 78.5625 C99.29867187 77.82676758 99.29867187 77.82676758 98.328125 77.07617188 C97.10041885 76.12853619 95.86940832 75.18516245 94.63476562 74.24658203 C93.30208534 73.2303536 91.98463304 72.19418025 90.671875 71.15234375 C89.06396616 69.81083061 89.06396616 69.81083061 87 70 C87 69.34 87 68.68 87 68 C84.96545146 66.44726453 84.96545146 66.44726453 82.3125 64.875 C81.29800781 64.25109375 80.28351563 63.6271875 79.23828125 62.984375 C78.16964844 62.32953125 77.10101563 61.6746875 76 61 C75.02417969 60.36578125 74.04835938 59.7315625 73.04296875 59.078125 C37.74800813 36.42410663 -5.2645954 24.52417647 -47.03173828 24.73925781 C-49.49927311 24.74999684 -51.96608037 24.73926905 -54.43359375 24.7265625 C-70.75923008 24.70903975 -86.31712758 26.44285276 -102.1875 30.3125 Z " fill="#FEFEFE" transform="translate(345,40)"/>
</svg>
