<svg width="18" height="18" viewBox="0 0 18 18" fill="none" xmlns="http://www.w3.org/2000/svg">
<path fill-rule="evenodd" clip-rule="evenodd" d="M9 16.2008C12.9765 16.2008 16.2 12.9772 16.2 9.00078C16.2 5.02433 12.9765 1.80078 9 1.80078C5.02355 1.80078 1.8 5.02433 1.8 9.00078C1.8 12.9772 5.02355 16.2008 9 16.2008ZM12.4709 7.3728C12.6902 7.07131 12.6235 6.64915 12.322 6.42988C12.0205 6.21062 11.5984 6.27727 11.3791 6.57877L8.24373 10.8899L6.5523 9.19848C6.2887 8.93488 5.86131 8.93488 5.59771 9.19848C5.3341 9.46209 5.3341 9.88947 5.59771 10.1531L7.84771 12.4031C7.9873 12.5427 8.181 12.6142 8.3778 12.5987C8.57461 12.5833 8.75479 12.4825 8.8709 12.3228L12.4709 7.3728Z" fill="#00D02E"/>
</svg>
