<svg width="18" height="18" viewBox="0 0 18 18" fill="none" xmlns="http://www.w3.org/2000/svg">
<path fill-rule="evenodd" clip-rule="evenodd" d="M9.00005 16.1998C12.9765 16.1998 16.2 12.9763 16.2 8.9998C16.2 5.02335 12.9765 1.7998 9.00005 1.7998C5.0236 1.7998 1.80005 5.02335 1.80005 8.9998C1.80005 12.9763 5.0236 16.1998 9.00005 16.1998ZM12.4709 7.37182C12.6902 7.07033 12.6236 6.64817 12.3221 6.42891C12.0206 6.20964 11.5984 6.2763 11.3792 6.57779L8.24377 10.8889L6.55235 9.19751C6.28874 8.9339 5.86136 8.9339 5.59775 9.19751C5.33415 9.46111 5.33415 9.8885 5.59775 10.1521L7.84775 12.4021C7.98734 12.5417 8.18104 12.6132 8.37785 12.5977C8.57465 12.5823 8.75484 12.4815 8.87095 12.3218L12.4709 7.37182Z" fill="white"/>
</svg>
