<svg width="18" height="18" viewBox="0 0 18 18" fill="none" xmlns="http://www.w3.org/2000/svg">
<path fill-rule="evenodd" clip-rule="evenodd" d="M1.6875 9C1.6875 4.96142 4.96142 1.6875 9 1.6875C13.0386 1.6875 16.3125 4.96142 16.3125 9C16.3125 13.0386 13.0386 16.3125 9 16.3125C4.96142 16.3125 1.6875 13.0386 1.6875 9ZM9 6.1875C9.31066 6.1875 9.5625 6.43934 9.5625 6.75V9.5625C9.5625 9.87316 9.31066 10.125 9 10.125C8.68934 10.125 8.4375 9.87316 8.4375 9.5625V6.75C8.4375 6.43934 8.68934 6.1875 9 6.1875ZM9 12.375C9.31066 12.375 9.5625 12.1232 9.5625 11.8125C9.5625 11.5018 9.31066 11.25 9 11.25C8.68934 11.25 8.4375 11.5018 8.4375 11.8125C8.4375 12.1232 8.68934 12.375 9 12.375Z" fill="white"/>
</svg>
