<svg width="52" height="52" viewBox="0 0 52 52" fill="none" xmlns="http://www.w3.org/2000/svg">
<rect width="52" height="52" rx="26" fill="#0821AF" fill-opacity="0.1"/>
<path fill-rule="evenodd" clip-rule="evenodd" d="M29.75 15.5C26.0221 15.5 23 18.5221 23 22.25C23 22.6437 23.0338 23.0302 23.0988 23.4064C23.166 23.7953 23.0668 24.1226 22.8777 24.3117L16.3787 30.8107C15.8161 31.3733 15.5 32.1363 15.5 32.932V35.75C15.5 36.1642 15.8358 36.5 16.25 36.5H20C20.4142 36.5 20.75 36.1642 20.75 35.75V34.25H22.25C22.6642 34.25 23 33.9142 23 33.5V32H24.5C24.6989 32 24.8897 31.921 25.0303 31.7803L27.6883 29.1223C27.8774 28.9332 28.2047 28.834 28.5936 28.9012C28.9698 28.9662 29.3563 29 29.75 29C33.4779 29 36.5 25.9779 36.5 22.25C36.5 18.5221 33.4779 15.5 29.75 15.5ZM29.75 18.5C29.3358 18.5 29 18.8358 29 19.25C29 19.6642 29.3358 20 29.75 20C30.9926 20 32 21.0074 32 22.25C32 22.6642 32.3358 23 32.75 23C33.1642 23 33.5 22.6642 33.5 22.25C33.5 20.1789 31.8211 18.5 29.75 18.5Z" fill="#0821AF"/>
</svg>
