<svg width="18" height="18" viewBox="0 0 18 18" fill="none" xmlns="http://www.w3.org/2000/svg">
<path fill-rule="evenodd" clip-rule="evenodd" d="M9 1.6875C9.31066 1.6875 9.5625 1.93934 9.5625 2.25V11.017L11.9773 8.60225C12.1969 8.38258 12.5531 8.38258 12.7727 8.60225C12.9924 8.82192 12.9924 9.17808 12.7727 9.39775L9.39775 12.7727C9.17808 12.9924 8.82192 12.9924 8.60225 12.7727L5.22725 9.39775C5.00758 9.17808 5.00758 8.82192 5.22725 8.60225C5.44692 8.38258 5.80308 8.38258 6.02275 8.60225L8.4375 11.017V2.25C8.4375 1.93934 8.68934 1.6875 9 1.6875ZM2.25 11.8125C2.56066 11.8125 2.8125 12.0643 2.8125 12.375V14.0625C2.8125 14.6838 3.31618 15.1875 3.9375 15.1875H14.0625C14.6838 15.1875 15.1875 14.6838 15.1875 14.0625V12.375C15.1875 12.0643 15.4393 11.8125 15.75 11.8125C16.0607 11.8125 16.3125 12.0643 16.3125 12.375V14.0625C16.3125 15.3051 15.3051 16.3125 14.0625 16.3125H3.9375C2.69486 16.3125 1.6875 15.3051 1.6875 14.0625V12.375C1.6875 12.0643 1.93934 11.8125 2.25 11.8125Z" fill="#75757D"/>
</svg>
