<svg width="18" height="18" viewBox="0 0 18 18" fill="none" xmlns="http://www.w3.org/2000/svg">
<path fill-rule="evenodd" clip-rule="evenodd" d="M5.18384 2.25C4.19608 2.25 3.32383 2.89423 3.03334 3.83831L1.2245 9.71705C1.15854 9.93142 1.125 10.1545 1.125 10.3787V13.5C1.125 14.7426 2.13236 15.75 3.375 15.75H14.625C15.8676 15.75 16.875 14.7426 16.875 13.5V10.3787C16.875 10.1545 16.8415 9.93142 16.7755 9.71705L14.9667 3.83831C14.6762 2.89423 13.8039 2.25 12.8162 2.25H5.18384ZM15.5509 9.5625L13.8914 4.16915C13.7462 3.69711 13.31 3.375 12.8162 3.375H5.18384C4.68996 3.375 4.25384 3.69711 4.10859 4.16915L2.4491 9.5625H4.58207C5.4343 9.5625 6.2134 10.044 6.59453 10.8063L6.7867 11.1906C6.97727 11.5717 7.36681 11.8125 7.79293 11.8125H10.2071C10.6332 11.8125 11.0227 11.5717 11.2133 11.1906L11.4055 10.8063C11.7866 10.044 12.5657 9.5625 13.4179 9.5625H15.5509Z" fill="white"/>
</svg>
