<svg width="24" height="24" viewBox="0 0 24 24" fill="none" xmlns="http://www.w3.org/2000/svg">
<path d="M6.51966 16.7007L8.03381 12.9154C8.27523 12.3118 8.63673 11.7636 9.09638 11.3039L17.3994 3.00144C18.3935 2.00733 20.0053 2.00733 20.9994 3.00145C21.9935 3.99556 21.9935 5.60733 20.9994 6.60144L12.6964 14.9039C12.2367 15.3636 11.6885 15.7251 11.0849 15.9665L7.29958 17.4806C6.8098 17.6765 6.32375 17.1905 6.51966 16.7007Z" fill="#2F3038"/>
<path d="M4.19999 6.90059C4.19999 6.07216 4.87157 5.40059 5.69999 5.40059H12C12.4971 5.40059 12.9 4.99764 12.9 4.50059C12.9 4.00353 12.4971 3.60059 12 3.60059H5.69999C3.87745 3.60059 2.39999 5.07805 2.39999 6.90059V18.3006C2.39999 20.1231 3.87745 21.6006 5.69999 21.6006H17.1C18.9225 21.6006 20.4 20.1231 20.4 18.3006V12.0006C20.4 11.5035 19.9971 11.1006 19.5 11.1006C19.0029 11.1006 18.6 11.5035 18.6 12.0006V18.3006C18.6 19.129 17.9284 19.8006 17.1 19.8006H5.69999C4.87157 19.8006 4.19999 19.129 4.19999 18.3006V6.90059Z" fill="#2F3038"/>
</svg>
