<svg width="18" height="18" viewBox="0 0 18 18" fill="none" xmlns="http://www.w3.org/2000/svg">
<path fill-rule="evenodd" clip-rule="evenodd" d="M2.95254 1.99751C2.68894 1.7339 2.26155 1.7339 1.99795 1.99751C1.73434 2.26111 1.73434 2.6885 1.99795 2.9521L15.0479 16.0021C15.3115 16.2657 15.7389 16.2657 16.0025 16.0021C16.2661 15.7385 16.2661 15.3111 16.0025 15.0475L14.4319 13.4768C15.756 12.4732 16.7938 11.1116 17.4012 9.53614C17.5335 9.19274 17.5337 8.81195 17.4015 8.46847C16.103 5.09426 12.8306 2.6998 8.99898 2.6998C7.45411 2.6998 6.00015 3.08904 4.72983 3.7748L2.95254 1.99751ZM6.97699 6.02195L7.95955 7.00451C8.2708 6.84181 8.62486 6.7498 9.00041 6.7498C10.243 6.7498 11.2504 7.75716 11.2504 8.9998C11.2504 9.37535 11.1584 9.72941 10.9957 10.0407L11.9784 11.0234C12.3711 10.4467 12.6006 9.75007 12.6006 8.9998C12.6006 7.01158 10.9888 5.3998 9.00058 5.3998C8.25032 5.3998 7.55366 5.62931 6.97699 6.02195Z" fill="#AAAAB5"/>
<path d="M9.6738 12.537L11.9442 14.8074C11.0219 15.1265 10.0315 15.2998 9.00058 15.2998C5.16892 15.2998 1.89652 12.9054 0.598073 9.53115C0.465897 9.18766 0.466011 8.80688 0.598393 8.46347C1.04067 7.31619 1.71122 6.28232 2.55436 5.41753L5.46342 8.32659C5.42216 8.54468 5.40058 8.76972 5.40058 8.9998C5.40058 10.988 7.01235 12.5998 9.00058 12.5998C9.23066 12.5998 9.45571 12.5782 9.6738 12.537Z" fill="#AAAAB5"/>
</svg>
