<svg width="18" height="18" viewBox="0 0 18 18" fill="none" xmlns="http://www.w3.org/2000/svg">
<path fill-rule="evenodd" clip-rule="evenodd" d="M2.36503 1.4413C4.52427 1.08543 6.74068 0.900391 8.9998 0.900391C11.2589 0.900391 13.4753 1.08543 15.6346 1.4413C15.9606 1.49504 16.1998 1.77689 16.1998 2.10732V4.1662C16.1998 4.70327 15.9865 5.21833 15.6067 5.59809L11.3929 9.81188C11.0132 10.1916 10.7998 10.7067 10.7998 11.2438V13.9765C10.7998 14.5917 10.5202 15.1735 10.0398 15.5578L8.29647 16.9525C8.09386 17.1146 7.81627 17.1462 7.5824 17.0338C7.34854 16.9214 7.1998 16.6849 7.1998 16.4254V11.2438C7.1998 10.7067 6.98646 10.1916 6.6067 9.81188L2.39291 5.59809C2.01315 5.21833 1.7998 4.70327 1.7998 4.1662V2.10732C1.7998 1.77689 2.03901 1.49504 2.36503 1.4413Z" fill="#AAAAB5"/>
</svg>
