<svg width="18" height="18" viewBox="0 0 18 18" fill="none" xmlns="http://www.w3.org/2000/svg">
<path d="M3.375 2.69922C2.50515 2.69922 1.8 3.40437 1.8 4.27422V7.20904C2.25464 6.91797 2.79511 6.74922 3.375 6.74922H14.625C15.2049 6.74922 15.7454 6.91797 16.2 7.20904V6.07422C16.2 5.20437 15.4949 4.49922 14.625 4.49922H10.2728C10.2131 4.49922 10.1559 4.47551 10.1137 4.43332L8.8409 3.16053C8.54553 2.86516 8.14493 2.69922 7.72721 2.69922H3.375Z" fill="#AAAAB5"/>
<path d="M3.375 8.09922C2.50515 8.09922 1.8 8.80437 1.8 9.67422V13.7242C1.8 14.5941 2.50515 15.2992 3.375 15.2992H14.625C15.4949 15.2992 16.2 14.5941 16.2 13.7242V9.67422C16.2 8.80437 15.4949 8.09922 14.625 8.09922H3.375Z" fill="#AAAAB5"/>
</svg>
