<svg width="18" height="18" viewBox="0 0 18 18" fill="none" xmlns="http://www.w3.org/2000/svg">
<path fill-rule="evenodd" clip-rule="evenodd" d="M5.39999 4.275C5.39999 3.90221 5.7022 3.6 6.07499 3.6H15.525C15.8978 3.6 16.2 3.90221 16.2 4.275C16.2 4.64779 15.8978 4.95 15.525 4.95H6.07499C5.7022 4.95 5.39999 4.64779 5.39999 4.275ZM5.39999 9C5.39999 8.62721 5.7022 8.325 6.07499 8.325H15.525C15.8978 8.325 16.2 8.62721 16.2 9C16.2 9.37279 15.8978 9.675 15.525 9.675H6.07499C5.7022 9.675 5.39999 9.37279 5.39999 9ZM5.39999 13.725C5.39999 13.3522 5.7022 13.05 6.07499 13.05H15.525C15.8978 13.05 16.2 13.3522 16.2 13.725C16.2 14.0978 15.8978 14.4 15.525 14.4H6.07499C5.7022 14.4 5.39999 14.0978 5.39999 13.725Z" fill="#75757D"/>
<path fill-rule="evenodd" clip-rule="evenodd" d="M1.79099 4.275C1.79099 3.77794 2.19393 3.375 2.69099 3.375H2.69999C3.19704 3.375 3.59999 3.77794 3.59999 4.275V4.284C3.59999 4.78106 3.19704 5.184 2.69999 5.184H2.69099C2.19393 5.184 1.79099 4.78106 1.79099 4.284V4.275Z" fill="#75757D"/>
<path fill-rule="evenodd" clip-rule="evenodd" d="M1.79099 13.725C1.79099 13.2279 2.19393 12.825 2.69099 12.825H2.69999C3.19704 12.825 3.59999 13.2279 3.59999 13.725V13.734C3.59999 14.2311 3.19704 14.634 2.69999 14.634H2.69099C2.19393 14.634 1.79099 14.2311 1.79099 13.734V13.725Z" fill="#75757D"/>
<path fill-rule="evenodd" clip-rule="evenodd" d="M1.79099 9C1.79099 8.50294 2.19393 8.1 2.69099 8.1H2.69999C3.19704 8.1 3.59999 8.50294 3.59999 9V9.009C3.59999 9.50606 3.19704 9.909 2.69999 9.909H2.69099C2.19393 9.909 1.79099 9.50606 1.79099 9.009V9Z" fill="#75757D"/>
</svg>
