<svg width="18" height="18" viewBox="0 0 18 18" fill="none" xmlns="http://www.w3.org/2000/svg">
<path fill-rule="evenodd" clip-rule="evenodd" d="M0.899902 5.4002C0.899902 3.90903 2.10873 2.7002 3.5999 2.7002H14.3999C15.8911 2.7002 17.0999 3.90903 17.0999 5.4002V12.6002C17.0999 14.0914 15.8911 15.3002 14.3999 15.3002H3.5999C2.10873 15.3002 0.899902 14.0914 0.899902 12.6002V5.4002ZM4.4999 6.7502C4.4999 5.75608 5.30579 4.9502 6.2999 4.9502C7.29402 4.9502 8.0999 5.75608 8.0999 6.7502C8.0999 7.74431 7.29402 8.5502 6.2999 8.5502C5.30579 8.5502 4.4999 7.74431 4.4999 6.7502ZM6.29979 9.4502C4.82415 9.4502 3.55735 10.3379 3.00149 11.6057C2.92754 11.7744 2.92571 11.9659 2.99642 12.1359C3.06712 12.306 3.20423 12.4397 3.37595 12.5062C4.2838 12.8577 5.27012 13.0502 6.29979 13.0502C7.32946 13.0502 8.31578 12.8577 9.22363 12.5062C9.39535 12.4397 9.53246 12.306 9.60316 12.1359C9.67387 11.9659 9.67203 11.7744 9.59809 11.6057C9.04223 10.3379 7.77543 9.4502 6.29979 9.4502ZM10.7999 6.0752C10.7999 5.7024 11.1021 5.4002 11.4749 5.4002H13.7249C14.0977 5.4002 14.3999 5.7024 14.3999 6.0752C14.3999 6.44799 14.0977 6.7502 13.7249 6.7502H11.4749C11.1021 6.7502 10.7999 6.44799 10.7999 6.0752ZM10.7999 11.9252C10.7999 11.5524 11.1021 11.2502 11.4749 11.2502H13.7249C14.0977 11.2502 14.3999 11.5524 14.3999 11.9252C14.3999 12.298 14.0977 12.6002 13.7249 12.6002H11.4749C11.1021 12.6002 10.7999 12.298 10.7999 11.9252ZM11.4749 8.3252C11.1021 8.3252 10.7999 8.6274 10.7999 9.0002C10.7999 9.37299 11.1021 9.6752 11.4749 9.6752L13.7249 9.6752C14.0977 9.6752 14.3999 9.37299 14.3999 9.0002C14.3999 8.6274 14.0977 8.3252 13.7249 8.3252L11.4749 8.3252Z" fill="white"/>
</svg>
