<svg width="24" height="24" viewBox="0 0 24 24" fill="none" xmlns="http://www.w3.org/2000/svg">
<path fill-rule="evenodd" clip-rule="evenodd" d="M2.3999 5.6998C2.3999 5.20275 2.80285 4.7998 3.2999 4.7998H20.6999C21.197 4.7998 21.5999 5.20275 21.5999 5.6998C21.5999 6.19686 21.197 6.5998 20.6999 6.5998H3.2999C2.80285 6.5998 2.3999 6.19686 2.3999 5.6998ZM2.3999 11.9998C2.3999 11.5027 2.80285 11.0998 3.2999 11.0998H20.6999C21.197 11.0998 21.5999 11.5027 21.5999 11.9998C21.5999 12.4969 21.197 12.8998 20.6999 12.8998H3.2999C2.80285 12.8998 2.3999 12.4969 2.3999 11.9998ZM2.3999 18.2998C2.3999 17.8027 2.80285 17.3998 3.2999 17.3998H20.6999C21.197 17.3998 21.5999 17.8027 21.5999 18.2998C21.5999 18.7969 21.197 19.1998 20.6999 19.1998H3.2999C2.80285 19.1998 2.3999 18.7969 2.3999 18.2998Z" fill="#AAAAB5"/>
</svg>
