<svg width="24" height="24" viewBox="0 0 24 24" fill="none" xmlns="http://www.w3.org/2000/svg">
<path fill-rule="evenodd" clip-rule="evenodd" d="M7.2 5.7C7.2 5.20294 7.60294 4.8 8.1 4.8H20.7C21.1971 4.8 21.6 5.20294 21.6 5.7C21.6 6.19706 21.1971 6.6 20.7 6.6H8.1C7.60294 6.6 7.2 6.19706 7.2 5.7ZM7.2 12C7.2 11.5029 7.60294 11.1 8.1 11.1H20.7C21.1971 11.1 21.6 11.5029 21.6 12C21.6 12.4971 21.1971 12.9 20.7 12.9H8.1C7.60294 12.9 7.2 12.4971 7.2 12ZM7.2 18.3C7.2 17.8029 7.60294 17.4 8.1 17.4H20.7C21.1971 17.4 21.6 17.8029 21.6 18.3C21.6 18.7971 21.1971 19.2 20.7 19.2H8.1C7.60294 19.2 7.2 18.7971 7.2 18.3Z" fill="#2F3038"/>
<path fill-rule="evenodd" clip-rule="evenodd" d="M2.38799 5.7C2.38799 5.03726 2.92524 4.5 3.58799 4.5H3.59999C4.26273 4.5 4.79999 5.03726 4.79999 5.7V5.712C4.79999 6.37474 4.26273 6.912 3.59999 6.912H3.58799C2.92524 6.912 2.38799 6.37474 2.38799 5.712V5.7Z" fill="#2F3038"/>
<path fill-rule="evenodd" clip-rule="evenodd" d="M2.38799 18.3C2.38799 17.6373 2.92524 17.1 3.58799 17.1H3.59999C4.26273 17.1 4.79999 17.6373 4.79999 18.3V18.312C4.79999 18.9747 4.26273 19.512 3.59999 19.512H3.58799C2.92524 19.512 2.38799 18.9747 2.38799 18.312V18.3Z" fill="#2F3038"/>
<path fill-rule="evenodd" clip-rule="evenodd" d="M2.38799 12C2.38799 11.3373 2.92524 10.8 3.58799 10.8H3.59999C4.26273 10.8 4.79999 11.3373 4.79999 12V12.012C4.79999 12.6747 4.26273 13.212 3.59999 13.212H3.58799C2.92524 13.212 2.38799 12.6747 2.38799 12.012V12Z" fill="#2F3038"/>
</svg>
