<svg width="24" height="24" viewBox="0 0 24 24" fill="none" xmlns="http://www.w3.org/2000/svg">
<path d="M12.0002 3.59961C12.9943 3.59961 13.8002 4.4055 13.8002 5.39961C13.8002 6.39372 12.9943 7.19961 12.0002 7.19961C11.0061 7.19961 10.2002 6.39372 10.2002 5.39961C10.2002 4.4055 11.0061 3.59961 12.0002 3.59961Z" fill="#AAAAB5"/>
<path d="M12.0002 10.1996C12.9943 10.1996 13.8002 11.0055 13.8002 11.9996C13.8002 12.9937 12.9943 13.7996 12.0002 13.7996C11.0061 13.7996 10.2002 12.9937 10.2002 11.9996C10.2002 11.0055 11.0061 10.1996 12.0002 10.1996Z" fill="#AAAAB5"/>
<path d="M13.8002 18.5996C13.8002 17.6055 12.9943 16.7996 12.0002 16.7996C11.0061 16.7996 10.2002 17.6055 10.2002 18.5996C10.2002 19.5937 11.0061 20.3996 12.0002 20.3996C12.9943 20.3996 13.8002 19.5937 13.8002 18.5996Z" fill="#AAAAB5"/>
</svg>
