<svg width="18" height="18" viewBox="0 0 18 18" fill="none" xmlns="http://www.w3.org/2000/svg">
<path d="M3.375 2.7002C2.50515 2.7002 1.8 3.40535 1.8 4.2752V7.21001C2.25464 6.91894 2.79511 6.7502 3.375 6.7502H14.625C15.2049 6.7502 15.7454 6.91894 16.2 7.21001V6.0752C16.2 5.20535 15.4949 4.5002 14.625 4.5002H10.2728C10.2131 4.5002 10.1559 4.47649 10.1137 4.43429L8.8409 3.1615C8.54553 2.86613 8.14493 2.7002 7.72721 2.7002H3.375Z" fill="#75757D"/>
<path d="M3.375 8.1002C2.50515 8.1002 1.8 8.80535 1.8 9.6752V13.7252C1.8 14.595 2.50515 15.3002 3.375 15.3002H14.625C15.4949 15.3002 16.2 14.595 16.2 13.7252V9.6752C16.2 8.80535 15.4949 8.1002 14.625 8.1002H3.375Z" fill="#75757D"/>
</svg>
