<svg width="24" height="24" viewBox="0 0 24 24" fill="none" xmlns="http://www.w3.org/2000/svg">
<path fill-rule="evenodd" clip-rule="evenodd" d="M12.0002 2.40039C8.0237 2.40039 4.80015 5.62394 4.80015 9.60039C4.80015 11.8643 4.25568 13.9985 3.29132 15.8816C3.16329 16.1316 3.15932 16.427 3.28057 16.6803C3.40183 16.9337 3.63441 17.1159 3.90942 17.173C5.19064 17.439 6.49437 17.6431 7.81731 17.782C8.01013 19.9228 9.80925 21.6004 12.0002 21.6004C14.1911 21.6004 15.9903 19.9228 16.1831 17.782C17.506 17.6431 18.8097 17.439 20.0909 17.173C20.3659 17.1159 20.5985 16.9337 20.7197 16.6803C20.841 16.427 20.837 16.1316 20.709 15.8816C19.7446 13.9985 19.2002 11.8643 19.2002 9.60039C19.2002 5.62394 15.9766 2.40039 12.0002 2.40039ZM9.65935 17.9323C10.4339 17.9775 11.2144 18.0004 12.0002 18.0004C12.7859 18.0004 13.5664 17.9775 14.341 17.9323C14.099 19.0018 13.1429 19.8004 12.0002 19.8004C10.8575 19.8004 9.90136 19.0018 9.65935 17.9323Z" fill="#AAAAB5"/>
</svg>
