<svg width="18" height="18" viewBox="0 0 18 18" fill="none" xmlns="http://www.w3.org/2000/svg">
<path fill-rule="evenodd" clip-rule="evenodd" d="M6.1875 2.8125L14.625 2.8125C14.7742 2.8125 14.9173 2.87176 15.0227 2.97725C15.1282 3.08274 15.1875 3.22582 15.1875 3.375V11.8125C15.1875 12.1232 14.9357 12.375 14.625 12.375C14.3143 12.375 14.0625 12.1232 14.0625 11.8125V4.733L3.77275 15.0227C3.55308 15.2424 3.19692 15.2424 2.97725 15.0227C2.75758 14.8031 2.75758 14.4469 2.97725 14.2273L13.267 3.9375L6.1875 3.9375C5.87684 3.9375 5.625 3.68566 5.625 3.375C5.625 3.06434 5.87684 2.8125 6.1875 2.8125Z" fill="white"/>
</svg>
