<svg width="40" height="40" viewBox="0 0 40 40" fill="none" xmlns="http://www.w3.org/2000/svg">
<path d="M8 7.33333C8 4.38781 10.3878 2 13.3333 2H28L34.6667 11V32.6667C34.6667 35.6122 32.2789 38 29.3333 38H13.3333C10.3878 38 8 35.6122 8 32.6667V7.33333Z" fill="#F8F8FC"/>
<path d="M28 2L34.6667 11C30.9848 11 28 8.01523 28 4.33333V2Z" fill="#DEDFE6"/>
<path d="M5.33333 25.333C5.33333 24.2284 6.22876 23.333 7.33333 23.333H24.6667C25.7712 23.333 26.6667 24.2284 26.6667 25.333V31.333C26.6667 32.4376 25.7712 33.333 24.6667 33.333H7.33333C6.22876 33.333 5.33333 32.4376 5.33333 31.333V25.333Z" fill="#FA4E4E"/>
<path d="M9.44533 31.4463C9.37066 31.4463 9.33333 31.4059 9.33333 31.325V25.4543C9.33333 25.3735 9.37066 25.333 9.44533 25.333H11.088C11.8222 25.333 12.3604 25.5072 12.7027 25.8557C13.0449 26.2041 13.216 26.7237 13.216 27.4143C13.216 28.0801 13.0387 28.5903 12.684 28.945C12.3293 29.2997 11.8036 29.477 11.1067 29.477H10.7893V31.325C10.7893 31.4059 10.7489 31.4463 10.668 31.4463H9.44533ZM10.7893 28.2077H11.0787C11.3089 28.2077 11.48 28.1455 11.592 28.021C11.704 27.8903 11.76 27.6912 11.76 27.4237C11.76 27.1312 11.704 26.9228 11.592 26.7983C11.4862 26.6739 11.3182 26.6117 11.088 26.6117H10.7893V28.2077Z" fill="white"/>
<path d="M13.9848 31.4463C13.8977 31.4463 13.8542 31.4059 13.8542 31.325V25.4543C13.8542 25.3735 13.8946 25.333 13.9755 25.333H15.7675C16.5951 25.333 17.2173 25.557 17.6342 26.005C18.0511 26.4468 18.2595 27.1095 18.2595 27.993V28.6837C18.2595 29.6108 18.0511 30.3046 17.6342 30.765C17.2173 31.2192 16.6044 31.4463 15.7955 31.4463H13.9848ZM15.3102 30.1677H15.7395C16.1066 30.1677 16.3742 30.0432 16.5422 29.7943C16.7164 29.5392 16.8035 29.1628 16.8035 28.665V28.0117C16.8035 27.5512 16.7164 27.2028 16.5422 26.9663C16.3679 26.7299 16.0911 26.6117 15.7115 26.6117H15.3102V30.1677Z" fill="white"/>
<path d="M19.0521 31.4463C18.9774 31.4463 18.9401 31.4059 18.9401 31.325V25.4543C18.9401 25.3735 18.9774 25.333 19.0521 25.333H22.3468C22.4214 25.333 22.4588 25.3735 22.4588 25.4543V26.4903C22.4588 26.5712 22.4214 26.6117 22.3468 26.6117H20.3961V27.8437H22.0668C22.1414 27.8437 22.1788 27.8872 22.1788 27.9743V28.973C22.1788 29.0539 22.1414 29.0943 22.0668 29.0943H20.3961V31.325C20.3961 31.4059 20.3588 31.4463 20.2841 31.4463H19.0521Z" fill="white"/>
<path d="M25.0902 17.7944C24.2403 17.7313 23.4221 17.4157 22.7612 16.8476C21.4708 17.1316 20.2432 17.5418 19.0157 18.0469C18.0401 19.7827 17.1273 20.6663 16.3404 20.6663C16.183 20.6663 15.9943 20.6349 15.8684 20.5401C15.5221 20.3824 15.3333 20.0351 15.3333 19.688C15.3333 19.4039 15.3963 18.615 18.3862 17.3209C19.0788 16.0585 19.6137 14.7646 20.0544 13.4076C19.6766 12.6502 18.8584 10.788 19.4248 9.84139C19.6137 9.49415 19.9915 9.30479 20.4007 9.33643C20.7154 9.33643 21.03 9.49415 21.2189 9.74663C21.6282 10.3147 21.5967 11.514 21.0615 13.2814C21.5652 14.2268 22.2249 15.0804 23.0129 15.8062C23.674 15.6798 24.3348 15.5852 24.9957 15.5852C26.475 15.6167 26.6954 16.311 26.6639 16.7214C26.6639 17.7944 25.6252 17.7944 25.0902 17.7944V17.7944ZM16.2776 19.751L16.3721 19.7195C16.8126 19.5618 17.1588 19.2462 17.4106 18.8358C16.9384 19.0252 16.5608 19.3408 16.2776 19.7512V19.751ZM20.4635 10.2832H20.3691C20.3376 10.2832 20.2746 10.2832 20.2432 10.3147C20.1172 10.8512 20.2117 11.4193 20.432 11.9242C20.6209 11.3878 20.6209 10.8197 20.4635 10.2832V10.2832ZM20.6839 14.8594L20.6524 14.9224L20.6209 14.8909C20.3376 15.6168 20.0228 16.3427 19.6766 17.037L19.7396 17.0055V17.0685C20.4395 16.8147 21.1543 16.6039 21.8799 16.4373L21.8484 16.4058H21.9428C21.4706 15.9323 21.03 15.3958 20.6839 14.8594V14.8594ZM24.9642 16.532C24.6809 16.532 24.4292 16.532 24.1459 16.595C24.4607 16.7529 24.7755 16.816 25.0902 16.8476C25.3105 16.8791 25.5309 16.8476 25.7196 16.7845C25.7196 16.6897 25.5937 16.532 24.9642 16.532Z" fill="#DEDFE6"/>
</svg>
