<svg width="24" height="24" viewBox="0 0 24 24" fill="none" xmlns="http://www.w3.org/2000/svg">
<path fill-rule="evenodd" clip-rule="evenodd" d="M21.6 12.0004C21.6 17.3023 17.3019 21.6004 12 21.6004C6.69806 21.6004 2.39999 17.3023 2.39999 12.0004C2.39999 6.69846 6.69806 2.40039 12 2.40039C17.3019 2.40039 21.6 6.69846 21.6 12.0004ZM15 9.00039C15 10.6572 13.6568 12.0004 12 12.0004C10.3431 12.0004 8.99999 10.6572 8.99999 9.00039C8.99999 7.34354 10.3431 6.00039 12 6.00039C13.6568 6.00039 15 7.34354 15 9.00039ZM12 14.4004C9.64959 14.4004 7.56224 15.5266 6.24814 17.2689C7.6741 18.8248 9.72312 19.8004 12 19.8004C14.2769 19.8004 16.3259 18.8248 17.7518 17.2689C16.4377 15.5266 14.3504 14.4004 12 14.4004Z" fill="#2F3038"/>
</svg>
