<svg width="18" height="18" viewBox="0 0 18 18" fill="none" xmlns="http://www.w3.org/2000/svg">
<path fill-rule="evenodd" clip-rule="evenodd" d="M1.6875 9C1.6875 4.96142 4.96142 1.6875 9 1.6875C13.0386 1.6875 16.3125 4.96142 16.3125 9C16.3125 13.0386 13.0386 16.3125 9 16.3125C4.96142 16.3125 1.6875 13.0386 1.6875 9ZM10.2208 6.06246C9.55415 5.47918 8.44619 5.47918 7.77959 6.06246C7.54579 6.26703 7.19043 6.24334 6.98586 6.00954C6.78128 5.77575 6.80498 5.42038 7.03877 5.21581C8.12953 4.2614 9.87081 4.2614 10.9616 5.21581C12.0964 6.20876 12.0964 7.85374 10.9616 8.84669C10.7691 9.01512 10.5571 9.15309 10.3335 9.26127C9.82633 9.50674 9.56267 9.84163 9.56267 10.125V10.6875C9.56267 10.9982 9.31083 11.25 9.00017 11.25C8.68951 11.25 8.43767 10.9982 8.43767 10.6875V10.125C8.43767 9.16573 9.23213 8.54448 9.84346 8.24862C9.98044 8.18233 10.1074 8.09925 10.2208 8.00004C10.8433 7.4553 10.8433 6.6072 10.2208 6.06246ZM9 13.5C9.31066 13.5 9.5625 13.2482 9.5625 12.9375C9.5625 12.6268 9.31066 12.375 9 12.375C8.68934 12.375 8.4375 12.6268 8.4375 12.9375C8.4375 13.2482 8.68934 13.5 9 13.5Z" fill="white"/>
</svg>
