<svg width="40" height="40" viewBox="0 0 40 40" fill="none" xmlns="http://www.w3.org/2000/svg">
<path fill-rule="evenodd" clip-rule="evenodd" d="M26.3125 22.4233C25.5263 25.3574 22.5104 27.0986 19.5764 26.3124C18.6073 26.0528 17.7703 25.5511 17.1106 24.8902L16.799 24.5786L19.2323 24.5782C19.6465 24.5781 19.9822 24.2423 19.9821 23.8281C19.9821 23.4139 19.6462 23.0781 19.232 23.0782L14.9886 23.079C14.7897 23.079 14.5989 23.1581 14.4583 23.2987C14.3176 23.4394 14.2387 23.6302 14.2387 23.8291L14.2396 28.071C14.2397 28.4852 14.5755 28.8209 14.9898 28.8208C15.404 28.8207 15.7397 28.4849 15.7396 28.0706L15.7391 25.64L16.0489 25.9499C16.89 26.7924 17.9577 27.4316 19.1881 27.7613C22.9224 28.7619 26.7608 26.5458 27.7613 22.8116C27.8686 22.4115 27.6311 22.0002 27.231 21.893C26.8309 21.7858 26.4197 22.0232 26.3125 22.4233ZM27.5414 18.7009C27.682 18.5603 27.761 18.3695 27.761 18.1705L27.7603 13.9286C27.7602 13.5144 27.4244 13.1786 27.0102 13.1787C26.596 13.1788 26.2602 13.5146 26.2603 13.9288L26.2607 16.3597L25.9509 16.0499C25.1099 15.2075 24.042 14.568 22.8116 14.2383C19.0773 13.2378 15.239 15.4538 14.2384 19.1881C14.1312 19.5882 14.3686 19.9994 14.7687 20.1067C15.1688 20.2139 15.5801 19.9764 15.6873 19.5763C16.4735 16.6423 19.4893 14.9011 22.4234 15.6872C23.3924 15.9469 24.2295 16.4486 24.8892 17.1095L25.2003 17.4207L22.7684 17.4207C22.3542 17.4207 22.0184 17.7564 22.0184 18.1707C22.0184 18.5849 22.3542 18.9207 22.7684 18.9207H27.011C27.2099 18.9207 27.4007 18.8416 27.5414 18.7009Z" fill="#AAAAB5"/>
</svg>
