<svg width="18" height="18" viewBox="0 0 18 18" fill="none" xmlns="http://www.w3.org/2000/svg">
<path d="M16.2984 1.70163C15.5295 0.932789 14.283 0.932789 13.5141 1.70163L12.6463 2.56949L15.4305 5.35373L16.2984 4.48587C17.0672 3.71702 17.0672 2.47048 16.2984 1.70163Z" fill="#75757D"/>
<path d="M14.635 6.14922L11.8508 3.36499L5.55015 9.66562C5.08755 10.1282 4.74751 10.6988 4.56075 11.3258L3.96091 13.3394C3.90195 13.5374 3.95621 13.7517 4.10225 13.8977C4.2483 14.0438 4.46264 14.098 4.66059 14.0391L6.67426 13.4392C7.30123 13.2525 7.8718 12.9124 8.33439 12.4498L14.635 6.14922Z" fill="#75757D"/>
<path d="M3.9375 3.93749C2.69486 3.93749 1.6875 4.94485 1.6875 6.18749V14.0625C1.6875 15.3051 2.69486 16.3125 3.9375 16.3125H11.8125C13.0551 16.3125 14.0625 15.3051 14.0625 14.0625V10.125C14.0625 9.81433 13.8107 9.56249 13.5 9.56249C13.1893 9.56249 12.9375 9.81433 12.9375 10.125V14.0625C12.9375 14.6838 12.4338 15.1875 11.8125 15.1875H3.9375C3.31618 15.1875 2.8125 14.6838 2.8125 14.0625V6.18749C2.8125 5.56617 3.31618 5.06249 3.9375 5.06249H7.875C8.18566 5.06249 8.4375 4.81065 8.4375 4.49999C8.4375 4.18933 8.18566 3.93749 7.875 3.93749H3.9375Z" fill="#75757D"/>
</svg>
