<svg width="24" height="24" viewBox="0 0 24 24" fill="none" xmlns="http://www.w3.org/2000/svg">
<path fill-rule="evenodd" clip-rule="evenodd" d="M10.7999 4.20039C7.15482 4.20039 4.1999 7.15531 4.1999 10.8004C4.1999 14.4455 7.15482 17.4004 10.7999 17.4004C12.6227 17.4004 14.2715 16.6626 15.4668 15.4673C16.6622 14.2719 17.3999 12.6232 17.3999 10.8004C17.3999 7.15531 14.445 4.20039 10.7999 4.20039ZM2.3999 10.8004C2.3999 6.1612 6.16071 2.40039 10.7999 2.40039C15.4391 2.40039 19.1999 6.1612 19.1999 10.8004C19.1999 12.7954 18.5035 14.6291 17.342 16.0697L21.3363 20.064C21.6878 20.4155 21.6878 20.9853 21.3363 21.3368C20.9848 21.6883 20.415 21.6883 20.0635 21.3368L16.0692 17.3425C14.6286 18.504 12.7949 19.2004 10.7999 19.2004C6.16071 19.2004 2.3999 15.4396 2.3999 10.8004Z" fill="#AAAAB5"/>
</svg>
