<svg width="140" height="38" viewBox="0 0 140 38" fill="none" xmlns="http://www.w3.org/2000/svg">
<path d="M51.1718 19.2259C51.1718 21.4595 50.6326 23.7567 49.5544 26.1174C48.2066 28.9251 46.4095 31.1902 44.1631 32.9133C41.737 34.7638 39.1166 35.6889 36.3009 35.6889C33.0661 35.6889 30.6102 34.301 28.9331 31.5254C25.0693 34.0776 21.0258 35.3538 16.8026 35.3538C13.5081 35.3538 10.528 34.5723 7.86218 33.0089C5.01697 31.3179 2.9503 28.9569 1.66217 25.9262C0.554056 23.3418 0 20.5182 0 17.4554C0 12.9888 1.03318 9.2557 3.09985 6.25676C5.40624 2.84293 8.58102 1.13601 12.6245 1.13601C17.297 1.13601 20.996 3.13011 23.7215 7.11832C25.0391 9.09622 26.1923 11.7286 27.1807 15.0147C27.8996 17.8224 28.6184 20.6297 29.3373 23.4374C29.9964 25.9579 30.5654 27.7605 31.0445 28.8454C32.6318 27.8243 34.1894 26.0218 35.717 23.4374C37.1845 20.949 38.0831 18.6677 38.4126 16.5939H37.3792C35.4023 16.5939 33.9948 16.4983 33.156 16.3067C31.2992 15.8921 30.3708 15.0147 30.3708 13.6747C30.3708 12.2708 30.9547 10.6916 32.1228 8.93674C33.081 7.43727 34.1894 6.16114 35.4474 5.10833C37.0648 3.76834 38.8918 2.73142 40.9283 1.99757C42.366 1.45496 46.146 -0.452597 47.0835 0.466013C47.9735 1.49224 46.0951 5.71447 46.0951 6.54395C46.0951 7.02238 46.3047 7.26159 46.7241 7.26159C46.9337 7.26159 47.1734 7.19806 47.4429 7.07035C48.0119 6.84702 48.5827 6.19226 48.7908 6.54395L48.9479 6.95074L49.1051 7.35754C49.4965 8.13709 43.4046 11.0543 42.6431 10.244C42.3684 9.95162 42.6316 8.83464 42.7954 8.13709L43.2197 6.35238C43.3096 5.555 43.3544 4.98062 43.3544 4.62958C43.3544 3.64063 42.9051 3.146 42.0065 3.146C40.2996 3.146 38.4126 3.95959 36.346 5.58676C34.0694 7.37342 32.9315 9.35164 32.9315 11.5211C32.9315 12.6378 33.71 13.3078 35.2677 13.5311C35.5373 13.5629 36.7054 13.5791 38.7721 13.5791C38.8318 13.1959 38.8619 12.8452 38.8619 12.5259C38.8619 11.1224 38.6673 9.89393 38.2777 8.84112C39.8354 9.2557 40.6139 10.6754 40.6139 13.1003V13.5791C42.3809 13.547 43.5792 13.5311 44.2081 13.5311C45.8852 13.5311 47.0686 13.6588 47.7573 13.9139C50.0338 14.7755 51.1718 16.5459 51.1718 19.2259ZM48.7457 21.619C48.7457 18.5241 47.1283 16.8652 43.8935 16.6419C43.1747 16.578 42.291 16.5459 41.2429 16.5459H40.1647C39.6557 18.9069 38.5473 21.3477 36.84 23.8682C35.1328 26.3887 33.3207 28.3666 31.4039 29.8026C31.8831 30.8871 32.3323 31.7007 32.7518 32.2433C33.8897 33.7107 35.4173 34.4446 37.3344 34.4446C40.1497 34.4446 42.6505 33.3438 44.8371 31.1425C46.0053 29.962 46.9486 28.5102 47.6674 26.7874C48.3863 25.0325 48.7457 23.3097 48.7457 21.619ZM28.5286 30.6638C27.75 28.8771 26.5819 24.921 25.0242 18.7954C23.7964 13.946 22.4333 10.3088 20.936 7.88394C18.6299 4.21501 15.6494 2.38038 11.9955 2.38038C8.31145 2.38038 5.60087 3.84808 3.86377 6.78316C2.51595 9.04857 1.84188 11.8401 1.84188 15.1583C1.84188 20.2631 3.39957 24.5862 6.51435 28.1274C9.80914 31.8284 13.8374 33.6789 18.5997 33.6789C21.8047 33.6789 25.1141 32.6738 28.5286 30.6638Z" fill="#0821AF"/>
<path d="M54.3887 14.295C54.3887 13.8127 54.5428 13.4078 54.8507 13.0801C55.177 12.733 55.5845 12.5596 56.074 12.5596C56.5632 12.5596 56.9619 12.733 57.2698 13.0801C57.5778 13.4078 57.7319 13.8127 57.7319 14.295C57.7319 14.777 57.5778 15.1819 57.2698 15.5096C56.9619 15.8376 56.5632 16.0013 56.074 16.0013C55.5845 16.0013 55.177 15.8376 54.8507 15.5096C54.5428 15.1819 54.3887 14.777 54.3887 14.295ZM57.4602 24.3317V31.9097C57.3332 31.9483 57.1519 31.9966 56.9165 32.0543C56.699 32.112 56.4544 32.1411 56.1827 32.1411C55.6932 32.1411 55.3219 32.0445 55.0682 31.8517C54.8145 31.6397 54.6878 31.2828 54.6878 30.7817V24.3317H57.4602ZM54.6878 25.8068V18.5179C54.8145 18.4793 54.9866 18.4408 55.2041 18.4022C55.4398 18.3442 55.6932 18.3153 55.9652 18.3153C56.4724 18.3153 56.844 18.4213 57.0795 18.6336C57.3332 18.8265 57.4602 19.1733 57.4602 19.6747V25.8068H54.6878ZM65.994 31.5337C64.9249 31.5337 63.9374 31.312 63.0312 30.8682C62.1433 30.4248 61.4278 29.7114 60.8841 28.728C60.3404 27.7445 60.0687 26.4334 60.0687 24.7942C60.0687 23.3096 60.3404 22.0659 60.8841 21.063C61.4278 20.0605 62.1796 19.3085 63.14 18.807C64.1186 18.3056 65.242 18.055 66.5103 18.055C67.3982 18.055 68.2044 18.1707 68.9294 18.4022C69.6723 18.6336 70.2793 18.913 70.7505 19.2411C71.0585 19.453 71.3031 19.6942 71.4843 19.9639C71.6655 20.2339 71.756 20.5619 71.756 20.9473V29.914H69.0381V21.1211C68.7481 20.9282 68.4039 20.7642 68.0052 20.6293C67.6065 20.4942 67.1265 20.4268 66.5648 20.4268C65.4412 20.4268 64.5353 20.793 63.8466 21.5259C63.1762 22.2393 62.8412 23.3288 62.8412 24.7942C62.8412 26.3948 63.1762 27.5325 63.8466 28.2074C64.5353 28.8631 65.3778 29.1908 66.3744 29.1908C67.1173 29.1908 67.7153 29.0557 68.1685 28.786C68.6214 28.516 68.9927 28.2171 69.2827 27.8891L69.4185 30.3765C69.1106 30.666 68.6665 30.936 68.0869 31.1866C67.5069 31.418 66.8094 31.5337 65.994 31.5337ZM69.0381 29.2777H71.756V32.3726C71.756 33.6451 71.4843 34.6766 70.9406 35.4671C70.3972 36.2772 69.6543 36.8651 68.7119 37.2317C67.7878 37.598 66.746 37.7812 65.5861 37.7812C64.662 37.7812 63.8649 37.6752 63.1945 37.4632C62.5241 37.2703 62.0437 37.0872 61.7537 36.9134C61.1741 36.5472 60.8841 36.0746 60.8841 35.4963C60.8841 35.1877 60.9475 34.9177 61.0745 34.6863C61.2192 34.4548 61.3825 34.2814 61.5637 34.1657C61.9804 34.4743 62.5329 34.7537 63.2216 35.0046C63.9103 35.2551 64.644 35.3806 65.4232 35.3806C66.5828 35.3806 67.4707 35.1203 68.0869 34.5994C68.721 34.0983 69.0381 33.3077 69.0381 32.2277V29.2777ZM86.1874 25.9802H83.4417V23.2037C83.4417 22.2393 83.1792 21.5356 82.6538 21.0919C82.1463 20.6485 81.4579 20.4268 80.588 20.4268C79.9538 20.4268 79.383 20.5136 78.8759 20.687C78.3864 20.8413 77.9517 21.0342 77.571 21.2656V25.9802H74.7989V21.2076C74.7989 20.7642 74.8802 20.4076 75.0435 20.1376C75.2247 19.8676 75.5056 19.5976 75.886 19.3276C76.3934 18.9999 77.0547 18.7108 77.8701 18.4599C78.6855 18.1899 79.6005 18.055 80.6154 18.055C82.3546 18.055 83.7137 18.4793 84.6921 19.3276C85.689 20.1567 86.1874 21.4102 86.1874 23.0879V25.9802ZM77.571 24.4762V31.9097C77.4623 31.9483 77.2902 31.9966 77.0547 32.0543C76.8372 32.112 76.5926 32.1411 76.3209 32.1411C75.8135 32.1411 75.4331 32.0445 75.1793 31.8517C74.9256 31.6397 74.7989 31.2828 74.7989 30.7817V24.4762H77.571ZM86.1874 24.4762V31.9097C86.0783 31.9483 85.9062 31.9966 85.6705 32.0543C85.435 32.112 85.1904 32.1411 84.9367 32.1411C84.4113 32.1411 84.0308 32.0445 83.7951 31.8517C83.5596 31.6397 83.4417 31.2828 83.4417 30.7817V24.4762H86.1874ZM89.1124 14.295C89.1124 13.8127 89.2662 13.4078 89.5744 13.0801C89.9003 12.733 90.3082 12.5596 90.7974 12.5596C91.2866 12.5596 91.6853 12.733 91.9932 13.0801C92.3015 13.4078 92.4553 13.8127 92.4553 14.295C92.4553 14.777 92.3015 15.1819 91.9932 15.5096C91.6853 15.8376 91.2866 16.0013 90.7974 16.0013C90.3082 16.0013 89.9003 15.8376 89.5744 15.5096C89.2662 15.1819 89.1124 14.777 89.1124 14.295ZM92.1836 24.3317V31.9097C92.0569 31.9483 91.8756 31.9966 91.6399 32.0543C91.4224 32.112 91.1778 32.1411 90.9061 32.1411C90.4169 32.1411 90.0453 32.0445 89.7919 31.8517C89.5382 31.6397 89.4112 31.2828 89.4112 30.7817V24.3317H92.1836ZM89.4112 25.8068V18.5179C89.5382 18.4793 89.7103 18.4408 89.9278 18.4022C90.1632 18.3442 90.4169 18.3153 90.6886 18.3153C91.1961 18.3153 91.5674 18.4213 91.8032 18.6336C92.0569 18.8265 92.1836 19.1733 92.1836 19.6747V25.8068H89.4112ZM98.3796 24.5919V31.9097C98.2712 31.9483 98.0988 31.9966 97.8633 32.0543C97.6459 32.112 97.4013 32.1411 97.1296 32.1411C96.6221 32.1411 96.2417 32.0445 95.988 31.8517C95.7525 31.6397 95.6346 31.2828 95.6346 30.7817V24.3317L98.3796 24.5919ZM95.6346 25.8068V13.1959C95.7434 13.1573 95.9155 13.1187 96.1509 13.0801C96.3867 13.0221 96.6313 12.9933 96.885 12.9933C97.4104 12.9933 97.7909 13.0899 98.0263 13.2824C98.2621 13.4753 98.3796 13.8224 98.3796 14.3239V26.0379L95.6346 25.8068ZM104.628 24.5919V31.9097C104.519 31.9483 104.347 31.9966 104.112 32.0543C103.894 32.112 103.65 32.1411 103.378 32.1411C102.871 32.1411 102.49 32.0445 102.236 31.8517C102.001 31.6397 101.883 31.2828 101.883 30.7817V24.3317L104.628 24.5919ZM101.883 25.8068V13.1959C101.992 13.1573 102.164 13.1187 102.399 13.0801C102.635 13.0221 102.879 12.9933 103.133 12.9933C103.659 12.9933 104.039 13.0899 104.275 13.2824C104.51 13.4753 104.628 13.8224 104.628 14.3239V26.0379L101.883 25.8068ZM107.751 14.295C107.751 13.8127 107.905 13.4078 108.213 13.0801C108.539 12.733 108.947 12.5596 109.436 12.5596C109.925 12.5596 110.324 12.733 110.632 13.0801C110.94 13.4078 111.094 13.8127 111.094 14.295C111.094 14.777 110.94 15.1819 110.632 15.5096C110.324 15.8376 109.925 16.0013 109.436 16.0013C108.947 16.0013 108.539 15.8376 108.213 15.5096C107.905 15.1819 107.751 14.777 107.751 14.295ZM110.822 24.3317V31.9097C110.695 31.9483 110.514 31.9966 110.278 32.0543C110.061 32.112 109.816 32.1411 109.545 32.1411C109.055 32.1411 108.684 32.0445 108.43 31.8517C108.177 31.6397 108.05 31.2828 108.05 30.7817V24.3317H110.822ZM108.05 25.8068V18.5179C108.177 18.4793 108.349 18.4408 108.566 18.4022C108.802 18.3442 109.055 18.3153 109.327 18.3153C109.834 18.3153 110.206 18.4213 110.442 18.6336C110.695 18.8265 110.822 19.1733 110.822 19.6747V25.8068H108.05ZM126.205 25.1994C126.205 26.6648 125.943 27.9374 125.417 29.0171C124.891 30.0777 124.149 30.9068 123.188 31.5049C122.228 32.0831 121.104 32.3726 119.818 32.3726C118.513 32.3726 117.381 32.0831 116.42 31.5049C115.46 30.9068 114.717 30.0777 114.192 29.0171C113.666 27.9374 113.403 26.6648 113.403 25.1994C113.403 23.7336 113.666 22.4708 114.192 21.4102C114.735 20.3305 115.487 19.5013 116.448 18.9227C117.408 18.3442 118.532 18.055 119.818 18.055C121.086 18.055 122.201 18.3539 123.161 18.9516C124.121 19.5302 124.864 20.3496 125.39 21.4102C125.933 22.4708 126.205 23.7336 126.205 25.1994ZM119.818 20.4268C118.713 20.4268 117.834 20.8511 117.182 21.6993C116.547 22.5479 116.23 23.7145 116.23 25.1994C116.23 26.7225 116.538 27.9085 117.154 28.7568C117.789 29.586 118.677 30.0005 119.818 30.0005C120.942 30.0005 121.811 29.5766 122.427 28.728C123.061 27.8797 123.379 26.7034 123.379 25.1994C123.379 23.7145 123.061 22.5479 122.427 21.6993C121.793 20.8511 120.923 20.4268 119.818 20.4268ZM140 25.9802H137.255V23.2037C137.255 22.2393 136.992 21.5356 136.467 21.0919C135.96 20.6485 135.271 20.4268 134.401 20.4268C133.767 20.4268 133.196 20.5136 132.689 20.687C132.2 20.8413 131.765 21.0342 131.384 21.2656V25.9802H128.612V21.2076C128.612 20.7642 128.693 20.4076 128.856 20.1376C129.038 19.8676 129.318 19.5976 129.699 19.3276C130.206 18.9999 130.868 18.7108 131.683 18.4599C132.499 18.1899 133.414 18.055 134.428 18.055C136.168 18.055 137.527 18.4793 138.505 19.3276C139.502 20.1567 140 21.4102 140 23.0879V25.9802ZM131.384 24.4762V31.9097C131.275 31.9483 131.103 31.9966 130.868 32.0543C130.65 32.112 130.406 32.1411 130.134 32.1411C129.627 32.1411 129.246 32.0445 128.992 31.8517C128.739 31.6397 128.612 31.2828 128.612 30.7817V24.4762H131.384ZM140 24.4762V31.9097C139.892 31.9483 139.719 31.9966 139.484 32.0543C139.248 32.112 139.004 32.1411 138.75 32.1411C138.224 32.1411 137.844 32.0445 137.608 31.8517C137.373 31.6397 137.255 31.2828 137.255 30.7817V24.4762H140Z" fill="#0821AF"/>
</svg>
