<svg width="180" height="62" viewBox="0 0 180 62" fill="none" xmlns="http://www.w3.org/2000/svg">
<path d="M65.8809 22.9688C65.8809 25.6681 65.1883 28.4442 63.8031 31.2971C62.0715 34.6902 59.7628 37.4275 56.8769 39.5099C53.7601 41.7462 50.3937 42.8642 46.7765 42.8642C42.6208 42.8642 39.4657 41.1869 37.3111 37.8326C32.3474 40.917 27.1528 42.4592 21.7273 42.4592C17.4949 42.4592 13.6663 41.5147 10.2416 39.6255C6.58641 37.5819 3.93138 34.7286 2.27654 31.066C0.852963 27.9428 0.141174 24.5306 0.141174 20.8292C0.141174 15.4313 1.46849 10.9199 4.12351 7.2957C7.0865 3.17011 11.1651 1.10732 16.3597 1.10732C22.3624 1.10732 27.1144 3.51718 30.6158 8.33689C32.3086 10.7272 33.7901 13.9083 35.0599 17.8796C35.9834 21.2726 36.9069 24.6653 37.8304 28.0584C38.6772 31.1044 39.4081 33.2827 40.0237 34.5938C42.0628 33.3599 44.0639 31.1816 46.0263 28.0584C47.9117 25.0512 49.066 22.2942 49.4894 19.788H48.1617C45.6221 19.788 43.8139 19.6725 42.7362 19.441C40.3508 18.9399 39.1581 17.8796 39.1581 16.2602C39.1581 14.5637 39.9082 12.6552 41.4089 10.5344C42.6399 8.72234 44.0639 7.18014 45.68 5.90784C47.7579 4.28847 50.1049 3.03536 52.7212 2.14851C54.5682 1.49277 59.4243 -0.812497 60.6288 0.297635C61.7722 1.53782 59.359 6.64035 59.359 7.64276C59.359 8.22094 59.6282 8.51003 60.167 8.51003C60.4362 8.51003 60.7442 8.43325 61.0905 8.27891C61.8215 8.00902 62.5548 7.21775 62.822 7.64276L63.024 8.13437L63.2259 8.62598C63.7287 9.56806 55.9025 13.0935 54.9243 12.1142C54.5713 11.7609 54.9094 10.411 55.1199 9.56806L55.665 7.41126C55.7805 6.44763 55.838 5.7535 55.838 5.32927C55.838 4.13413 55.2608 3.53637 54.1064 3.53637C51.9136 3.53637 49.4894 4.51959 46.8344 6.48602C43.9097 8.64517 42.4478 11.0358 42.4478 13.6576C42.4478 15.0071 43.448 15.8168 45.4492 16.0867C45.7955 16.1251 47.2961 16.1446 49.9511 16.1446C50.0278 15.6816 50.0666 15.2578 50.0666 14.8719C50.0666 13.1758 49.8165 11.6912 49.3161 10.4189C51.3172 10.9199 52.3174 12.6356 52.3174 15.5661V16.1446C54.5874 16.1059 56.1268 16.0867 56.9348 16.0867C59.0894 16.0867 60.6096 16.241 61.4943 16.5493C64.419 17.5905 65.8809 19.73 65.8809 22.9688ZM62.7641 25.8608C62.7641 22.1207 60.6863 20.1159 56.5306 19.846C55.6071 19.7688 54.4719 19.73 53.1254 19.73H51.7402C51.0863 22.5833 49.6624 25.533 47.4691 28.579C45.2758 31.625 42.9479 34.0153 40.4854 35.7506C41.1009 37.0613 41.6781 38.0445 42.2169 38.7002C43.6789 40.4735 45.6413 41.3604 48.1042 41.3604C51.721 41.3604 54.9337 40.0301 57.7429 37.3699C59.2435 35.9433 60.4554 34.1888 61.3789 32.1068C62.3024 29.986 62.7641 27.9041 62.7641 25.8608ZM36.7915 36.7914C35.7913 34.6322 34.2906 29.8513 32.2895 22.4486C30.7121 16.5881 28.961 12.1926 27.0373 9.26213C24.0747 4.82826 20.2458 2.61113 15.5517 2.61113C10.8188 2.61113 7.33654 4.38483 5.10492 7.93185C3.37338 10.6696 2.50741 14.0431 2.50741 18.0531C2.50741 24.2223 4.50856 29.4466 8.51008 33.7262C12.7429 38.1988 17.9179 40.4352 24.036 40.4352C28.1533 40.4352 32.4049 39.2204 36.7915 36.7914Z" fill="white"/>
<path d="M70.0162 17.0104C70.0162 16.4275 70.2142 15.9382 70.6098 15.5422C71.0289 15.1227 71.5524 14.9131 72.1813 14.9131C72.8097 14.9131 73.3219 15.1227 73.7176 15.5422C74.1132 15.9382 74.3112 16.4275 74.3112 17.0104C74.3112 17.5928 74.1132 18.0821 73.7176 18.4781C73.3219 18.8745 72.8097 19.0724 72.1813 19.0724C71.5524 19.0724 71.0289 18.8745 70.6098 18.4781C70.2142 18.0821 70.0162 17.5928 70.0162 17.0104ZM73.9621 29.1395V38.2976C73.7989 38.3442 73.5661 38.4025 73.2636 38.4723C72.9842 38.542 72.67 38.5772 72.321 38.5772C71.6921 38.5772 71.2151 38.4605 70.8892 38.2274C70.5632 37.9712 70.4004 37.54 70.4004 36.9344V29.1395H73.9621ZM70.4004 30.9223V22.1137C70.5632 22.0671 70.7843 22.0204 71.0637 21.9738C71.3666 21.9037 71.6921 21.8688 72.0416 21.8688C72.6931 21.8688 73.1705 21.9969 73.473 22.2535C73.7989 22.4866 73.9621 22.9057 73.9621 23.5117V30.9223H70.4004ZM84.9254 37.8432C83.5519 37.8432 82.2833 37.5752 81.1191 37.039C79.9785 36.5031 79.0593 35.6409 78.3608 34.4524C77.6623 33.264 77.3133 31.6795 77.3133 29.6985C77.3133 27.9045 77.6623 26.4014 78.3608 25.1894C79.0593 23.9779 80.025 23.0691 81.2588 22.4631C82.5161 21.8571 83.9593 21.5543 85.5887 21.5543C86.7293 21.5543 87.7651 21.6941 88.6964 21.9738C89.6508 22.2535 90.4307 22.5912 91.0361 22.9876C91.4317 23.2438 91.7459 23.5352 91.9787 23.8611C92.2115 24.1874 92.3278 24.5839 92.3278 25.0496V35.8857H88.8361V25.2596C88.4636 25.0265 88.0214 24.8283 87.5092 24.6653C86.997 24.502 86.3803 24.4205 85.6587 24.4205C84.2152 24.4205 83.0514 24.8631 82.1667 25.7488C81.3054 26.611 80.875 27.9276 80.875 29.6985C80.875 31.6328 81.3054 33.0078 82.1667 33.8233C83.0514 34.6158 84.1338 35.0118 85.4141 35.0118C86.3685 35.0118 87.1367 34.8485 87.7189 34.5226C88.3008 34.1962 88.7778 33.8351 89.1503 33.4387L89.3249 36.4447C88.9293 36.7945 88.3587 37.1208 87.6141 37.4236C86.869 37.7033 85.9729 37.8432 84.9254 37.8432ZM88.8361 35.1168H92.3278V38.8569C92.3278 40.3948 91.9787 41.6413 91.2802 42.5967C90.5821 43.5756 89.6277 44.2861 88.417 44.7292C87.2298 45.1718 85.8915 45.3932 84.4014 45.3932C83.2142 45.3932 82.1901 45.2651 81.3289 45.0089C80.4676 44.7758 79.8505 44.5545 79.478 44.3445C78.7333 43.9019 78.3608 43.3307 78.3608 42.6319C78.3608 42.259 78.4422 41.9327 78.6054 41.653C78.7913 41.3733 79.001 41.1638 79.2338 41.0239C79.7691 41.3968 80.479 41.7345 81.3637 42.0377C82.2485 42.3405 83.1911 42.4921 84.1921 42.4921C85.6818 42.4921 86.8225 42.1775 87.6141 41.548C88.4288 40.9424 88.8361 39.987 88.8361 38.6818V35.1168ZM110.868 31.1318H107.34V27.7764C107.34 26.611 107.003 25.7606 106.328 25.2243C105.676 24.6884 104.792 24.4205 103.674 24.4205C102.859 24.4205 102.126 24.5255 101.475 24.7351C100.846 24.9215 100.287 25.1546 99.7982 25.4343V31.1318H96.2369V25.3642C96.2369 24.8283 96.3414 24.3974 96.5511 24.0711C96.784 23.7448 97.1448 23.4185 97.6335 23.0922C98.2854 22.6962 99.135 22.3467 100.182 22.0436C101.23 21.7172 102.406 21.5543 103.709 21.5543C105.944 21.5543 107.69 22.0671 108.947 23.0922C110.227 24.0942 110.868 25.609 110.868 27.6365V31.1318ZM99.7982 29.3142V38.2976C99.6585 38.3442 99.4374 38.4025 99.135 38.4723C98.8556 38.542 98.5413 38.5772 98.1923 38.5772C97.5404 38.5772 97.0516 38.4605 96.7257 38.2274C96.3997 37.9712 96.2369 37.54 96.2369 36.9344V29.3142H99.7982ZM110.868 29.3142V38.2976C110.727 38.3442 110.506 38.4025 110.203 38.4723C109.901 38.542 109.587 38.5772 109.261 38.5772C108.586 38.5772 108.097 38.4605 107.794 38.2274C107.492 37.9712 107.34 37.54 107.34 36.9344V29.3142H110.868ZM114.625 17.0104C114.625 16.4275 114.823 15.9382 115.219 15.5422C115.638 15.1227 116.162 14.9131 116.79 14.9131C117.418 14.9131 117.931 15.1227 118.326 15.5422C118.722 15.9382 118.92 16.4275 118.92 17.0104C118.92 17.5928 118.722 18.0821 118.326 18.4781C117.931 18.8745 117.418 19.0724 116.79 19.0724C116.162 19.0724 115.638 18.8745 115.219 18.4781C114.823 18.0821 114.625 17.5928 114.625 17.0104ZM118.571 29.1395V38.2976C118.408 38.3442 118.175 38.4025 117.872 38.4723C117.593 38.542 117.279 38.5772 116.93 38.5772C116.301 38.5772 115.824 38.4605 115.498 38.2274C115.172 37.9712 115.009 37.54 115.009 36.9344V29.1395H118.571ZM115.009 30.9223V22.1137C115.172 22.0671 115.393 22.0204 115.673 21.9738C115.975 21.9037 116.301 21.8688 116.65 21.8688C117.302 21.8688 117.779 21.9969 118.082 22.2535C118.408 22.4866 118.571 22.9057 118.571 23.5117V30.9223H115.009ZM126.531 29.4541V38.2976C126.392 38.3442 126.17 38.4025 125.868 38.4723C125.588 38.542 125.274 38.5772 124.925 38.5772C124.273 38.5772 123.784 38.4605 123.458 38.2274C123.156 37.9712 123.004 37.54 123.004 36.9344V29.1395L126.531 29.4541ZM123.004 30.9223V15.682C123.144 15.6354 123.365 15.5888 123.668 15.5422C123.97 15.4721 124.285 15.4372 124.611 15.4372C125.286 15.4372 125.774 15.5539 126.077 15.7866C126.38 16.0197 126.531 16.4392 126.531 17.0452V31.2016L123.004 30.9223ZM134.558 29.4541V38.2976C134.418 38.3442 134.197 38.4025 133.895 38.4723C133.615 38.542 133.301 38.5772 132.952 38.5772C132.3 38.5772 131.811 38.4605 131.485 38.2274C131.183 37.9712 131.031 37.54 131.031 36.9344V29.1395L134.558 29.4541ZM131.031 30.9223V15.682C131.171 15.6354 131.392 15.5888 131.695 15.5422C131.997 15.4721 132.312 15.4372 132.638 15.4372C133.313 15.4372 133.802 15.5539 134.104 15.7866C134.407 16.0197 134.558 16.4392 134.558 17.0452V31.2016L131.031 30.9223ZM138.57 17.0104C138.57 16.4275 138.767 15.9382 139.163 15.5422C139.582 15.1227 140.106 14.9131 140.735 14.9131C141.363 14.9131 141.875 15.1227 142.271 15.5422C142.667 15.9382 142.864 16.4275 142.864 17.0104C142.864 17.5928 142.667 18.0821 142.271 18.4781C141.875 18.8745 141.363 19.0724 140.735 19.0724C140.106 19.0724 139.582 18.8745 139.163 18.4781C138.767 18.0821 138.57 17.5928 138.57 17.0104ZM142.515 29.1395V38.2976C142.353 38.3442 142.12 38.4025 141.817 38.4723C141.537 38.542 141.223 38.5772 140.874 38.5772C140.246 38.5772 139.768 38.4605 139.442 38.2274C139.117 37.9712 138.954 37.54 138.954 36.9344V29.1395H142.515ZM138.954 30.9223V22.1137C139.117 22.0671 139.338 22.0204 139.617 21.9738C139.92 21.9037 140.246 21.8688 140.595 21.8688C141.247 21.8688 141.724 21.9969 142.027 22.2535C142.353 22.4866 142.515 22.9057 142.515 23.5117V30.9223H138.954ZM162.278 30.1882C162.278 31.9591 161.941 33.497 161.265 34.8018C160.59 36.0836 159.636 37.0856 158.402 37.8083C157.168 38.5071 155.725 38.8569 154.072 38.8569C152.396 38.8569 150.941 38.5071 149.708 37.8083C148.474 37.0856 147.519 36.0836 146.844 34.8018C146.169 33.497 145.832 31.9591 145.832 30.1882C145.832 28.4168 146.169 26.8907 146.844 25.609C147.543 24.3042 148.509 23.3021 149.742 22.6029C150.976 21.9037 152.42 21.5543 154.072 21.5543C155.702 21.5543 157.133 21.9155 158.367 22.6378C159.601 23.337 160.555 24.3273 161.23 25.609C161.929 26.8907 162.278 28.4168 162.278 30.1882ZM154.072 24.4205C152.653 24.4205 151.523 24.9333 150.685 25.9584C149.871 26.9839 149.463 28.3937 149.463 30.1882C149.463 32.0289 149.859 33.4622 150.651 34.4873C151.465 35.4893 152.606 35.9903 154.072 35.9903C155.516 35.9903 156.633 35.478 157.425 34.4524C158.239 33.4273 158.647 32.0058 158.647 30.1882C158.647 28.3937 158.239 26.9839 157.425 25.9584C156.61 24.9333 155.492 24.4205 154.072 24.4205ZM180 31.1318H176.473V27.7764C176.473 26.611 176.136 25.7606 175.461 25.2243C174.809 24.6884 173.924 24.4205 172.807 24.4205C171.993 24.4205 171.259 24.5255 170.607 24.7351C169.979 24.9215 169.42 25.1546 168.931 25.4343V31.1318H165.37V25.3642C165.37 24.8283 165.475 24.3974 165.684 24.0711C165.917 23.7448 166.278 23.4185 166.766 23.0922C167.418 22.6962 168.268 22.3467 169.316 22.0436C170.363 21.7172 171.539 21.5543 172.842 21.5543C175.077 21.5543 176.823 22.0671 178.08 23.0922C179.36 24.0942 180 25.609 180 27.6365V31.1318ZM168.931 29.3142V38.2976C168.792 38.3442 168.571 38.4025 168.268 38.4723C167.989 38.542 167.674 38.5772 167.325 38.5772C166.674 38.5772 166.184 38.4605 165.858 38.2274C165.533 37.9712 165.37 37.54 165.37 36.9344V29.3142H168.931ZM180 29.3142V38.2976C179.861 38.3442 179.64 38.4025 179.337 38.4723C179.034 38.542 178.72 38.5772 178.394 38.5772C177.719 38.5772 177.23 38.4605 176.927 38.2274C176.625 37.9712 176.473 37.54 176.473 36.9344V29.3142H180Z" fill="white"/>
<path d="M18.7168 57.6881V58.6322H14.3198V57.6881H18.7168ZM14.5421 49.8748V58.6322H13.4414V49.8748H14.5421ZM18.1353 53.6402V54.5843H14.3198V53.6402H18.1353ZM18.6599 49.8748V50.8253H14.3198V49.8748H18.6599ZM21.2531 49.3936V58.6322H20.1927V49.3936H21.2531ZM25.6944 58.7526C25.2647 58.7526 24.8753 58.6767 24.5256 58.5242C24.1794 58.3675 23.8813 58.1492 23.6299 57.8685C23.3828 57.5879 23.1931 57.255 23.0597 56.8699C22.927 56.4848 22.86 56.0641 22.86 55.6066V55.3544C22.86 54.8252 22.9341 54.3534 23.0829 53.9405C23.231 53.5239 23.4326 53.1709 23.6869 52.8819C23.9417 52.5935 24.231 52.3746 24.554 52.2263C24.8771 52.0779 25.212 52.0037 25.5575 52.0037C25.9985 52.0037 26.3791 52.0844 26.6985 52.2446C27.0216 52.4048 27.2859 52.6297 27.491 52.9181C27.6961 53.2029 27.8485 53.54 27.9474 53.9286C28.0464 54.3137 28.0956 54.735 28.0956 55.1919V55.6909H23.4877V54.783H27.0406V54.6988C27.0251 54.4098 26.9682 54.1292 26.8693 53.8568C26.7744 53.5839 26.6221 53.3596 26.4134 53.1827C26.2042 53.0065 25.9191 52.9181 25.5575 52.9181C25.3181 52.9181 25.0976 52.9721 24.896 53.0807C24.6945 53.1851 24.5214 53.3412 24.3774 53.55C24.2328 53.7583 24.1207 54.0129 24.0407 54.3137C23.9607 54.6145 23.921 54.961 23.921 55.3544V55.6066C23.921 55.9158 23.9607 56.2065 24.0407 56.4789C24.1243 56.7476 24.244 56.9844 24.3999 57.1885C24.56 57.3932 24.752 57.5534 24.9761 57.6697C25.2043 57.786 25.4627 57.8442 25.7514 57.8442C26.1242 57.8442 26.4395 57.7641 26.6985 57.6039C26.957 57.4431 27.1834 57.2289 27.3772 56.9601L28.0156 57.4953C27.8828 57.7077 27.7133 57.9106 27.5082 58.1029C27.3031 58.2957 27.05 58.4518 26.7495 58.5722C26.4532 58.6921 26.1017 58.7526 25.6944 58.7526ZM31.984 57.8382C32.2347 57.8382 32.4665 57.7842 32.6793 57.6757C32.8926 57.5677 33.0675 57.4193 33.2044 57.2306C33.3413 57.0384 33.419 56.82 33.438 56.575H34.4415C34.4225 56.9601 34.2992 57.3191 34.071 57.6519C33.8469 57.9807 33.5524 58.2471 33.1872 58.4518C32.8221 58.6523 32.4208 58.7526 31.984 58.7526C31.5199 58.7526 31.115 58.6666 30.7689 58.4939C30.4269 58.3212 30.1417 58.0851 29.9135 57.7843C29.6895 57.4834 29.52 57.1387 29.4062 56.7494C29.2959 56.3566 29.2408 55.9419 29.2408 55.5046V55.2518C29.2408 54.8151 29.2959 54.4021 29.4062 54.0129C29.52 53.6201 29.6895 53.2729 29.9135 52.9721C30.1417 52.6719 30.4269 52.4351 30.7689 52.2625C31.115 52.0904 31.5199 52.0037 31.984 52.0037C32.4665 52.0037 32.8885 52.1082 33.2501 52.3164C33.611 52.5211 33.8944 52.8018 34.0995 53.159C34.3087 53.5115 34.4225 53.9126 34.4415 54.3618H33.438C33.419 54.093 33.3467 53.8503 33.221 53.6337C33.0995 53.4177 32.9324 53.245 32.7196 53.1169C32.5103 52.9846 32.2649 52.9181 31.984 52.9181C31.6603 52.9181 31.3889 52.9863 31.1684 53.1228C30.9514 53.2551 30.7784 53.4355 30.6491 53.664C30.5235 53.8888 30.4328 54.1392 30.3753 54.4158C30.3225 54.6887 30.2959 54.967 30.2959 55.2518V55.5046C30.2959 55.7894 30.3225 56.07 30.3753 56.3465C30.4286 56.623 30.5181 56.874 30.6438 57.0983C30.773 57.3232 30.9455 57.5036 31.1624 57.6401C31.3829 57.7724 31.6568 57.8382 31.984 57.8382ZM38.3986 52.1242V52.9786H35.0621V52.1242H38.3986ZM36.1912 50.5423H37.2463V57.0206C37.2463 57.2407 37.2789 57.4075 37.3435 57.5196C37.4081 57.6318 37.4917 57.7059 37.5942 57.7421C37.6968 57.7783 37.807 57.7961 37.925 57.7961C38.0127 57.7961 38.104 57.7884 38.1988 57.7724C38.2978 57.7522 38.3719 57.7362 38.4211 57.7243L38.427 58.6322C38.3434 58.6606 38.2332 58.6862 38.0963 58.7105C37.9629 58.7384 37.8017 58.7526 37.6114 58.7526C37.353 58.7526 37.1153 58.6986 36.8984 58.59C36.682 58.482 36.5089 58.3017 36.3797 58.0489C36.2541 57.792 36.1912 57.4472 36.1912 57.0141V50.5423ZM40.878 53.1466V58.6322H39.8229V52.1242H40.8495L40.878 53.1466ZM42.8056 52.088L42.7996 53.1228C42.7125 53.1026 42.6289 53.0908 42.5489 53.0866C42.473 53.0783 42.3853 53.0748 42.2863 53.0748C42.0433 53.0748 41.8281 53.1145 41.642 53.1946C41.4559 53.2753 41.2982 53.3875 41.1684 53.5316C41.0392 53.6758 40.9367 53.8485 40.8608 54.049C40.7885 54.2455 40.7411 54.462 40.7179 54.6988L40.4216 54.8792C40.4216 54.4864 40.4577 54.1173 40.5301 53.7725C40.6059 53.4272 40.7221 53.1228 40.878 52.8582C41.0339 52.5894 41.2313 52.3811 41.4707 52.2328C41.7143 52.0803 42.003 52.0037 42.3379 52.0037C42.4138 52.0037 42.5015 52.0138 42.5999 52.034C42.6989 52.05 42.7676 52.0684 42.8056 52.088ZM43.5737 55.4506V55.3123C43.5737 54.843 43.639 54.408 43.7682 54.0069C43.8974 53.6017 44.0835 53.251 44.3271 52.9543C44.5701 52.6535 44.8647 52.4209 45.2109 52.2565C45.557 52.088 45.9447 52.0037 46.3744 52.0037C46.8077 52.0037 47.1971 52.088 47.5433 52.2565C47.893 52.4209 48.19 52.6535 48.433 52.9543C48.6802 53.251 48.8687 53.6017 48.9979 54.0069C49.1271 54.408 49.1917 54.843 49.1917 55.3123V55.4506C49.1917 55.9193 49.1271 56.3548 48.9979 56.7554C48.8687 57.1565 48.6802 57.5077 48.433 57.808C48.19 58.1053 47.8948 58.3379 47.5492 58.5058C47.2066 58.6701 46.819 58.7526 46.3857 58.7526C45.9524 58.7526 45.5624 58.6701 45.2168 58.5058C44.8707 58.3379 44.5743 58.1053 44.3271 57.808C44.0835 57.5077 43.8974 57.1565 43.7682 56.7554C43.639 56.3548 43.5737 55.9193 43.5737 55.4506ZM44.6288 55.3123V55.4506C44.6288 55.7751 44.665 56.0819 44.7373 56.3709C44.8096 56.6557 44.9181 56.9079 45.0627 57.1286C45.2109 57.3493 45.3952 57.5238 45.6157 57.6519C45.8362 57.7759 46.0929 57.8382 46.3857 57.8382C46.6744 57.8382 46.9275 57.7759 47.1444 57.6519C47.3649 57.5238 47.5475 57.3493 47.6915 57.1286C47.8361 56.9079 47.9446 56.6557 48.0169 56.3709C48.0928 56.0819 48.1307 55.7751 48.1307 55.4506V55.3123C48.1307 54.9913 48.0928 54.6887 48.0169 54.4039C47.9446 54.1149 47.8343 53.8604 47.6862 53.6402C47.5415 53.4153 47.359 53.2391 47.1385 53.111C46.9215 52.9822 46.6672 52.9181 46.3744 52.9181C46.0852 52.9181 45.8303 52.9822 45.6098 53.111C45.3934 53.2391 45.2109 53.4153 45.0627 53.6402C44.9181 53.8604 44.8096 54.1149 44.7373 54.4039C44.665 54.6887 44.6288 54.9913 44.6288 55.3123ZM51.7565 53.5138V58.6322H50.7014V52.1242H51.6996L51.7565 53.5138ZM51.5057 55.1319L51.0665 55.1135C51.0701 54.6685 51.1329 54.2573 51.255 53.8805C51.3765 53.4996 51.5472 53.1691 51.7677 52.8879C51.9882 52.6072 52.2508 52.3912 52.5549 52.2387C52.8631 52.0821 53.2033 52.0037 53.5756 52.0037C53.8803 52.0037 54.1535 52.0482 54.3971 52.1361C54.6407 52.2203 54.8476 52.3568 55.0189 52.5455C55.1938 52.7336 55.3265 52.9786 55.4178 53.2789C55.5091 53.5756 55.5547 53.9387 55.5547 54.3677V58.6322H54.4943V54.3558C54.4943 54.0146 54.4463 53.7423 54.3515 53.5376C54.2566 53.3293 54.1179 53.1786 53.9354 53.0866C53.7528 52.9905 53.5282 52.9424 53.262 52.9424C53 52.9424 52.7606 53.0006 52.5436 53.1169C52.3308 53.2332 52.1465 53.3934 51.9906 53.5981C51.8383 53.8022 51.7185 54.0372 51.6314 54.3018C51.5472 54.5623 51.5057 54.8388 51.5057 55.1319ZM58.4906 52.1242V58.6322H57.4296V52.1242H58.4906ZM57.3501 50.3981C57.3501 50.2177 57.4011 50.0652 57.5042 49.9406C57.6103 49.8166 57.7662 49.7543 57.9713 49.7543C58.1728 49.7543 58.327 49.8166 58.4337 49.9406C58.5439 50.0652 58.599 50.2177 58.599 50.3981C58.599 50.5702 58.5439 50.7185 58.4337 50.8431C58.327 50.9636 58.1728 51.0235 57.9713 51.0235C57.7662 51.0235 57.6103 50.9636 57.5042 50.8431C57.4011 50.7185 57.3501 50.5702 57.3501 50.3981ZM62.8406 57.8382C63.0914 57.8382 63.3237 57.7842 63.5365 57.6757C63.7493 57.5677 63.9242 57.4193 64.0611 57.2306C64.198 57.0384 64.2757 56.82 64.2952 56.575H65.2987C65.2798 56.9601 65.1559 57.3191 64.9283 57.6519C64.7036 57.9807 64.409 58.2471 64.0439 58.4518C63.6788 58.6523 63.2781 58.7526 62.8406 58.7526C62.3771 58.7526 61.9717 58.6666 61.6261 58.4939C61.2835 58.3212 60.9984 58.0851 60.7702 57.7843C60.5462 57.4834 60.3772 57.1387 60.2628 56.7494C60.1526 56.3566 60.0975 55.9419 60.0975 55.5046V55.2518C60.0975 54.8151 60.1526 54.4021 60.2628 54.0129C60.3772 53.6201 60.5462 53.2729 60.7702 52.9721C60.9984 52.6719 61.2835 52.4351 61.6261 52.2625C61.9717 52.0904 62.3771 52.0037 62.8406 52.0037C63.3237 52.0037 63.7457 52.1082 64.1067 52.3164C64.4677 52.5211 64.751 52.8018 64.9567 53.159C65.1654 53.5115 65.2798 53.9126 65.2987 54.3618H64.2952C64.2757 54.093 64.2039 53.8503 64.0783 53.6337C63.9568 53.4177 63.789 53.245 63.5762 53.1169C63.367 52.9846 63.1222 52.9181 62.8406 52.9181C62.5176 52.9181 62.2455 52.9863 62.025 53.1228C61.8087 53.2551 61.6356 53.4355 61.5064 53.664C61.3807 53.8888 61.2894 54.1392 61.2325 54.4158C61.1792 54.6887 61.1525 54.967 61.1525 55.2518V55.5046C61.1525 55.7894 61.1792 56.07 61.2325 56.3465C61.2859 56.623 61.3748 56.874 61.5005 57.0983C61.6297 57.3232 61.8028 57.5036 62.0197 57.6401C62.2402 57.7724 62.5135 57.8382 62.8406 57.8382ZM73.3493 56.9061C73.3493 56.7459 73.3143 56.5975 73.2461 56.4611C73.1815 56.3204 73.0464 56.194 72.8413 56.0819C72.6398 55.9656 72.3357 55.8653 71.9285 55.7811C71.5865 55.7051 71.2765 55.6149 70.9991 55.5105C70.7252 55.4061 70.4911 55.2803 70.2979 55.1319C70.1076 54.983 69.9612 54.8091 69.8586 54.6086C69.7561 54.408 69.7045 54.1731 69.7045 53.9049C69.7045 53.6479 69.7579 53.4053 69.864 53.1768C69.9748 52.9484 70.1283 52.746 70.3263 52.5692C70.5272 52.393 70.7691 52.2547 71.05 52.1545C71.3316 52.0542 71.6451 52.0037 71.9913 52.0037C72.4856 52.0037 72.9077 52.0963 73.2574 52.2808C73.6071 52.4654 73.875 52.7116 74.0617 53.0208C74.2479 53.3252 74.3415 53.664 74.3415 54.0372H73.2864C73.2864 53.8568 73.2343 53.6824 73.1323 53.5138C73.0333 53.3412 72.8869 53.1988 72.6925 53.0866C72.5028 52.9745 72.2687 52.9181 71.9913 52.9181C71.6985 52.9181 71.4608 52.9662 71.2782 53.0623C71.0998 53.1549 70.9682 53.2729 70.8853 53.4177C70.8052 53.5619 70.7655 53.7144 70.7655 53.8746C70.7655 53.9951 70.7845 54.103 70.8224 54.1992C70.8639 54.2917 70.9362 54.3778 71.0394 54.4579C71.1413 54.5344 71.2859 54.6062 71.4727 54.6744C71.6588 54.7427 71.8965 54.8109 72.1857 54.8792C72.6907 54.9996 73.1068 55.1438 73.434 55.3123C73.7612 55.4808 74.0048 55.6867 74.1643 55.9318C74.3237 56.1762 74.4043 56.4729 74.4043 56.8218C74.4043 57.1066 74.3468 57.3671 74.233 57.6039C74.1228 57.84 73.961 58.0447 73.7476 58.2174C73.5389 58.3859 73.2876 58.5182 72.9954 58.6144C72.7061 58.7063 72.3813 58.7526 72.0198 58.7526C71.4762 58.7526 71.0163 58.6506 70.6399 58.4458C70.2635 58.2411 69.9778 57.9765 69.7845 57.6519C69.5901 57.3268 69.4935 56.9844 69.4935 56.623H70.5539C70.5693 56.928 70.6529 57.1707 70.8052 57.3511C70.9576 57.5273 71.1437 57.6537 71.3642 57.7303C71.5847 57.8021 71.8034 57.8382 72.0198 57.8382C72.309 57.8382 72.5502 57.7979 72.7447 57.7178C72.942 57.6377 73.092 57.5273 73.1952 57.3873C73.2971 57.2467 73.3493 57.0865 73.3493 56.9061ZM77.1226 52.1242V58.6322H76.0622V52.1242H77.1226ZM75.9822 50.3981C75.9822 50.2177 76.0338 50.0652 76.1363 49.9406C76.243 49.8166 76.3983 49.7543 76.604 49.7543C76.8049 49.7543 76.959 49.8166 77.0657 49.9406C77.176 50.0652 77.2311 50.2177 77.2311 50.3981C77.2311 50.5702 77.176 50.7185 77.0657 50.8431C76.959 50.9636 76.8049 51.0235 76.604 51.0235C76.3983 51.0235 76.243 50.9636 76.1363 50.8431C76.0338 50.7185 75.9822 50.5702 75.9822 50.3981ZM83.0014 52.1242H83.9592V58.4939C83.9592 59.0671 83.849 59.5566 83.6291 59.9613C83.408 60.3665 83.0998 60.6733 82.7044 60.8816C82.3132 61.0946 81.861 61.2008 81.3476 61.2008C81.1343 61.2008 80.8835 61.1646 80.5943 61.0922C80.3098 61.024 80.0282 60.9059 79.7508 60.7374C79.477 60.573 79.247 60.3505 79.0603 60.0699L79.6139 59.4083C79.8723 59.737 80.142 59.9654 80.4236 60.0936C80.7087 60.2224 80.9896 60.2864 81.2676 60.2864C81.6019 60.2864 81.8912 60.22 82.1342 60.0877C82.3778 59.9553 82.5663 59.7589 82.6991 59.4985C82.836 59.2415 82.9042 58.9247 82.9042 58.5479V53.556L83.0014 52.1242ZM78.7521 55.4506V55.3242C78.7521 54.8269 78.8078 54.376 78.918 53.9707C79.0318 53.5619 79.1936 53.2112 79.4023 52.9181C79.6157 52.6256 79.8723 52.4007 80.1728 52.2446C80.4734 52.0844 80.8112 52.0037 81.1876 52.0037C81.5753 52.0037 81.9143 52.0761 82.203 52.2203C82.4952 52.3609 82.743 52.5674 82.9445 52.8398C83.1496 53.1086 83.3114 53.4337 83.4293 53.8147C83.5473 54.1956 83.6291 54.6264 83.6747 55.1076V55.6612C83.632 56.1383 83.5502 56.5673 83.4293 56.9482C83.3114 57.3291 83.1496 57.6537 82.9445 57.9225C82.743 58.1913 82.4952 58.3978 82.203 58.542C81.9101 58.6826 81.5676 58.7526 81.1763 58.7526C80.8077 58.7526 80.4734 58.6701 80.1728 58.5058C79.8759 58.3414 79.621 58.1112 79.4088 57.8145C79.1954 57.5172 79.0318 57.1689 78.918 56.7678C78.8078 56.3626 78.7521 55.9235 78.7521 55.4506ZM79.8071 55.3242V55.4506C79.8071 55.7751 79.8379 56.0801 79.899 56.3649C79.9636 56.6491 80.0602 56.9001 80.1894 57.1167C80.3228 57.3333 80.4923 57.5036 80.6974 57.6276C80.9025 57.7481 81.1479 57.808 81.433 57.808C81.7827 57.808 82.0714 57.7303 82.2996 57.5736C82.5284 57.4176 82.7086 57.2111 82.8419 56.9541C82.9789 56.6978 83.085 56.4189 83.1614 56.1181V54.6685C83.1193 54.4478 83.0541 54.2354 82.967 54.0307C82.8834 53.8224 82.7732 53.6379 82.6363 53.4776C82.5035 53.3133 82.3381 53.1827 82.1401 53.0866C81.9428 52.9905 81.7104 52.9424 81.4443 52.9424C81.1556 52.9424 80.9067 53.0065 80.6974 53.1347C80.4923 53.2593 80.3228 53.4314 80.1894 53.6521C80.0602 53.8687 79.9636 54.1214 79.899 54.4098C79.8379 54.6946 79.8071 54.9996 79.8071 55.3242ZM86.8044 53.5138V58.6322H85.7493V52.1242H86.7469L86.8044 53.5138ZM86.5525 55.1319L86.1138 55.1135C86.118 54.6685 86.1808 54.2573 86.3017 53.8805C86.4238 53.4996 86.5951 53.1691 86.815 52.8879C87.0361 52.6072 87.2981 52.3912 87.6022 52.2387C87.9104 52.0821 88.2506 52.0037 88.6235 52.0037C88.927 52.0037 89.2014 52.0482 89.4444 52.1361C89.688 52.2203 89.8949 52.3568 90.0662 52.5455C90.2411 52.7336 90.3744 52.9786 90.4657 53.2789C90.557 53.5756 90.602 53.9387 90.602 54.3677V58.6322H89.541V54.3558C89.541 54.0146 89.4936 53.7423 89.3988 53.5376C89.3034 53.3293 89.1653 53.1786 88.9827 53.0866C88.7995 52.9905 88.5755 52.9424 88.3099 52.9424C88.0473 52.9424 87.8073 53.0006 87.5909 53.1169C87.3781 53.2332 87.1932 53.3934 87.0379 53.5981C86.8862 53.8022 86.7659 54.0372 86.6787 54.3018C86.5952 54.5623 86.5525 54.8388 86.5525 55.1319ZM96.0303 57.5196V54.1695C96.0303 53.9126 95.9805 53.6901 95.8816 53.5014C95.7873 53.3091 95.6427 53.1608 95.4482 53.0564C95.255 52.9525 95.015 52.9003 94.7299 52.9003C94.4637 52.9003 94.2296 52.9484 94.0287 53.0445C93.8307 53.1406 93.6748 53.267 93.5604 53.4237C93.4507 53.5797 93.3956 53.7482 93.3956 53.9286H92.3405C92.3405 53.696 92.3969 53.4658 92.5113 53.2367C92.6251 53.0083 92.7887 52.8018 93.0014 52.6173C93.2184 52.4292 93.4774 52.2808 93.7773 52.1723C94.082 52.0601 94.4199 52.0037 94.7927 52.0037C95.2414 52.0037 95.6367 52.0844 95.9787 52.2446C96.3249 52.4048 96.5946 52.6475 96.789 52.9721C96.9864 53.2931 97.0854 53.696 97.0854 54.1814V57.2128C97.0854 57.4294 97.1026 57.6596 97.1364 57.9047C97.1749 58.1492 97.23 58.3598 97.3023 58.536V58.6322H96.2016C96.1483 58.504 96.1062 58.3337 96.076 58.1213C96.0451 57.9047 96.0303 57.7042 96.0303 57.5196ZM96.2123 54.6863L96.2241 55.4684H95.1572C94.8573 55.4684 94.5888 55.4945 94.3535 55.5467C94.1182 55.5948 93.9202 55.6689 93.7601 55.7692C93.6007 55.8695 93.4792 55.9959 93.3956 56.1484C93.3114 56.2967 93.27 56.4711 93.27 56.6717C93.27 56.8758 93.3138 57.0621 93.4009 57.2306C93.4881 57.3992 93.6197 57.5338 93.7945 57.6335C93.9735 57.7302 94.1917 57.7783 94.4507 57.7783C94.7737 57.7783 95.0582 57.7059 95.306 57.5617C95.5532 57.4176 95.7488 57.2407 95.8934 57.0325C96.0416 56.8236 96.1216 56.6213 96.1329 56.4249L96.5833 56.9601C96.5567 57.1286 96.4844 57.3149 96.3664 57.5196C96.2485 57.7243 96.0908 57.9207 95.8934 58.1088C95.699 58.2934 95.4672 58.4476 95.1975 58.5722C94.9308 58.6921 94.6309 58.7526 94.2966 58.7526C93.8781 58.7526 93.5112 58.6666 93.1959 58.4939C92.8841 58.3212 92.6405 58.091 92.4656 57.8021C92.2949 57.5095 92.2089 57.1826 92.2089 56.8218C92.2089 56.4729 92.2736 56.1662 92.4034 55.9015C92.532 55.6327 92.7187 55.4102 92.9617 55.234C93.2053 55.0536 93.4976 54.9171 93.8402 54.8252C94.1822 54.7326 94.5645 54.6863 94.9865 54.6863H96.2123ZM101.515 52.1242V52.9786H98.1784V52.1242H101.515ZM99.3081 50.5423H100.363V57.0206C100.363 57.2407 100.396 57.4075 100.46 57.5196C100.524 57.6318 100.609 57.7059 100.711 57.7421C100.814 57.7783 100.924 57.7961 101.042 57.7961C101.129 57.7961 101.22 57.7884 101.316 57.7724C101.415 57.7522 101.488 57.7362 101.538 57.7243L101.543 58.6322C101.46 58.6606 101.35 58.6862 101.213 58.7105C101.08 58.7384 100.919 58.7526 100.728 58.7526C100.469 58.7526 100.232 58.6986 100.015 58.59C99.7989 58.482 99.6253 58.3017 99.4961 58.0489C99.3704 57.792 99.3081 57.4472 99.3081 57.0141V50.5423ZM106.715 57.1286V52.1242H107.775V58.6322H106.766L106.715 57.1286ZM106.915 55.7573L107.354 55.7449C107.354 56.178 107.31 56.5791 107.223 56.9482C107.139 57.3131 107.002 57.63 106.812 57.8982C106.622 58.167 106.373 58.3776 106.065 58.5301C105.757 58.6784 105.383 58.7526 104.942 58.7526C104.641 58.7526 104.365 58.7063 104.114 58.6144C103.867 58.5218 103.654 58.3794 103.476 58.1871C103.297 57.9949 103.158 57.7439 103.059 57.4354C102.964 57.1268 102.917 56.7554 102.917 56.3228V52.1242H103.972V56.3347C103.972 56.6272 104.003 56.8699 104.063 57.0621C104.128 57.2508 104.213 57.4015 104.32 57.5137C104.43 57.6217 104.551 57.6982 104.685 57.7421C104.822 57.786 104.962 57.808 105.107 57.808C105.555 57.808 105.911 57.7178 106.173 57.5374C106.436 57.3529 106.624 57.1066 106.738 56.7975C106.855 56.4848 106.915 56.1383 106.915 55.7573ZM110.626 53.1466V58.6322H109.571V52.1242H110.597L110.626 53.1466ZM112.554 52.088L112.548 53.1228C112.46 53.1026 112.377 53.0908 112.297 53.0866C112.221 53.0783 112.133 53.0748 112.035 53.0748C111.791 53.0748 111.577 53.1145 111.39 53.1946C111.204 53.2753 111.046 53.3875 110.917 53.5316C110.787 53.6758 110.685 53.8485 110.609 54.049C110.536 54.2455 110.489 54.462 110.466 54.6988L110.17 54.8792C110.17 54.4864 110.206 54.1173 110.278 53.7725C110.354 53.4272 110.471 53.1228 110.626 52.8582C110.782 52.5894 110.98 52.3811 111.219 52.2328C111.462 52.0803 111.751 52.0037 112.086 52.0037C112.162 52.0037 112.249 52.0138 112.348 52.034C112.447 52.05 112.516 52.0684 112.554 52.088ZM116.162 58.7526C115.733 58.7526 115.343 58.6767 114.993 58.5242C114.647 58.3675 114.349 58.1492 114.098 57.8685C113.851 57.5879 113.661 57.255 113.528 56.8699C113.395 56.4848 113.328 56.0641 113.328 55.6066V55.3544C113.328 54.8252 113.402 54.3534 113.55 53.9405C113.699 53.5239 113.9 53.1709 114.155 52.8819C114.41 52.5935 114.699 52.3746 115.022 52.2263C115.345 52.0779 115.68 52.0037 116.026 52.0037C116.467 52.0037 116.847 52.0844 117.166 52.2446C117.489 52.4048 117.754 52.6297 117.959 52.9181C118.164 53.2029 118.317 53.54 118.415 53.9286C118.514 54.3137 118.563 54.735 118.563 55.1919V55.6909H113.955V54.783H117.508V54.6988C117.493 54.4098 117.436 54.1292 117.337 53.8568C117.242 53.5839 117.09 53.3596 116.881 53.1827C116.672 53.0065 116.387 52.9181 116.026 52.9181C115.786 52.9181 115.566 52.9721 115.364 53.0807C115.162 53.1851 114.989 53.3412 114.844 53.55C114.7 53.7583 114.588 54.0129 114.508 54.3137C114.429 54.6145 114.389 54.961 114.389 55.3544V55.6066C114.389 55.9158 114.429 56.2065 114.508 56.4789C114.592 56.7476 114.712 56.9844 114.867 57.1885C115.028 57.3932 115.22 57.5534 115.444 57.6697C115.672 57.786 115.93 57.8442 116.22 57.8442C116.592 57.8442 116.908 57.7641 117.166 57.6039C117.425 57.4431 117.65 57.2289 117.845 56.9601L118.483 57.4953C118.35 57.7077 118.181 57.9106 117.976 58.1029C117.771 58.2957 117.518 58.4518 117.217 58.5722C116.921 58.6921 116.569 58.7526 116.162 58.7526ZM124.116 53.4177V58.6322H123.054V52.1242H124.058L124.116 53.4177ZM123.899 55.1319L123.408 55.1135C123.412 54.6685 123.467 54.2573 123.574 53.8805C123.68 53.4996 123.838 53.1691 124.047 52.8879C124.256 52.6072 124.517 52.3912 124.828 52.2387C125.14 52.0821 125.501 52.0037 125.912 52.0037C126.201 52.0037 126.467 52.0482 126.71 52.1361C126.954 52.2203 127.164 52.355 127.343 52.5395C127.522 52.7235 127.66 52.9602 127.759 53.2492C127.858 53.5376 127.908 53.8865 127.908 54.2959V58.6322H126.853V54.3499C126.853 54.0087 126.797 53.7364 126.687 53.5316C126.581 53.3269 126.429 53.1786 126.231 53.0866C126.033 52.9905 125.802 52.9424 125.536 52.9424C125.224 52.9424 124.964 53.0006 124.754 53.1169C124.545 53.2332 124.377 53.3934 124.252 53.5981C124.127 53.8022 124.035 54.0372 123.978 54.3018C123.926 54.5623 123.899 54.8388 123.899 55.1319ZM127.896 54.5184L127.189 54.7468C127.193 54.3896 127.248 54.0473 127.355 53.718C127.465 53.3892 127.623 53.0967 127.828 52.8398C128.037 52.5835 128.294 52.3811 128.598 52.2328C128.902 52.0803 129.25 52.0037 129.642 52.0037C129.972 52.0037 130.266 52.05 130.52 52.1426C130.779 52.2346 130.995 52.377 131.17 52.5692C131.349 52.7579 131.484 53.0006 131.575 53.2973C131.666 53.5939 131.712 53.947 131.712 54.3558V58.6322H130.651V54.344C130.651 53.979 130.596 53.696 130.485 53.4954C130.379 53.2913 130.227 53.1489 130.03 53.0688C129.835 52.9846 129.603 52.9424 129.334 52.9424C129.102 52.9424 128.896 52.9846 128.717 53.0688C128.539 53.1531 128.389 53.2688 128.267 53.4177C128.146 53.5619 128.052 53.728 127.988 53.9167C127.927 54.1054 127.896 54.3054 127.896 54.5184ZM137.134 57.5196V54.1695C137.134 53.9126 137.085 53.6901 136.985 53.5014C136.891 53.3091 136.747 53.1608 136.553 53.0564C136.358 52.9525 136.119 52.9003 135.834 52.9003C135.568 52.9003 135.334 52.9484 135.133 53.0445C134.935 53.1406 134.779 53.267 134.665 53.4237C134.555 53.5797 134.499 53.7482 134.499 53.9286H133.444C133.444 53.696 133.501 53.4658 133.615 53.2367C133.73 53.0083 133.893 52.8018 134.106 52.6173C134.323 52.4292 134.581 52.2808 134.882 52.1723C135.185 52.0601 135.524 52.0037 135.897 52.0037C136.345 52.0037 136.741 52.0844 137.083 52.2446C137.429 52.4048 137.698 52.6475 137.893 52.9721C138.09 53.2931 138.189 53.696 138.189 54.1814V57.2128C138.189 57.4294 138.206 57.6596 138.24 57.9047C138.278 58.1492 138.334 58.3598 138.406 58.536V58.6322H137.305C137.252 58.504 137.211 58.3337 137.18 58.1213C137.149 57.9047 137.134 57.7042 137.134 57.5196ZM137.317 54.6863L137.328 55.4684H136.262C135.961 55.4684 135.693 55.4945 135.457 55.5467C135.221 55.5948 135.024 55.6689 134.865 55.7692C134.705 55.8695 134.583 55.9959 134.499 56.1484C134.415 56.2967 134.374 56.4711 134.374 56.6717C134.374 56.8758 134.418 57.0621 134.505 57.2306C134.593 57.3992 134.724 57.5338 134.898 57.6335C135.077 57.7302 135.296 57.7783 135.554 57.7783C135.878 57.7783 136.163 57.7059 136.41 57.5617C136.657 57.4176 136.853 57.2407 136.997 57.0325C137.145 56.8236 137.225 56.6213 137.237 56.4249L137.687 56.9601C137.661 57.1286 137.589 57.3149 137.471 57.5196C137.353 57.7243 137.195 57.9207 136.997 58.1088C136.803 58.2934 136.571 58.4476 136.301 58.5722C136.035 58.6921 135.735 58.7526 135.4 58.7526C134.983 58.7526 134.615 58.6666 134.3 58.4939C133.988 58.3212 133.745 58.091 133.569 57.8021C133.399 57.5095 133.313 57.1826 133.313 56.8218C133.313 56.4729 133.378 56.1662 133.507 55.9015C133.636 55.6327 133.823 55.4102 134.066 55.234C134.309 55.0536 134.602 54.9171 134.944 54.8252C135.287 54.7326 135.669 54.6863 136.09 54.6863H137.317ZM143.925 57.3689V49.3936H144.986V58.6322H144.016L143.925 57.3689ZM139.773 55.4506V55.3242C139.773 54.8269 139.831 54.376 139.944 53.9707C140.062 53.5619 140.228 53.2112 140.44 52.9181C140.657 52.6256 140.914 52.4007 141.21 52.2446C141.511 52.0844 141.846 52.0037 142.215 52.0037C142.602 52.0037 142.94 52.0761 143.229 52.2203C143.522 52.3609 143.769 52.5674 143.971 52.8398C144.176 53.1086 144.338 53.4337 144.455 53.8147C144.573 54.1956 144.655 54.6264 144.701 55.1076V55.6612C144.659 56.1383 144.577 56.5673 144.455 56.9482C144.338 57.3291 144.176 57.6537 143.971 57.9225C143.769 58.1913 143.522 58.3978 143.229 58.542C142.936 58.6826 142.594 58.7526 142.203 58.7526C141.842 58.7526 141.511 58.6701 141.21 58.5058C140.914 58.3414 140.657 58.1112 140.44 57.8145C140.228 57.5172 140.062 57.1689 139.944 56.7678C139.831 56.3626 139.773 55.9235 139.773 55.4506ZM140.834 55.3242V55.4506C140.834 55.7751 140.864 56.0801 140.925 56.3649C140.99 56.6491 141.089 56.9001 141.222 57.1167C141.355 57.3333 141.524 57.5036 141.73 57.6276C141.935 57.7481 142.18 57.808 142.465 57.808C142.815 57.808 143.102 57.7303 143.326 57.5736C143.554 57.4176 143.737 57.2111 143.874 56.9541C144.011 56.6978 144.117 56.4189 144.193 56.1181V54.6685C144.147 54.4478 144.081 54.2354 143.993 54.0307C143.91 53.8224 143.8 53.6379 143.663 53.4776C143.53 53.3133 143.364 53.1827 143.166 53.0866C142.973 52.9905 142.743 52.9424 142.477 52.9424C142.188 52.9424 141.938 53.0065 141.73 53.1347C141.524 53.2593 141.355 53.4314 141.222 53.6521C141.089 53.8687 140.99 54.1214 140.925 54.4098C140.864 54.6946 140.834 54.9996 140.834 55.3242ZM149.376 58.7526C148.946 58.7526 148.557 58.6767 148.207 58.5242C147.861 58.3675 147.562 58.1492 147.312 57.8685C147.064 57.5879 146.874 57.255 146.741 56.8699C146.609 56.4848 146.542 56.0641 146.542 55.6066V55.3544C146.542 54.8252 146.616 54.3534 146.764 53.9405C146.913 53.5239 147.114 53.1709 147.368 52.8819C147.623 52.5935 147.912 52.3746 148.235 52.2263C148.558 52.0779 148.893 52.0037 149.239 52.0037C149.68 52.0037 150.061 52.0844 150.38 52.2446C150.703 52.4048 150.967 52.6297 151.172 52.9181C151.378 53.2029 151.53 53.54 151.628 53.9286C151.727 54.3137 151.777 54.735 151.777 55.1919V55.6909H147.169V54.783H150.722V54.6988C150.707 54.4098 150.649 54.1292 150.55 53.8568C150.456 53.5839 150.304 53.3596 150.094 53.1827C149.885 53.0065 149.601 52.9181 149.239 52.9181C148.999 52.9181 148.779 52.9721 148.578 53.0807C148.376 53.1851 148.203 53.3412 148.059 53.55C147.914 53.7583 147.802 54.0129 147.722 54.3137C147.642 54.6145 147.602 54.961 147.602 55.3544V55.6066C147.602 55.9158 147.642 56.2065 147.722 56.4789C147.806 56.7476 147.926 56.9844 148.081 57.1885C148.241 57.3932 148.433 57.5534 148.657 57.6697C148.885 57.786 149.144 57.8442 149.433 57.8442C149.806 57.8442 150.121 57.7641 150.38 57.6039C150.639 57.4431 150.864 57.2289 151.058 56.9601L151.697 57.4953C151.564 57.7077 151.395 57.9106 151.19 58.1029C150.984 58.2957 150.731 58.4518 150.431 58.5722C150.135 58.6921 149.783 58.7526 149.376 58.7526ZM158.84 58.7526C158.41 58.7526 158.021 58.6767 157.671 58.5242C157.325 58.3675 157.026 58.1492 156.776 57.8685C156.529 57.5879 156.339 57.255 156.205 56.8699C156.072 56.4848 156.006 56.0641 156.006 55.6066V55.3544C156.006 54.8252 156.08 54.3534 156.229 53.9405C156.376 53.5239 156.578 53.1709 156.833 52.8819C157.088 52.5935 157.377 52.3746 157.7 52.2263C158.023 52.0779 158.358 52.0037 158.703 52.0037C159.144 52.0037 159.524 52.0844 159.844 52.2446C160.167 52.4048 160.432 52.6297 160.637 52.9181C160.842 53.2029 160.994 53.54 161.093 53.9286C161.192 54.3137 161.241 54.735 161.241 55.1919V55.6909H156.633V54.783H160.186V54.6988C160.171 54.4098 160.114 54.1292 160.015 53.8568C159.92 53.5839 159.768 53.3596 159.559 53.1827C159.35 53.0065 159.064 52.9181 158.703 52.9181C158.464 52.9181 158.243 52.9721 158.042 53.0807C157.84 53.1851 157.667 53.3412 157.523 53.55C157.378 53.7583 157.266 54.0129 157.186 54.3137C157.106 54.6145 157.067 54.961 157.067 55.3544V55.6066C157.067 55.9158 157.106 56.2065 157.186 56.4789C157.27 56.7476 157.39 56.9844 157.546 57.1885C157.705 57.3932 157.898 57.5534 158.122 57.6697C158.35 57.786 158.608 57.8442 158.897 57.8442C159.27 57.8442 159.586 57.7641 159.844 57.6039C160.102 57.4431 160.329 57.2289 160.523 56.9601L161.161 57.4953C161.029 57.7077 160.859 57.9106 160.654 58.1029C160.449 58.2957 160.196 58.4518 159.895 58.5722C159.599 58.6921 159.247 58.7526 158.84 58.7526ZM166.299 57.5196V54.1695C166.299 53.9126 166.249 53.6901 166.15 53.5014C166.055 53.3091 165.91 53.1608 165.717 53.0564C165.523 52.9525 165.283 52.9003 164.998 52.9003C164.732 52.9003 164.498 52.9484 164.297 53.0445C164.099 53.1406 163.943 53.267 163.829 53.4237C163.718 53.5797 163.663 53.7482 163.663 53.9286H162.608C162.608 53.696 162.666 53.4658 162.78 53.2367C162.894 53.0083 163.058 52.8018 163.27 52.6173C163.487 52.4292 163.745 52.2808 164.046 52.1723C164.35 52.0601 164.689 52.0037 165.061 52.0037C165.51 52.0037 165.905 52.0844 166.247 52.2446C166.593 52.4048 166.863 52.6475 167.057 52.9721C167.255 53.2931 167.354 53.696 167.354 54.1814V57.2128C167.354 57.4294 167.37 57.6596 167.405 57.9047C167.443 58.1492 167.498 58.3598 167.57 58.536V58.6322H166.469C166.417 58.504 166.374 58.3337 166.344 58.1213C166.314 57.9047 166.299 57.7042 166.299 57.5196ZM166.481 54.6863L166.492 55.4684H165.426C165.126 55.4684 164.858 55.4945 164.622 55.5467C164.386 55.5948 164.188 55.6689 164.029 55.7692C163.869 55.8695 163.747 55.9959 163.663 56.1484C163.58 56.2967 163.538 56.4711 163.538 56.6717C163.538 56.8758 163.582 57.0621 163.67 57.2306C163.757 57.3992 163.889 57.5338 164.063 57.6335C164.241 57.7302 164.46 57.7783 164.718 57.7783C165.042 57.7783 165.327 57.7059 165.574 57.5617C165.821 57.4176 166.017 57.2407 166.162 57.0325C166.31 56.8236 166.39 56.6213 166.401 56.4249L166.852 56.9601C166.825 57.1286 166.753 57.3149 166.635 57.5196C166.517 57.7243 166.36 57.9207 166.162 58.1088C165.968 58.2934 165.736 58.4476 165.466 58.5722C165.2 58.6921 164.899 58.7526 164.565 58.7526C164.147 58.7526 163.78 58.6666 163.464 58.4939C163.152 58.3212 162.909 58.091 162.734 57.8021C162.563 57.5095 162.478 57.1826 162.478 56.8218C162.478 56.4729 162.542 56.1662 162.671 55.9015C162.801 55.6327 162.987 55.4102 163.23 55.234C163.474 55.0536 163.766 54.9171 164.108 54.8252C164.45 54.7326 164.833 54.6863 165.255 54.6863H166.481ZM172.793 56.9061C172.793 56.7459 172.759 56.5975 172.691 56.4611C172.626 56.3204 172.491 56.194 172.285 56.0819C172.084 55.9656 171.78 55.8653 171.373 55.7811C171.031 55.7051 170.721 55.6149 170.444 55.5105C170.17 55.4061 169.936 55.2803 169.742 55.1319C169.552 54.983 169.406 54.8091 169.303 54.6086C169.201 54.408 169.148 54.1731 169.148 53.9049C169.148 53.6479 169.202 53.4053 169.309 53.1768C169.419 52.9484 169.572 52.746 169.77 52.5692C169.972 52.393 170.213 52.2547 170.495 52.1545C170.776 52.0542 171.09 52.0037 171.436 52.0037C171.93 52.0037 172.352 52.0963 172.701 52.2808C173.052 52.4654 173.32 52.7116 173.506 53.0208C173.692 53.3252 173.785 53.664 173.785 54.0372H172.73C172.73 53.8568 172.679 53.6824 172.576 53.5138C172.477 53.3412 172.331 53.1988 172.137 53.0866C171.947 52.9745 171.713 52.9181 171.436 52.9181C171.143 52.9181 170.905 52.9662 170.723 53.0623C170.544 53.1549 170.413 53.2729 170.329 53.4177C170.249 53.5619 170.209 53.7144 170.209 53.8746C170.209 53.9951 170.228 54.103 170.266 54.1992C170.308 54.2917 170.381 54.3778 170.483 54.4579C170.586 54.5344 170.73 54.6062 170.917 54.6744C171.103 54.7427 171.34 54.8109 171.63 54.8792C172.135 54.9996 172.551 55.1438 172.879 55.3123C173.205 55.4808 173.449 55.6867 173.609 55.9318C173.768 56.1762 173.848 56.4729 173.848 56.8218C173.848 57.1066 173.791 57.3671 173.677 57.6039C173.567 57.84 173.405 58.0447 173.192 58.2174C172.983 58.3859 172.732 58.5182 172.439 58.6144C172.15 58.7063 171.825 58.7526 171.464 58.7526C170.921 58.7526 170.461 58.6506 170.084 58.4458C169.707 58.2411 169.422 57.9765 169.229 57.6519C169.035 57.3268 168.938 56.9844 168.938 56.623H169.998C170.013 56.928 170.097 57.1707 170.249 57.3511C170.402 57.5273 170.588 57.6537 170.808 57.7303C171.029 57.8021 171.248 57.8382 171.464 57.8382C171.753 57.8382 171.995 57.7979 172.189 57.7178C172.386 57.6377 172.537 57.5273 172.639 57.3873C172.742 57.2467 172.793 57.0865 172.793 56.9061ZM177.155 57.9587L178.871 52.1242H180L177.525 59.6367C177.468 59.7969 177.392 59.9696 177.297 60.1541C177.206 60.3422 177.088 60.5208 176.944 60.6893C176.799 60.8579 176.624 60.9943 176.419 61.0982C176.217 61.2067 175.976 61.2607 175.694 61.2607C175.611 61.2607 175.504 61.2489 175.375 61.2245C175.246 61.2008 175.155 61.1806 175.101 61.1646L175.096 60.2621C175.126 60.2663 175.174 60.2704 175.238 60.274C175.306 60.2823 175.354 60.2864 175.381 60.2864C175.621 60.2864 175.824 60.252 175.992 60.1838C176.158 60.1197 176.299 60.0094 176.413 59.8533C176.531 59.7008 176.632 59.4902 176.715 59.222L177.155 57.9587ZM175.894 52.1242L177.497 57.1767L177.77 58.3497L177.012 58.7585L174.742 52.1242H175.894Z" fill="white"/>
</svg>
