<svg width="52" height="52" viewBox="0 0 52 52" fill="none" xmlns="http://www.w3.org/2000/svg">
<rect width="52" height="52" rx="26" fill="#FF5858" fill-opacity="0.1"/>
<path fill-rule="evenodd" clip-rule="evenodd" d="M30.5001 18.4782V18.705C31.4548 18.7924 32.4017 18.9073 33.3398 19.049C33.6871 19.1014 34.0332 19.1576 34.3781 19.2173C34.7863 19.288 35.0598 19.6762 34.9891 20.0843C34.9184 20.4924 34.5302 20.766 34.1221 20.6953C34.0525 20.6832 33.9829 20.6713 33.9131 20.6596L32.9077 33.7301C32.7875 35.2931 31.4842 36.5 29.9166 36.5H22.0837C20.5161 36.5 19.2128 35.2931 19.0925 33.7301L18.0871 20.6596C18.0174 20.6713 17.9477 20.6832 17.8781 20.6953C17.47 20.766 17.0818 20.4924 17.0111 20.0843C16.9404 19.6762 17.214 19.288 17.6221 19.2173C17.967 19.1576 18.3131 19.1014 18.6605 19.049C19.5986 18.9073 20.5454 18.7924 21.5001 18.705V18.4782C21.5001 16.9137 22.7127 15.5782 24.3156 15.5269C24.8749 15.509 25.4365 15.5 26.0001 15.5C26.5638 15.5 27.1253 15.509 27.6847 15.5269C29.2876 15.5782 30.5001 16.9137 30.5001 18.4782ZM24.3635 17.0261C24.9069 17.0088 25.4525 17 26.0001 17C26.5478 17 27.0934 17.0088 27.6367 17.0261C28.3913 17.0503 29.0001 17.6839 29.0001 18.4782V18.5908C28.0078 18.5306 27.0075 18.5 26.0001 18.5C24.9928 18.5 23.9925 18.5306 23.0001 18.5908V18.4782C23.0001 17.6839 23.6089 17.0503 24.3635 17.0261ZM24.0087 22.9712C23.9928 22.5573 23.6444 22.2346 23.2305 22.2506C22.8165 22.2665 22.4939 22.6149 22.5098 23.0288L22.856 32.0288C22.8719 32.4427 23.2203 32.7654 23.6343 32.7494C24.0482 32.7335 24.3708 32.3851 24.3549 31.9712L24.0087 22.9712ZM29.4895 23.0288C29.5054 22.6149 29.1828 22.2665 28.7689 22.2506C28.355 22.2346 28.0065 22.5573 27.9906 22.9712L27.6444 31.9712C27.6285 32.3851 27.9512 32.7335 28.3651 32.7494C28.779 32.7654 29.1274 32.4427 29.1433 32.0288L29.4895 23.0288Z" fill="#FF5858"/>
</svg>
