<svg width="52" height="52" viewBox="0 0 52 52" fill="none" xmlns="http://www.w3.org/2000/svg">
<rect width="52" height="52" rx="26" fill="#FFB800" fill-opacity="0.1"/>
<path fill-rule="evenodd" clip-rule="evenodd" d="M35.5999 26.0004C35.5999 31.3023 31.3018 35.6004 25.9999 35.6004C20.698 35.6004 16.3999 31.3023 16.3999 26.0004C16.3999 20.6985 20.698 16.4004 25.9999 16.4004C31.3018 16.4004 35.5999 20.6985 35.5999 26.0004ZM25.9999 20.0004C26.497 20.0004 26.8999 20.4033 26.8999 20.9004V26.3004C26.8999 26.7974 26.497 27.2004 25.9999 27.2004C25.5028 27.2004 25.0999 26.7974 25.0999 26.3004V20.9004C25.0999 20.4033 25.5028 20.0004 25.9999 20.0004ZM25.9999 32.0004C26.6626 32.0004 27.1999 31.4631 27.1999 30.8004C27.1999 30.1376 26.6626 29.6004 25.9999 29.6004C25.3372 29.6004 24.7999 30.1376 24.7999 30.8004C24.7999 31.4631 25.3372 32.0004 25.9999 32.0004Z" fill="#FFB800"/>
</svg>
